<?xml version="1.0" encoding="UTF-8"?>
<svg id="shapes" xmlns="http://www.w3.org/2000/svg" xmlns:xlink="http://www.w3.org/1999/xlink" version="1.1" viewBox="0 0 960 677.7">
  <!-- Generator: Adobe Illustrator 29.6.1, SVG Export Plug-In . SVG Version: 2.1.1 Build 9)  -->
  <defs>
    <style>
      .st0 {
        fill: #231f20;
      }

      .st1 {
        fill: url(#WhiteGradient);
      }

      .st2 {
        fill: #fff;
      }

      .st3 {
        fill: url(#WhiteGradient4);
      }

      .st4 {
        fill: url(#WhiteGradient3);
      }

      .st5 {
        fill: url(#WhiteGradient5);
      }

      .st6 {
        fill: url(#WhiteGradient6);
      }

      .st7 {
        fill: url(#WhiteGradient7);
      }

      .st8 {
        fill: url(#WhiteGradient2);
      }

      .st9 {
        fill: url(#WhiteGradient1);
      }

      .st10 {
        fill: #333132;
      }
    </style>
    <linearGradient id="WhiteGradient" x1="276.9" y1="569.7" x2="891.2" y2="569.7" gradientUnits="userSpaceOnUse">
      <stop offset="0" stop-color="#fff"/>
      <stop offset=".5" stop-color="#fcfcfc"/>
      <stop offset=".8" stop-color="#f4f4f4"/>
      <stop offset="1" stop-color="#e6e6e6"/>
    </linearGradient>
    <linearGradient id="WhiteGradient1" data-name="WhiteGradient" x1="598.4" y1="532.9" x2="890.4" y2="532.9" xlink:href="#WhiteGradient"/>
    <linearGradient id="WhiteGradient2" data-name="WhiteGradient" x1="234" y1="501.5" x2="568.9" y2="501.5" xlink:href="#WhiteGradient"/>
    <linearGradient id="WhiteGradient3" data-name="WhiteGradient" x1="213.4" y1="487" x2="586.1" y2="487" xlink:href="#WhiteGradient"/>
    <linearGradient id="WhiteGradient4" data-name="WhiteGradient" x1="119.4" y1="428.4" x2="701.4" y2="428.4" xlink:href="#WhiteGradient"/>
    <linearGradient id="WhiteGradient5" data-name="WhiteGradient" x1="97.7" y1="551.2" x2="854.3" y2="551.2" xlink:href="#WhiteGradient"/>
    <linearGradient id="WhiteGradient6" data-name="WhiteGradient" x1="100.3" y1="591.9" x2="409.9" y2="591.9" xlink:href="#WhiteGradient"/>
    <linearGradient id="WhiteGradient7" data-name="WhiteGradient" x1="122.4" y1="612.8" x2="280.4" y2="612.8" xlink:href="#WhiteGradient"/>
  </defs>
  <g id="jordan40">
    <path id="j40_x5F_20" class="st1" d="M891.1,521.2c0-1.7-.4-4.9-.7-6.4-.7.2-3.4,2.7-3,4.7.4,2,1.7,13.3-2.3,23.9-4,10.6-25.1,22.6-40.4,28.9-15.2,6.4-63.7,19.1-74.8,21.9-11.2,2.8-16.4,2.4-21.5,1.8s-92.9-7.3-109.3-8.6c-16.4-1.3-98.1-9.3-125.6-11.7-25.2-2.2-84.4-3.7-100.3-3.8h0s0,0,0,0c-.7,0-1.4,0-1.9,0,0,0,0,0,0,0-.2,0-.4,0-.6,0,0,0,0,0-.1,0-.2,0-.4,0-.5,0,0,0-116,38.7-123.4,41.1,0,0-4.1.1-6.2.3,0,2.1-.3,5.4-2.4,7.6s-1.2,2.5,0,2.8c.3,0,.6,0,1,0s1.4,0,3.3,0c11.9,0,52.8-.3,71.6-1.3,21.7-1.1,47.7-3.2,93.7-4.1,46-.8,80.5,4,102.2,5.1s42.4,2,126.2,0c83.9-2,161.2-31.1,188.6-46.6,27.4-15.5,26.8-42.4,26.5-55.6Z"/>
    <path id="j40_x5F_19" class="st9" d="M890.4,514.8c-.4-2.4-1.5-8.6-10.3-16.9-.3,2.8-2.3,6.1-5.6,7.8-3.4,1.7-25.2,10.4-47.4,13.5s-61.1,8.8-90,8.7c-28.9,0-68.3-2.4-81.3-3s-28-1.7-33.5-2c-5.5-.3-10.8-.8-14.7,1.6-3.9,2.4-9.2,6.8-9.2,6.8,13.4,2.1,66,9.3,120.4,16.9,59.1,8.2,120.3,16.9,135.5,19.9,13.4-6.7,27.7-16.1,30.8-24.6,4-10.6,2.7-21.9,2.3-23.9-.4-2,2.3-4.5,3-4.7Z"/>
    <path id="j40_x5F_18" class="st2" d="M840.6,466.2c-13.3-4.2-57.9-14.7-72-19.8s-18.6-3.4-24.1-2.5-24.7,3.7-43.1,8.5c-.2,0-.5.2-.8.2-.2,0-.5.1-.7.2,0,0,0,0-.1,0-.3,0-.5.2-.8.3,0,0,0,0,0,0-.2,0-.4.1-.6.2-.1,0-.3,0-.4.1-.2,0-.4.1-.6.2-.1,0-.2,0-.4.1-.3,0-.6.2-.9.3,0,0-.2,0-.2,0-.2,0-.5.1-.7.2-.2,0-.3.1-.5.2-.2,0-.4.1-.6.2-.2,0-.4.1-.6.2-.2,0-.5.1-.7.2-.2,0-.4.1-.6.2-.2,0-.4.1-.6.2-.2,0-.5.2-.7.2-.2,0-.3.1-.5.2-.3,0-.6.2-.9.3-.1,0-.2,0-.4.1-.3.1-.7.2-1,.3-.1,0-.3,0-.4.1-.3.1-.7.2-1,.3-.2,0-.4.1-.6.2-.3.1-.6.2-.9.3-.2,0-.4.1-.6.2-.3.1-.6.2-.9.3-.3,0-.5.2-.8.3-.3,0-.5.2-.8.3-.2,0-.4.1-.6.2-.3.1-.7.2-1,.3-.2,0-.3.1-.5.2-.3.1-.7.2-1.1.4-.3,0-.5.2-.8.3-.3.1-.6.2-.9.3-.2,0-.4.1-.5.2-.4.1-.8.3-1.2.4,0,0-.2,0-.3,0-1.6.5-3.2,1.1-4.9,1.7-.2,0-.3.1-.5.2-.4.1-.8.3-1.2.4-.2,0-.4.2-.7.2-.4.1-.8.3-1.2.4-.2,0-.3.1-.5.2-.4.1-.9.3-1.3.4-.2,0-.3.1-.5.2-.4.1-.8.3-1.3.4-.2,0-.4.1-.5.2-.5.2-.9.3-1.4.5,0,0-.2,0-.2,0-.5.2-1,.3-1.5.5-.2,0-.3.1-.5.2-.4.2-.9.3-1.3.5-.2,0-.4.1-.5.2-.5.2-.9.3-1.4.5,0,0-.2,0-.3.1-.5.2-1.1.4-1.6.6,0,0,0,0,0,0h0c-19.4,6.7-38.8,13.6-47,16.7-7.4,2.8-14.3,5.4-20.7,8.3-6.5,2.9-12.3,6.1-17.3,9.8-1.1.9-2.3,1.7-3.3,2.7-6,5.2-15.6,12.9-22.4,18.3,14.3,1.3,49.2,6.2,55.3,7,0,0,5.4-4.3,9.2-6.8,3.9-2.4,9.2-1.9,14.7-1.6,5.5.3,20.5,1.4,33.5,2s52.4,2.9,81.3,3c28.9,0,67.8-5.6,90-8.7s44-11.8,47.4-13.5c3.4-1.7,5.4-5,5.6-7.8-6.1-18.5-26.4-27.5-39.6-31.7Z"/>
    <path id="j40_x5F_17" class="st10" d="M707.1,430.7c-8.2-2.7-66.2-25.4-83.2-31.8s-70.2-28.4-83.9-34.3c-13.7-5.9-49.1-21.9-65.8-29.9-16.7-8-32.9-18.2-36-21.9h0c2.3,3,3.1,7.3,1.3,9.1-6.2,5.6-26.9,27.8-26.9,27.8,1.6.5,3.5,1.3,6,2.4,10.7,4.8,87.5,34.2,133.8,47.4s137.8,46.9,148.8,52.8c18.4-4.8,37.6-7.6,43.1-8.5-7.9-2.8-29.1-10.4-37.3-13.1Z"/>
    <path id="j40_x5F_16" class="st0" d="M394,279.7c3.3,1.6,6.9,3.7,10.5,6.1,0,0,0,0,0,0-6-9.9-16-22.1-23.4-29.9-2.5,3-20.1,21.1-25.5,25.5,0,0,0,0,0,0,12.4-4.5,27.1-7.2,38.4-1.7Z"/>
    <path id="j40_x5F_15" class="st0" d="M381.1,255.9c-2.5-2.6-4.8-4.8-6.4-6.1-1.9-1.5-5.2-4.4-9-7.7-3.4,4-51.8,53.2-59.2,59.8h0c-.4,2.3-.8,4.5-1.2,6.7h0c15.2-8.7,28.2-16.8,34.8-20.3,4.2-2.2,9.6-4.8,15.5-6.9,0,0,0,0,0,0,5.4-4.4,23-22.5,25.5-25.5Z"/>
    <path id="j40_x5F_14" class="st0" d="M365.6,242c-5-4.3-10.9-9.5-16-13.7-3.1,2.4-34.2,37.4-41.4,46.6,0,0,0,0,0,0,.6,10.3-.4,18.8-1.8,26.9h0c7.3-6.6,55.8-55.8,59.2-59.8Z"/>
    <path id="j40_x5F_13" class="st0" d="M349.7,228.4c-4.7-3.9-8.7-7-10.6-8-3.1-1.5-7.5-2-11.2-1.5-.7,3.2-7,8.3-13.9,14.8-7.1,6.6-8,18.5-6.2,34.9.2,2.2.4,4.4.5,6.4,0,0,0,0,0,0,7.2-9.3,38.3-44.2,41.4-46.6Z"/>
    <path id="j40_x5F_12" class="st2" d="M307.8,268.5c-1.8-16.4-.8-28.2,6.2-34.9,6.9-6.5,13.2-11.6,13.9-14.8-3.1.4-5.7,1.3-6.7,2.8-2.3,3.2-5.8,6.4-12.4,13.6-6.6,7.2-7.3,16.1-5.6,32.9,1.7,16.8.8,30.5-1,42.3,1.1-.6,2.1-1.2,3.1-1.8h0c2.2-11.7,4.3-23.7,2.5-40Z"/>
    <path id="j40_x5F_11" class="st0" d="M207.2,299c-8.5-12.4-22.2-21-30.5-22.4-8.3-1.3-20.6,6.8-24.3,11.9h0c1.9-1.1,3.7-2,5.1-2.8,4.5-2.4,16.2-6.8,23,5.2,6.8,12,25.8,48.6,33.8,53.9,5.5-.8,11.5-1.9,18-3.5-3-5.1-16.6-29.9-25.1-42.3Z"/>
    <path id="j40_x5F_10" class="st0" d="M180.6,291c-6.8-12-18.5-7.6-23-5.2-1.4.8-3.2,1.7-5.1,2.8-4,2.4-8.2,5.7-9.6,10.2-2,6.6-7.9,32.5-9.5,48.3,0,0,0,0,0,0,2.2-.3,5.3-.5,8.9-.7,14.3-.7,36.8-.7,46.4-.2,5.9.3,14.7.2,25.6-1.3-8-5.3-27-41.9-33.8-53.9Z"/>
    <path id="j40_x5F_9" class="st10" d="M438.4,312.8c-.5-.7-1.1-1.3-1.7-1.8-2.8-2.3-17.8-15.8-32.1-25.3-3.6-2.4-7.2-4.5-10.5-6.1-16.7-8-40.8,1.7-53.9,8.6-7.1,3.8-21.4,12.6-37.9,22.1-14,8-29.5,16.3-43.7,22.3-9.2,3.9-18,6.7-26.2,8.7-6.4,1.6-12.5,2.7-18,3.5-10.9,1.5-19.7,1.6-25.6,1.3-.3,0-.7,0-1.1,0-.1,0-.2,0-.4,0-.3,0-.5,0-.8,0-.1,0-.3,0-.4,0-.3,0-.6,0-.9,0-.2,0-.3,0-.5,0-.4,0-.9,0-1.3,0,0,0-.1,0-.2,0-.4,0-.8,0-1.3,0-.2,0-.4,0-.6,0-.3,0-.6,0-1,0-.2,0-.4,0-.6,0-.3,0-.6,0-.9,0-.2,0-.5,0-.7,0-.3,0-.6,0-.9,0-.4,0-.9,0-1.4,0-.3,0-.6,0-.9,0-.3,0-.6,0-.9,0-.3,0-.5,0-.8,0-.3,0-.6,0-1,0-.2,0-.5,0-.7,0-.4,0-.7,0-1.1,0,0,0,0,0,0,0-1,0-2,0-3,0,0,0-.1,0-.2,0-.5,0-.9,0-1.4,0-.1,0-.2,0-.4,0-.5,0-.9,0-1.4,0,0,0-.1,0-.2,0-.9,0-1.7,0-2.6,0-.2,0-.5,0-.7,0-.7,0-1.3,0-2,0-.2,0-.5,0-.7,0-.8,0-1.5,0-2.3,0-.1,0-.2,0-.3,0-1.8,0-3.6,0-5.3.1,0,0-.2,0-.3,0-.8,0-1.5,0-2.3,0,0,0-.2,0-.3,0-5.7.2-10.6.5-13.7.9-.6,0-1.1.1-1.6.2-9.2,1.6-8.8,4.7-8.8,9.3.8-2,1.3-3.1,11-4,1.2,0,2.5-.2,3.9-.3.9,0,1.9,0,3.1-.1,13.5-.4,45.6.4,75.2-3.5,5.8-.8,11.5-1.7,16.9-2.9,2.1-.4,4.1-.9,6.1-1.4,21.7-5.6,48.2-20,68.9-32,13.8-8,25-14.9,30.4-17.4,13.6-6.2,35-18.4,52.5-12.7,4.1,1.3,8.6,3.9,13.2,7.1,10.2,7.1,20.7,17.4,27.7,24.7,3.4,3.5,6,6.3,7.3,7.7,1.8-1.7,1-6-1.3-9.1Z"/>
    <path id="j40_x5F_8" class="st0" d="M432.3,314.2c-10.2-10.6-27.8-27.6-41-31.8-17.5-5.6-39,6.5-52.5,12.7-13.6,6.2-63.2,40.1-99.4,49.4-36.1,9.3-87.8,7.1-101.4,7.9-13.6.8-14.1,2-15,4.2-.8,2.3-7.1,29.4-11,55.9,0,.1,0,.3,0,.5-.2,1.1-.3,2.6-.5,4.5-1.2,12.4-2.7,41-.2,68.7.6,6.7,1.4,13.3,2.6,19.7,0,0,2.3,0,5.7.2v-.2c1.2-5.4,3.7-12.6,8.1-20.4,11.3-20,35-44.3,82.2-54.9,65.5-14.7,103.3-28.8,131-40.1,21.2-8.6,43.8-24.4,55.2-32.9,3.5-2.6,6-4.6,7-5.5,3.3-2.8,4.5-4.1,9.8-2.4,0,0,20.7-22.2,26.9-27.8-1.3-1.4-3.9-4.2-7.3-7.7Z"/>
    <path id="j40_x5F_7" class="st8" d="M568.9,503.2c-36-6.6-94.8-14.9-115.7-16.8-27.7-2.5-116.5-8.2-144.1-7.6-21.8.4-43.5,5.9-75,29.3,4.3,0,7.8,0,10.1,0,16.9-.2,90.9,1.8,111.4,2.2,20.5.4,84.5,5.4,101.3,6,15.6.6,64.4,5.7,82.2,7.4,1.3.1,2.4.2,3.4.3.2,0,.5,0,.7,0,6.8-5.4,16.4-13.1,22.4-18.3,1.1-.9,2.2-1.8,3.3-2.7Z"/>
    <path id="j40_x5F_6" class="st4" d="M454.3,473.5c-27.9-2.5-117.6-8.2-145.6-7.6-27.3.6-54,8-95.4,42h0s0,0,.1,0c1.9,0,3.8,0,5.6,0,0,0,0,0,0,0,1.8,0,3.6,0,5.3,0,0,0,0,0,0,0,.8,0,1.6,0,2.4,0,0,0,0,0,0,0,.8,0,1.6,0,2.4,0,0,0,.1,0,.2,0,.7,0,1.4,0,2,0,0,0,.2,0,.2,0,.7,0,1.4,0,2.1,0,31.5-23.4,53.2-28.9,75-29.3,27.6-.6,116.4,5.1,144.1,7.6,20.9,1.9,79.7,10.1,115.7,16.8,5-3.7,10.8-6.9,17.3-9.8-33.1-7.1-106.9-17.6-131.8-19.9Z"/>
    <path id="j40_x5F_5" class="st3" d="M552.6,399.5c-46.3-13.3-123.1-42.6-133.8-47.4-2.5-1.1-4.4-1.9-6-2.4-5.3-1.7-6.6-.4-9.8,2.4-1,.9-3.5,2.8-7,5.5-11.4,8.6-34,24.3-55.2,32.9-27.7,11.3-65.5,25.4-131,40.1-47.1,10.6-70.9,34.9-82.2,54.9-4.4,7.8-6.9,15-8.2,20.4v.2c5.7.2,14.3.4,20.7.4s.4,0,.7,0c0,0,.1,0,.2,0,.2,0,.4,0,.6,0,0,0,.2,0,.2,0,0,0,.2,0,.3,0,.2,0,.4,0,.7,0,0,0,0,0,.1,0,.3,0,.6,0,1,0,.1,0,.2,0,.4,0,.3,0,.7,0,1,0,0,0,.1,0,.2,0,.5,0,.9,0,1.4,0,0,0,.2,0,.2,0,.4,0,.9,0,1.3,0,.1,0,.3,0,.4,0,.4,0,.8,0,1.2,0,.1,0,.3,0,.4,0,.5,0,1.1,0,1.6,0,.2,0,.5,0,.7,0,.3,0,.6,0,.9,0,.4,0,.7,0,1.1,0,.3,0,.6,0,.8,0,.3,0,.6,0,.9,0,.6,0,1.1,0,1.7,0,.4,0,.9,0,1.3,0,.2,0,.5,0,.7,0,.4,0,.8,0,1.1,0,.4,0,.7,0,1.1,0,5.9.1,12.4.3,19.2.4.2,0,.4,0,.7,0,2.7,0,5.4.1,8.1.2,0,0,.1,0,.2,0,1.9,0,3.8,0,5.6.1,0,0,0,0,0,0,5.7.1,11.4.2,16.7.3,0,0,0,0,0,0,41.4-34,68.1-41.4,95.4-42,28-.6,117.7,5.1,145.6,7.6,24.9,2.2,98.7,12.8,131.8,19.9,6.3-2.9,13.3-5.5,20.7-8.3,8.2-3.1,27.6-10,47-16.7,19.8-6.9,39.6-13.6,47.5-16-11-5.9-102.5-39.5-148.8-52.8Z"/>
    <path id="j40_x5F_4" class="st2" d="M108.5,513.9c2.4-3.9,4.6-7.1,5.4-8-1.1-6.3-2-13-2.6-19.7-2.5-27.7-1-56.3.2-68.7.2-1.9.4-3.4.5-4.5,0-.2,0-.3,0-.5-2.3-.6-4.8-.8-7.1,5.1-2.3,5.9-18.6,50.5-19.2,82.7s4.2,51.4,14.5,69.9c-4.1-14.8-2.7-33.1-.5-39.8,1.5-4.5,5.3-11.2,8.6-16.5Z"/>
    <path id="j40_x5F_3" class="st5" d="M718.8,548.1h0-.1c-2.4-.4-4.8-.7-7.2-1-1.3-.2-2.6-.4-3.9-.5-1.2-.2-2.4-.3-3.6-.5-.5,0-1-.1-1.4-.2-.3,0-.6,0-.9-.1-.4,0-.7-.1-1.1-.2-1.4-.2-2.7-.4-4.1-.6-.4,0-.8-.1-1.1-.2-.5,0-1-.1-1.5-.2-.7-.1-1.5-.2-2.2-.3-3.1-.4-6.2-.9-9.2-1.3-.8-.1-1.7-.2-2.5-.3-1.5-.2-3-.4-4.5-.6-1.6-.2-3.2-.4-4.7-.7-1-.1-2-.3-3-.4-.4,0-.8-.1-1.2-.2-2.2-.3-4.4-.6-6.5-.9-.6,0-1.1-.2-1.7-.2-1.8-.2-3.6-.5-5.3-.7-.2,0-.5,0-.7,0-.5,0-1-.1-1.5-.2-.2,0-.4,0-.6,0-1.2-.2-2.3-.3-3.4-.5-1-.1-2.1-.3-3.1-.4-.6,0-1.1-.2-1.7-.2-.1,0-.2,0-.4,0-.2,0-.4,0-.6,0-1.1-.2-2.3-.3-3.4-.5-.4,0-.9-.1-1.3-.2-.3,0-.6,0-.8-.1-.1,0-.2,0-.4,0-.5,0-1.1-.1-1.6-.2,0,0,0,0,0,0-2.1-.3-4.1-.6-6-.8-1-.1-2-.3-2.9-.4-.2,0-.5,0-.7,0-.4,0-.7,0-1.1-.1-.1,0-.3,0-.4,0-.4,0-.8-.1-1.2-.2-.2,0-.4,0-.6,0-.3,0-.7,0-1-.1-.4,0-.9-.1-1.3-.2,0,0,0,0,0,0-.4,0-.8-.1-1.2-.2-.2,0-.3,0-.5,0-.2,0-.5,0-.7-.1-.3,0-.5,0-.8-.1-.3,0-.5,0-.8-.1-.2,0-.4,0-.5,0-.3,0-.6,0-.9-.1-.2,0-.4,0-.7,0-.2,0-.3,0-.5,0-.3,0-.7,0-1-.1,0,0-.2,0-.3,0-.3,0-.6,0-1-.1-.1,0-.3,0-.4,0-.3,0-.5,0-.8-.1-.2,0-.3,0-.5,0-.3,0-.5,0-.8-.1-.1,0-.3,0-.4,0-.3,0-.5,0-.8-.1-.1,0-.2,0-.4,0-.2,0-.4,0-.7,0-.1,0-.3,0-.4,0-.2,0-.4,0-.6,0-.1,0-.3,0-.4,0-.2,0-.3,0-.5,0-.2,0-.3,0-.5,0-.2,0-.3,0-.5,0-.1,0-.3,0-.4,0-.1,0-.2,0-.3,0-.2,0-.4,0-.5,0,0,0-.2,0-.2,0-.2,0-.4,0-.5,0-.1,0-.2,0-.3,0-.1,0-.3,0-.4,0-.2,0-.5,0-.7-.1-6.1-.8-41-5.7-55.3-7-.2,0-.5,0-.7,0-.2,0-.5,0-.7,0,0,0,0,0,0,0-.2,0-.5,0-.7,0,0,0-.1,0-.2,0-.2,0-.5,0-.7,0,0,0,0,0,0,0-.3,0-.6,0-.9,0,0,0,0,0,0,0-17.8-1.7-66.6-6.8-82.2-7.4-16.8-.7-80.8-5.6-101.3-6-20.5-.4-94.5-2.4-111.4-2.2-2.3,0-5.8,0-10.1,0-.7,0-1.4,0-2.1,0,0,0-.2,0-.2,0-.7,0-1.3,0-2,0,0,0-.1,0-.2,0-.8,0-1.6,0-2.4,0,0,0,0,0,0,0-.8,0-1.6,0-2.4,0,0,0,0,0,0,0-1.7,0-3.5,0-5.3,0,0,0,0,0,0,0-1.8,0-3.7,0-5.6,0,0,0,0,0-.1,0h0s0,0,0,0c-2.7,0-5.4-.1-8.1-.2-2.8,0-5.7-.1-8.6-.2,0,0,0,0,0,0-1.9,0-3.8,0-5.6-.1,0,0-.1,0-.2,0-2.7,0-5.5-.1-8.1-.2-.2,0-.4,0-.7,0-4,0-8-.2-11.8-.2-2.6,0-5.1-.1-7.5-.2-.4,0-.7,0-1.1,0-.4,0-.8,0-1.1,0-.2,0-.5,0-.7,0-.4,0-.9,0-1.3,0-.6,0-1.1,0-1.7,0-.3,0-.6,0-.9,0-.3,0-.6,0-.8,0-.4,0-.7,0-1.1,0-.3,0-.6,0-.9,0-.2,0-.5,0-.7,0-.6,0-1.1,0-1.6,0-.2,0-.3,0-.4,0-.4,0-.8,0-1.2,0-.1,0-.3,0-.4,0-.5,0-.9,0-1.3,0,0,0-.2,0-.2,0-.5,0-1,0-1.4,0,0,0-.1,0-.2,0-.4,0-.7,0-1,0-.1,0-.2,0-.4,0-.3,0-.7,0-1,0,0,0,0,0-.1,0-.3,0-.7,0-1,0,0,0-.2,0-.2,0-.2,0-.4,0-.6,0,0,0-.1,0-.2,0-.2,0-.5,0-.7,0-6.4,0-15-.2-20.6-.4-3.4-.1-5.7-.2-5.7-.2,0,.1-.2.3-.3.4,0,0,0,0,0,0-.1.2-.3.4-.4.6,0,0,0,0,0,.1-.1.2-.3.4-.4.6-.4.6-.9,1.4-1.5,2.2,0,0,0,0,0,0-.8,1.2-1.6,2.5-2.6,4,0,0,0,0,0,0-3.3,5.3-7.2,12.1-8.6,16.5-2.2,6.7-3.6,25,.5,39.8,50.1,6.1,103.5,2.4,139.6,1.7,34.8-.7,138.2,0,169.9,0,0,0,0,0,0,0,.7,0,1.8,0,3.3,0,0,0,0,0,0,0,15.9.1,75.2,1.6,100.3,3.8,27.5,2.4,109.3,10.4,125.6,11.7,16.4,1.3,104.2,8,109.3,8.6s10.3,1,21.5-1.8c11.2-2.8,59.6-15.5,74.8-21.9,3-1.3,6.2-2.7,9.5-4.4-15.2-3-76.4-11.7-135.5-19.9Z"/>
    <path id="j40_x5F_2" class="st6" d="M280.4,613.3c2.1-.1,6.2-.3,6.2-.3,7.3-2.4,121.8-40.5,123.4-41.1-31.7,0-135.1-.7-169.9,0-36.1.7-89.6,4.4-139.6-1.7.6,2.2,1.3,4.3,2.1,6.2,4,9.4,10.2,18,19.9,25.4,31.2,10,61.7,11.2,79.2,11.4,17.5.3,61.8.3,78.8,0Z"/>
    <path id="j40_x5F_1" class="st7" d="M241.2,623.2c15.7,0,36.8.5,36.8.5-1.2-.2-1.7-.9,0-2.8s2.4-5.5,2.4-7.6c-16.9.3-61.3.3-78.8,0-17.5-.3-47.9-1.4-79.2-11.4,6.3,4.8,14.2,9,23.9,12.5,24.8,8.9,79.2,8.9,94.9,8.8Z"/>
  </g>
</svg>