<?xml version="1.0" encoding="utf-8"?>
<!-- Generator: Adobe Illustrator 24.3.0, SVG Export Plug-In . SVG Version: 6.00 Build 0)  -->
<svg version="1.1" id="shapes" xmlns="http://www.w3.org/2000/svg" xmlns:xlink="http://www.w3.org/1999/xlink" x="0px" y="0px"
	viewBox="0 0 960 677.7" style="enable-background:new 0 0 960 677.7;" xml:space="preserve">
<style type="text/css">
	.st0{fill:#414042;}
	.st1{fill:#E6E7E8;}
	.st2{fill:#E31E26;}
	.st3{fill:#333333;}
	.st4{fill:#E6E6E6;}
	.st5{fill:#58595B;}
</style>
<linearGradient id="gradientWhite" gradientUnits="userSpaceOnUse" x1="416.3529" y1="333.1227" x2="889.751" y2="333.1227">
	<stop  offset="0" stop-color='var(--color-stop-1)'/>
	<stop  offset="0.4771" stop-color='var(--color-stop-2)'/>
	<stop  offset="0.7609" stop-color='var(--color-stop-3)'/>
	<stop  offset="0.9938" stop-color='var(--color-stop-4)'/>
	<stop  offset="1" stop-color='var(--color-stop-5)'/>
</linearGradient>
<linearGradient id="gradientCosmos" gradientUnits="userSpaceOnUse" x1="53.6022" y1="378.1213" x2="778.9922" y2="378.1213">
	<stop  offset="0" stop-color='var(--color-stop-1)'/>
	<stop  offset="2.517426e-02" stop-color='var(--color-stop-2)'/>
	<stop  offset="9.492975e-02" stop-color='var(--color-stop-3)'/>
	<stop  offset="0.1702" stop-color='var(--color-stop-4)'/>
	<stop  offset="0.2494" stop-color='var(--color-stop-5)'/>
	<stop  offset="0.3334" stop-color='var(--color-stop-6)'/>
	<stop  offset="0.4238" stop-color='var(--color-stop-7)'/>
	<stop  offset="0.5228" stop-color='var(--color-stop-8)'/>
	<stop  offset="0.6348" stop-color='var(--color-stop-9)'/>
	<stop  offset="0.7712" stop-color='var(--color-stop-10)'/>
	<stop  offset="1" stop-color='var(--color-stop-11)'/>
</linearGradient>
<linearGradient id="gradient_j31" gradientUnits="userSpaceOnUse" x1="46.0264" y1="518.4004" x2="901.6735" y2="518.4004">
	<stop  offset="0" style="stop-color:#E31E26"/>
	<stop  offset="1.183186e-02" style="stop-color:#CB412F"/>
	<stop  offset="3.120002e-02" style="stop-color:#A8543E"/>
	<stop  offset="5.149256e-02" style="stop-color:#895646"/>
	<stop  offset="7.230078e-02" style="stop-color:#705248"/>
	<stop  offset="9.375572e-02" style="stop-color:#594843"/>
	<stop  offset="0.1161" style="stop-color:#443B39"/>
	<stop  offset="0.1396" style="stop-color:#292626"/>
	<stop  offset="0.1652" style="stop-color:#0D0D0D"/>
	<stop  offset="0.1966" style="stop-color:#000000"/>
	<stop  offset="0.5182" style="stop-color:#000000"/>
	<stop  offset="0.5396" style="stop-color:#302C2B"/>
	<stop  offset="0.6397" style="stop-color:#725248"/>
	<stop  offset="0.734" style="stop-color:#995643"/>
	<stop  offset="0.8198" style="stop-color:#B94E37"/>
	<stop  offset="0.8955" style="stop-color:#CF3C2C"/>
	<stop  offset="0.9581" style="stop-color:#DD2927"/>
	<stop  offset="1" style="stop-color:#E31E26"/>
</linearGradient>
<linearGradient id="gradientRedBlack" gradientUnits="userSpaceOnUse" x1="46.0264" y1="518.4004" x2="901.6735" y2="518.4004">
	<stop  offset="0" stop-color='var(--color-stop-1)'/>
	<stop  offset="2.098488e-02" stop-color='var(--color-stop-2)'/>
	<stop  offset="5.279306e-02" stop-color='var(--color-stop-3)'/>
	<stop  offset="9.148535e-02" stop-color='var(--color-stop-4)'/>
	<stop  offset="0.1356" stop-color='var(--color-stop-5)'/>
	<stop  offset="0.1835" stop-color='var(--color-stop-6)'/>
	<stop  offset="0.2166" stop-color='var(--color-stop-7)'/>
	<stop  offset="0.5182" stop-color='var(--color-stop-8)'/>
	<stop  offset="0.598" stop-color='var(--color-stop-9)'/>
	<stop  offset="0.7021" stop-color='var(--color-stop-10)'/>
	<stop  offset="0.7982" stop-color='var(--color-stop-11)'/>
	<stop  offset="0.8829" stop-color='var(--color-stop-12)'/>
	<stop  offset="0.9531" stop-color='var(--color-stop-13)'/>
	<stop  offset="1" stop-color='var(--color-stop-14)'/>
</linearGradient>
<linearGradient id="gradientRedBlue" gradientUnits="userSpaceOnUse" x1="412.9338" y1="613.2917" x2="412.9338" y2="447.3221">
	<stop  offset="0" stop-color='var(--color-stop-1)'/>
	<stop  offset="0.1146" stop-color='var(--color-stop-2)'/>
	<stop  offset="0.2383" stop-color='var(--color-stop-3)'/>
	<stop  offset="0.3645" stop-color='var(--color-stop-4)'/>
	<stop  offset="0.4909" stop-color='var(--color-stop-5)'/>
	<stop  offset="0.6173" stop-color='var(--color-stop-6)'/>
	<stop  offset="0.744" stop-color='var(--color-stop-7)'/>
	<stop  offset="0.8713" stop-color='var(--color-stop-8)'/>
	<stop  offset="1" stop-color='var(--color-stop-9)'/>
</linearGradient>
<linearGradient id="gradientPurple" gradientUnits="userSpaceOnUse" x1="476.7988" y1="543.0278" x2="903.3895" y2="543.0278">
	<stop  offset="1.079999e-05" stop-color='var(--color-stop-1)'/>
	<stop  offset="0.5" stop-color='var(--color-stop-2)'/>
	<stop  offset="1" stop-color='var(--color-stop-3)'/>
</linearGradient>
<g id="jordan0">
	<path id="j0_x5F_12" class="st0" d="M806.3,593.8h-21.8c-3.7,0-5.5-1.8-5.5-5.5v-158c0-3.7,1.8-5.5,5.5-5.5h19.7
		c3.7,0,6.1,1.2,7.4,3.7l53.1,99.6h1.1v-97.8c0-3.7,1.8-5.5,5.5-5.5H893c3.7,0,5.5,1.8,5.5,5.5v158c0,3.7-1.8,5.5-5.5,5.5h-19.2
		c-3.9,0-6.7-1.7-8.4-5.3l-52.6-97.8h-1.1v97.5C811.8,592,810,593.8,806.3,593.8z"/>
	<path id="j0_x5F_11" class="st1" d="M650.2,593.8h-25.2c-3.2,0-4.2-1.8-3.2-5.5l41.5-158c1.2-3.7,3.9-5.5,7.9-5.5h35
		c4.4,0,7,1.8,7.9,5.5l41.5,158c1.1,3.7,0,5.5-3.2,5.5h-25.2c-1.9,0-3.2-0.4-3.9-1.2c-0.7-0.8-1.2-2.2-1.6-4.3l-7.4-28.9h-51.2
		l-7.4,28.9c-0.4,2.1-0.9,3.5-1.7,4.3C653.2,593.4,651.9,593.8,650.2,593.8z M688.3,456.6l-18.9,76h38.9l-18.9-76H688.3z"/>
	<path id="j0_x5F_10" class="st2" d="M487.2,588.3v-158c0-3.7,1.8-5.5,5.5-5.5h64.9c13.7,0,24.3,3.7,31.9,11.2
		c7.6,7.4,11.4,18,11.4,31.7V551c0,13.7-3.8,24.2-11.4,31.7c-7.6,7.4-18.3,11.2-31.9,11.2h-64.9C489.1,593.8,487.2,592,487.2,588.3z
		 M523.5,564.9h28.6c5.6,0,9.6-1.2,12-3.5c2.4-2.4,3.5-6.3,3.5-12v-80.2c0-5.6-1.2-9.6-3.5-12c-2.4-2.4-6.4-3.5-12-3.5h-28.6
		c-1.9,0-2.9,1-2.9,2.9V562C520.6,563.9,521.6,564.9,523.5,564.9z"/>
	<path id="j0_x5F_9" class="st3" d="M459.9,587.5l-28.1-58.6v-1.1c15.6-6.5,23.4-19.6,23.4-39.4v-20.5c0-13.7-3.9-24.3-11.6-31.8
		c-7.7-7.5-18.4-11.3-32.1-11.3H349c-3.7,0-5.5,1.8-5.5,5.5v128.7c0.3-0.4,1.6-1.7,2.5-1.9c0.9-0.3,2.4-0.3,2.3,0.1
		c-0.1,0.4-1,0.8-1.6,1c-0.6,0.3-1.5,0.9-2.1,1.6c-0.4,0.6-0.8,1.3-1.2,1.7v1.2c0.4,0,1.2,0,1.6,0c0.6,0,1.8,0.2,2.7,0.2
		c0.8,0,4.6-0.2,5-0.2c0.4,0,1.7-0.7,2.2-1c0.5-0.4,3.3-2.2,4.1-2.2c0.9,0,3,1.2,3.3,1.6c0.3,0.4-0.3,1-1.6,2.4
		c-1.3,1.4-5.9,6-7.8,7.2c-1.9,1.3-3.3,2.2-5.7,3.8c-1.5,1-2.7,2.1-3.8,3v10.7c0,3.7,1.8,5.5,5.5,5.5h22.3c3.7,0,5.5-1.8,5.5-5.5
		v-53.9c0-1.9,1.1-2.9,3.2-2.9h17.6l26.3,56.8c0.9,2.3,2,3.8,3.4,4.5c1.4,0.7,3.7,1.1,6.8,1.1h21.3
		C460,593.8,461.5,591.7,459.9,587.5z M421.8,489.7c0,5.3-1.3,9.1-3.9,11.4c-2.6,2.4-6.7,3.5-12.4,3.5h-25.8c-1.9,0-2.9-1-2.9-2.9
		v-45.2c0-1.9,1-2.9,2.9-2.9h25.8c5.6,0,9.7,1.2,12.4,3.7c2.6,2.5,3.9,6.4,3.9,11.8V489.7z"/>
	<path id="j0_x5F_8" class="st2" d="M362.5,561.1c-0.3-0.4-2.4-1.6-3.3-1.6c-0.8,0-3.6,1.8-4.1,2.2c-0.5,0.3-1.8,1-2.2,1
		c-0.4,0-4.2,0.2-5,0.2c-0.9,0-2.1-0.2-2.7-0.2c-0.5,0-1.2,0-1.6,0v-1.2c0.3-0.5,0.8-1.2,1.2-1.7c0.6-0.7,1.5-1.3,2.1-1.6
		c0.6-0.3,1.5-0.7,1.6-1c0.1-0.4-1.4-0.4-2.3-0.1c-0.9,0.3-2.2,1.6-2.5,1.9c0,0,0,0,0,0c-0.3,0.3-0.7,0.4-0.9,0.3
		c-0.3,0-0.9,0.5-1.1,0.7c-0.2,0.2-0.8,0.6-1.4,0.6c-0.6,0-1.3-0.6-1.6-0.9c-0.3-0.2-0.9-0.4-1.3-0.4c-0.4,0.1-1.1-0.2-1.6-0.6
		c-0.5-0.4-0.6-0.8-0.5-1.1c0.1-0.2,0.4-0.9,0.5-1.1c0.1-0.3-0.3-0.4-0.6-0.6c-0.3-0.2-3.3-2-5.5-4.1c-1.9-1.7-5.4-4.2-7-5.5
		c-1.1-0.9-6.4-5.1-10.5-7.9c-0.5-0.4-1.1-0.7-1.6-1c-4.1-2.6-7.9-5.3-9.4-5.5c-1.5-0.3-1.9-0.4-2.2-0.9c-0.4-0.5-6.3-5.9-9.6-7.8
		c-3.3-1.9-10.1-5.1-10.4-5.4c0.6-1.1,0.7-2.3,0.5-3.4c-0.1-0.3-0.3-0.6-0.6-0.9c-0.8-0.9-2.2-2-2.9-2.4c-0.9-0.6-1.5-0.8-1.5-0.8
		s-1.5-3.3-1.6-3.8c0.4-1.7,1.6-7.3,1.3-14.7c-0.2-7.4-0.8-8.5-1.6-10.1c-0.8-1.6-2-3.1-2.8-6.6c-0.9-3.5-1.1-6.6-0.7-7.9
		c0.4-1.4,1.6-3.8,2.3-6.6c0.7-2.8,0.3-4.9,0.4-5.8c0,0,0,0,0,0c0.1-0.9,0.8-1.8,0.9-4.3c0.2-2.5,1-2.6,1.7-6.1c0.6-3.5,1-5.7,1-5.7
		s1.2-0.2,1.4-1.3c0.2-1,0.3-1.9,0.6-3.5c0.3-1.7,0.3-3.6,0.4-3.9c0-0.4-0.3-1-0.3-1s0.1-1.9,0.3-3.9c0.1-1.8,0.3-3.7,0.3-4.5
		c0.1-1.6,0.7-2.9,0.7-3.5c0-0.7,0-1.2-0.7-2.4c0.1-0.4,0.3-0.6,0.5-0.8c0.1,0,0.2,0,0.3,0c6,0,10.9-4.8,10.9-10.8
		c0-6-4.9-10.9-10.9-10.9c-6,0-10.8,4.9-10.8,10.9c0,1.8,0.4,3.5,1.2,5c0.2,0.6,0.4,1.4,0.6,1.6c0.3,0.5,0.7,0.9,0.8,1.4
		c0.2,0.5,0.9,1.7,1.1,2.2c0.3,0.4,0.7,1.4,0.7,1.8c0,0.4,0.3,1.1,0.5,1.6c0.2,0.5,0.1,1.5-0.1,2.6c-0.1,0.7-0.6,3.2-1.1,5.3
		c-0.3,1.2-0.5,2.3-0.7,2.7c-0.8,0.4-1,1-1.1,1.6c-0.1,0.5-0.7,2.9-1,3.8c-0.4,0.9-0.5,2.5-0.6,3c0,0.5-0.1,1.6-0.4,1.8
		c-0.4,0.6-0.7,1.5-1,2c-0.3,0.5-0.6,2.3-0.5,3.1c0.1,0.8,0,2.4-0.4,2.9c-0.5,1.1-0.6,2.5-0.9,3.1c-0.3,0.6-1.2,4.1-1.3,4.8
		c0,0.1,0,0.1-0.1,0.2c-0.3,0.7-1.5,1.7-2.1,2.2c-0.6,0.6-1.7,2.3-2,2.8c-0.1-1-0.3-1-0.5-1.3c-0.2-0.3-0.8-0.5-1-0.6
		c-0.1-0.1,0.2-0.5,0.3-1c0-0.4,0-0.9-1.1-1.3c-1-0.3-1.3-0.4-1.7-0.7c0,0,0,0-0.1-0.1c-0.3-0.3-1.4-0.7-1.8-1.2
		c-1-1.1-2.6-2.6-5.8-2.7c0,0-2.3,0-4.1,1.2c-0.9,0.6-2.2,1.6-3.3,3c-0.9,1.2-1.6,2.7-1.9,4.7c-0.6,4.4,3.4,7.3,3.7,7.6
		c0.3,0.3,1.3,0.9,0.6,1.7c-0.3,0.3-0.4,0.8-0.4,1.1c0,0.3-0.6,1-1.2,1.5c-0.5,0.5-1.6,1.7-1.6,1.7s-2.7,0.1-4.4,2.4
		c-0.7,0.9-1,2-1.5,2.8c-0.5,0.7-2.2,3.7-2.6,4.6c-0.4,0.8-0.8,1.9-1.9,3c-0.1,0.1-0.2,0.2-0.3,0.3c-0.5,0.8-1.6,1.6-2.5,5.2
		c0,0-3.7,4.6-5,6.8c-1.3,2.2-3.4,5.9-3.5,6.4c-0.2,0.5-1.2,2.4-1.5,3.1c-0.3,0.7-0.4,1.4-0.7,1.8c-0.3,0.3-1.5,2.1-2.5,3
		c-1,0.9-1.3,1.4-1.6,1.8c-0.3,0.4-0.7,1-2.5,1.9c-1.7,0.8-2.7,1.7-5.3,2c-2.6,0.3-4,0-4.2,1c-0.2,1,4.3,1.1,5.8,0.9
		c2-0.2,3.2-1.3,3.4-1c0.2,0.3-0.6,1.6-2.3,2.1c-1.7,0.5-1.4,1-1.4,1.3c0,0.3,1,0.6,2.6,0.2c1.6-0.4,4.3-1.8,4.6-1.5
		c0.2,0.3-0.7,1.4-0.9,1.9c-0.3,0.5,0.1,1,0.6,1c0.4,0,1.5-0.1,2.4-1.7c0.8-1.6,2-2.4,2.3-2.4c0.4,0,1.8,1.6,2.8,2
		c1,0.4,3.2,0.4,3.4-0.7c0.3-1.1-1.3-1.1-1.7-1.1s-1.3-0.9-1.3-1.3c0-0.5,0.3-2,0.1-2.6c-0.2-0.6,0.3-3,0.9-4.5
		c0.6-1.5,2.7-5.1,4.1-6c0.8-0.5,2.6-1.7,4.3-3.3c1.5-1.4,3-3,3.7-4.5c1.6-3.2,2.2-4.9,2.7-5.1c0.5-0.2,1.3-0.3,2.1-1.3
		c0.7-1,0.9-1.7,1.5-1.7c0.6,0,0.5-0.2,2.1,2.1c1.6,2.4,2.2,2.8,2.4,3.2c0.2,0.3-0.3,0.9,0.2,1.9c0.6,1.3,1.6,1.6,1.6,2.2
		c0,0.7,0.2,1.9,0.5,2.8c0.3,0.8,1,2.2,0.6,2.8c-0.5,0.8-1.6,2.2-1.9,2.6c-1.4,0.2-3.4,0.8-3.8,3.8c-0.3,2.8,0.1,5.4,0,6.1
		c-0.1,0.6-2,2.4-2.7,2.7c-0.7,0.3-2.4,0.5-2.9,1.4c-0.6,0.8-0.7,1.6-1.8,2.2c-0.5,0.3-2.2,1.7-4.4,3.8c-2.5,2.5-5.7,5.9-8.2,9.6
		c-0.2,0.2-0.6,0.4-1.1,0.6c-2,0.3-2.8,1-3.2,1.2c-0.3,0.2-1.2,1-2.1,2c-0.3,0.5-0.8,0.7-0.9,0.8c-1.8,0.7-8.3,4-12.1,6.7
		c-1.6,1.1-3.7,2.7-5.8,4.5c-3.1,2.7-6.3,5.6-7.8,7.5c-1.6,1.9-1.8,1.9-2.2,2.1c-0.4,0.2-0.2,1.1-0.1,1.6c0,0-0.8,1-1.3,1.1
		c-0.4,0.1-0.9-0.9-1.5-0.9c-0.7,0-1.3,1.3-1.5,1.6c-0.2,0.3-0.5,1-0.9,1c-0.4,0.1-1.2-0.5-1.3-1.6c-0.1-1.2-0.8-2.3-1.1-2.4
		c-0.6,0-0.9,0.9-0.9,1.3c0,0.3,0.3,1.2,0.7,1.6c0.3,0.4,0.1,0.9,0.1,1.3c0,0.4,0.5,0.8,0.5,0.9c0,0.1,0.2,1.2-0.2,1.1
		c-0.3-0.1-1.2,0-1.7,0.3c-0.6,0.4-0.9,0.8-0.9,1.2c0,0.3,0.3,1-0.9,1.3c-1.4,0.5-2.5,0.6-3.1,0.9c-0.7,0.3-2.4,1.2-3,1.3
		c-0.7,0.1-1.1,0-1.6,0.1c-0.6,0-1.1,0.3-1.7,0.3c-0.6,0-2.2,0.9-3.1,1.3c-0.9,0.5-1.9,2-1.3,3.5c0.7,1.4,2.6,3.3,3.2,3.9
		c0.6,0.6,1.5,1.2,3.5,1.5c1.9,0.2,3.1-0.5,4.1-1.1c1-0.6,3.1-1,4-0.8c0.9,0.2,2.6,0.8,4-0.2c1.8-1.3,1.3-2,1.8-2.4
		c0.5,0,0.6-0.2,1.1-1c0.4-0.7,0.9-1.3,1.7-1.5c0.8-0.1,1.5-1,1.9-2c0.5-1,1.4-2,1.9-2.2c0.4-0.2,0.7-0.6,0.9-1
		c0.2-0.4,1-0.7,1.6-1.1c0.5-0.4,0.9-0.6,1.2-0.5c0.2,0.2,0.7-0.2,1.2-0.6c1.2-0.6,1.8-1.6,2.1-1.3c0.4,0.3,1.7,0.6,2.2,0.1
		c0.1-0.1,0.3-0.3,0.6-0.5c1.8-1.5,7.1-5.8,9.2-7.4c1.6-1.1,2.9-1.6,6.1-3.5c2.6-1.5,6.7-4.2,7.6-4.8c0.9-0.6,5-3.8,5.5-4.1
		c0.7-0.5,1.4-0.8,2.8-1.4c0.9-0.4,2-0.9,3.6-1.7c3.1-1.6,9.5-4.8,15-8.3c2.8-1.7,7.6-4.1,8.3-4.2c0.6-0.1,2.3,1.2,4.1,1.9
		c2.2,0.8,3.6,1,6.7,2c2.5,0.8,8.4,3.3,11.6,4.6c0.8,0.3,1.5,0.6,1.9,0.8c2,0.8,4.8,1.8,8.4,2c1.9,0.4,2.9,0.7,3.6,0.8
		c0.6,0.1,1.2,0.1,1.8,0.4c0.6,0.3,2.6,1.6,3.8,2.1c1.2,0.6,5.3,3.4,6.4,4.2c1.1,0.8,6.1,4.7,7.3,5.4c0,0,0,0,0,0
		c1.2,0.7,2.3,1.6,3.1,1.7c0.8,0.1,1.9,0.7,3,1.6c1.2,0.9,3.8,2.7,4.5,3.3c0.8,0.6,1.8,1.6,3.3,1.6c1.5,0.1,2.2,0.4,3.1,1.3
		c1,0.9,2.3,2.8,3,3.1c0.7,0.4,1.4,1,1.7,1.6c0.3,0.6,2,2.8,2.7,3.2c0.7,0.5,1,0.9,1.2,1.6c0.2,0.7,1.2,2.7,1.7,3.5
		c0.5,0.8,0.7,1.6,2.2,0.6c0.7-0.5,1.4-1.1,2.1-1.7c1.1-1,2.3-2.1,3.8-3c2.5-1.6,3.8-2.5,5.7-3.8c1.9-1.3,6.5-5.8,7.8-7.2
		C362.2,562,362.7,561.4,362.5,561.1z"/>
	<path id="j0_x5F_7" class="st4" d="M304.4,550.6c-1.1-0.8-5.3-3.6-6.4-4.2c-1.2-0.6-3.2-1.9-3.8-2.1c-0.6-0.3-1.2-0.3-1.8-0.4
		c-0.7-0.1-1.6-0.4-3.6-0.8c-3.5-0.2-6.4-1.2-8.4-2c-0.4-0.2-1.1-0.4-1.9-0.8v9c0,5.6-1.2,9.6-3.5,12s-6.4,3.5-12,3.5h-18.7
		c-5.6,0-9.6-1.2-11.8-3.5c-2.3-2.4-3.4-6.3-3.4-12v-3.3c-1.4,0.6-2.1,0.8-2.8,1.4c-0.5,0.3-4.6,3.5-5.5,4.1
		c-0.9,0.6-4.9,3.3-7.6,4.8c-3.2,1.9-4.5,2.3-6.1,3.5c-2.1,1.6-7.4,5.8-9.2,7.4c1.9,6.2,4.9,11.4,9.2,15.6c7.5,7.4,18.2,11,32.1,11
		h29.4c13.8,0,24.5-3.7,32.1-11c6.6-6.4,10.3-15.3,11.1-26.7c0,0,0,0,0,0C310.6,555.3,305.5,551.4,304.4,550.6z"/>
	<path id="j0_x5F_6" class="st4" d="M277.5,430.3c-0.1,0.3-0.2,2.2-0.4,3.9c-0.3,1.6-0.3,2.5-0.6,3.5c-0.3,1-1.4,1.3-1.4,1.3
		s-0.3,2.1-1,5.7c-0.7,3.5-1.6,3.7-1.7,6.1c-0.1,2.4-0.8,3.4-0.9,4.3c1.4,0.6,2.6,1.3,3.5,2.2c2.4,2.4,3.5,6.4,3.5,12v44.5
		c0.3,0.3,0.5,0.7,0.6,0.9c0.3,1.1,0.1,2.3-0.5,3.4c0.3,0.3,7.1,3.5,10.4,5.4c3.4,1.9,9.2,7.3,9.6,7.8c0.4,0.5,0.7,0.6,2.2,0.9
		c1.5,0.2,5.3,2.9,9.4,5.5c0.5,0.3,1,0.7,1.6,1v-70.9c0-13.8-3.8-24.4-11.3-31.8c-5.8-5.7-13.6-9.2-23.2-10.5
		c-0.1,2-0.3,3.9-0.3,3.9S277.6,429.9,277.5,430.3z"/>
	<path id="j0_x5F_5" class="st4" d="M213.7,540.3c0.1-0.2,0.6-0.3,0.9-0.8c0.9-0.9,1.7-1.8,2.1-2c0.3-0.2,1.1-0.8,3.2-1.2
		c0.5-0.1,1-0.3,1.1-0.6c2.5-3.7,5.6-7.1,8.2-9.6v-24.8c-1.7,1.6-3.5,2.8-4.3,3.3c-1.4,0.9-3.5,4.5-4.1,6c-0.6,1.5-1.1,3.9-0.9,4.5
		c0.1,0.6-0.2,2.2-0.1,2.6c0.1,0.5,1,1.3,1.3,1.3s1.9,0,1.7,1.1c-0.2,1.1-2.4,1.1-3.4,0.7c-1-0.3-2.5-2-2.8-2
		c-0.3,0-1.5,0.8-2.3,2.4c-0.9,1.6-1.9,1.7-2.4,1.7c-0.4,0-0.9-0.6-0.6-1c0.3-0.5,1.1-1.6,0.9-1.9c-0.3-0.3-3,1.1-4.6,1.5
		c-1.6,0.4-2.6,0.1-2.6-0.2c0-0.3-0.3-0.8,1.4-1.3c1.7-0.6,2.5-1.9,2.3-2.1c-0.3-0.2-1.4,0.8-3.4,1c-1.5,0.3-6,0.1-5.8-0.9
		c0.2-0.9,1.6-0.7,4.2-1c2.6-0.3,3.5-1.2,5.3-2c1.8-0.9,2.2-1.5,2.5-1.9c0.3-0.4,0.6-1,1.6-1.8c1-0.9,2.2-2.6,2.5-3
		c0.3-0.4,0.4-1,0.7-1.8c0.3-0.7,1.3-2.5,1.5-3.1c0.1-0.5,2.2-4.3,3.5-6.4c1.3-2.2,5-6.8,5-6.8c1-3.6,2-4.4,2.5-5.2
		c0.1-0.1,0.2-0.2,0.3-0.3v-15.7c0-5.6,1.1-9.6,3.4-12c1.7-1.7,4.2-2.8,7.7-3.3c1.1-1.5,2.4-2.4,3.3-3c1.8-1.2,4.1-1.2,4.1-1.2
		c3.2,0.1,4.8,1.6,5.8,2.7c0.3,0.5,1.4,0.8,1.8,1.2c0,0,0,0,0.1,0.1h7.8c0.1,0,0.1,0,0.2,0c0-0.1,0.1-0.1,0.1-0.2
		c0.1-0.7,1.1-4.1,1.3-4.8c0.3-0.7,0.4-2,0.9-3.1c0.4-0.5,0.5-2.1,0.4-2.9c-0.1-0.7,0.1-2.5,0.5-3.1c0.3-0.5,0.7-1.5,1-2
		c0.3-0.2,0.4-1.3,0.4-1.8c0-0.5,0.2-2.1,0.6-3c0.4-0.9,1-3.3,1-3.8c0.1-0.6,0.3-1.1,1.1-1.6c0.1-0.4,0.4-1.5,0.7-2.7
		c-0.9,0-1.8-0.1-2.7-0.1h-29.4c-13.8,0-24.5,3.7-32.1,11c-7.5,7.4-11.3,18-11.3,31.8V551c0,0.2,0,0.3,0,0.5
		c2.1-1.8,4.2-3.4,5.8-4.5C205.4,544.3,211.9,540.9,213.7,540.3z"/>
	<path id="j0_x5F_4" d="M137.9,424.8H160c3.7,0,5.5,1.8,5.5,5.3V551c0,13.7-3.8,24.2-11.3,31.7c-7.5,7.4-18.1,11.2-31.8,11.2H96.2
		c-13.8,0-24.5-3.7-32.1-11c-7.5-7.4-11.3-18-11.3-31.8v-24.7c0-3.7,1.8-5.5,5.5-5.5h22.3c3.7,0,5.5,1.8,5.5,5.5v23.1
		c0,5.6,1.2,9.6,3.5,12s6.3,3.5,11.7,3.5h15.5c5.6,0,9.5-1.2,11.8-3.5c2.3-2.4,3.4-6.3,3.4-12V430.3
		C132.2,426.6,134.1,424.8,137.9,424.8z"/>
	<path id="j0_x5F_3" d="M561.3,371.6H539c-3.7,0-5.5-1.8-5.5-5.5v-158c0-3.7,1.8-5.5,5.5-5.5h62.6c13.7,0,24.4,3.8,32.1,11.3
		c7.7,7.5,11.6,18.1,11.6,31.8v20.5c0,19.8-7.8,32.9-23.4,39.4v1.1l28.1,58.6c1.6,4.2,0.1,6.3-4.5,6.3h-21.3c-3.2,0-5.4-0.3-6.8-1.1
		c-1.4-0.7-2.5-2.2-3.4-4.5l-26.3-56.8H570c-2.1,0-3.2,1-3.2,2.9V366C566.9,369.7,565,371.6,561.3,371.6z M569.8,282.5h25.8
		c5.6,0,9.7-1.2,12.4-3.5c2.6-2.4,3.9-6.2,3.9-11.4V247c0-5.4-1.3-9.4-3.9-11.8c-2.6-2.5-6.7-3.7-12.4-3.7h-25.8
		c-1.9,0-2.9,1-2.9,2.9v45.2C566.9,281.5,567.8,282.5,569.8,282.5z"/>
	<path id="j0_x5F_2" class="st5" d="M498,208.1v158c0,3.7-1.8,5.5-5.5,5.5h-22.3c-3.7,0-5.5-1.8-5.5-5.5v-158c0-3.7,1.8-5.5,5.5-5.5
		h22.3C496.2,202.6,498,204.4,498,208.1z"/>
	<path id="j0_x5F_1" class="st2" d="M334.5,371.6h-25.2c-3.2,0-4.2-1.8-3.2-5.5l41.5-158c1.2-3.7,3.9-5.5,7.9-5.5h35
		c4.4,0,7,1.8,7.9,5.5l41.5,158c1.1,3.7,0,5.5-3.2,5.5h-25.2c-1.9,0-3.2-0.4-3.9-1.2c-0.7-0.8-1.2-2.2-1.6-4.3l-7.4-28.9h-51.2
		L340,366c-0.4,2.1-0.9,3.5-1.7,4.3S336.3,371.6,334.5,371.6z M372.6,234.4l-18.9,76h38.9l-18.9-76H372.6z"/>
</g>
</svg>
