<?xml version="1.0" encoding="utf-8"?>
<!-- Generator: Adobe Illustrator 22.1.0, SVG Export Plug-In . SVG Version: 6.00 Build 0)  -->
<svg version="1.1" xmlns="http://www.w3.org/2000/svg" xmlns:xlink="http://www.w3.org/1999/xlink" x="0px" y="0px"
	 viewBox="0 0 960 640" style="enable-background:new 0 0 960 640;" xml:space="preserve">
<g id="jordan4" class="st0">
	<g id="shapes_3_" class="st1">
		<path id="j4_x5F_23" class="st2" d="M319.5,285.2l44.2-16.6c-0.3-0.5-0.6-1-1-1.5l-7.3-8.5c-4.2-4.1-12.2-2.5-16.6,0.8l-85.8,63
			c-10.9,7-7.1,18,2.4,18.9l58.2,9.5c5.4,0.9,12.1-2.3,14.9-7l6.5-11.2l-25.4-24.4C298.4,296.9,309.5,288.7,319.5,285.2z"/>
		<path id="j4_x5F_22" class="st3" d="M373.4,363l72.7,15c5.4,1.1,15.2,2.9,20.1,0.4l55-21.8c32.2-14.1,14.8-33.8,10.2-36.9
			l-107.1-65.4c-2.5-1.8-6.2-2.8-9.7-3l-5.2,9.3l-52.2,93.7C360.8,358,363.1,360.8,373.4,363z"/>
		<path id="j4_x5F_21" class="st3" d="M668.2,336.4C668.2,336.4,668.2,336.4,668.2,336.4c1.4,1.4,2.7,2.9,4.1,4.4
			c0.7,0.7,0.7,1.8,0.2,2.3c-2.9,2.7-5.9,5.3-8.9,7.9c18.8,14.4,39.2,35.5,50.6,39.3c23.3-5.9,36-15.3,36.3-29.9
			C736.4,357.2,682.9,345.8,668.2,336.4z"/>
		<path id="j4_x5F_20" d="M415.4,242.5c-0.8,0.3-1.5,0.6-2.3,0.9c-1.4,0.6-2.9,1.2-4.3,1.8c-0.7,0.3-1.4,0.6-2,0.9
			c-2.1,0.9-4.1,1.8-6.2,2.8c-0.7,0.3-1.3,0-1.7-0.3c-10.1-10.1-16.8-16.8-27.8-27.8c-0.4-0.4-0.7-1-0.3-1.7
			c0.8-1.7,1.6-3.4,2.3-5.1c0.3-0.6,0.5-1.2,0.8-1.8c0.5-1.1,1-2.2,1.4-3.4c0.3-0.7,0.6-1.4,0.9-2.1c0.6-1.4,1.2-2.8,1.7-4.2
			l-178,124.3l-40.6,28.3l181.3,29.1l14-25.1l2.7-4.8l57.4-103l6.1-10.9C419,241,417.2,241.7,415.4,242.5z M363.9,282.8l-29,49.8
			l-6.5,11.2c-2.8,4.8-9.5,7.9-14.9,7l-58.2-9.5c-9.5-0.9-13.2-11.8-2.4-18.9l85.8-63c4.4-3.2,12.4-4.9,16.6-0.8l7.3,8.5
			c0.4,0.5,0.7,1,1,1.5C366.7,273.4,366.4,278.5,363.9,282.8z"/>
		<path id="j4_x5F_19" class="st4" d="M805.8,533.9c-7.3,1-12,0.3-18.5-4.7s-17.8-5.2-27.3-4.2s-180,5.6-190.8,6.2
			c-10.8,0.7-18.3,6.8-22,11c-3.7,4.2-9.7,4-15.3,4c-5.7,0-111.3,0-144.2,0.5c-9.4,0.1-25.7,0.2-44.5,0.2v3.2v8.7c0.8,0,1.7,0,2.5,0
			c38.2,0.1,68.2,0.1,75.7,0.1c10.2-0.1,74.3-0.3,143.7-0.7c4.2,0,8.5-0.1,12.8-0.1c28.7-0.2,57.7-0.4,83.8-0.7c1.2,0,2.5,0,3.7,0
			c43.3-0.5,77.7-1.1,87.5-1.9c2.9-0.2,6.3-0.6,10-1c3.3-0.4,6.9-0.8,10.7-1.3c16-2.1,35.7-5.3,54.7-8.6c2.5-1.5,6.3-8.2,9.8-15.4
			C828.1,530.6,810.9,533.2,805.8,533.9z"/>
		<path id="j4_x5F_18" class="st5" d="M663.6,351c-1.9,1.6-3.8,3.2-5.7,4.8c-8.4,7-17.1,14-25.1,21.2c16.4,7.2,33.5,13.6,49,15.8
			c0,0,0,0,0,0c1.7,0.3,3.5,0.4,5.2,0.6c0.1,0,0.3,0,0.4,0c0.7,0.1,1.4,0.1,2.1,0.1c0.2,0,0.3,0,0.5,0c0.8,0,1.5,0.1,2.3,0.1
			c0,0,0.1,0,0.1,0c0.8,0,1.6,0,2.4,0c0.2,0,0.3,0,0.5,0c0.6,0,1.2-0.1,1.8-0.1c0.2,0,0.5,0,0.7-0.1c0.5,0,1.1-0.1,1.6-0.2
			c0.2,0,0.4,0,0.7-0.1c0.7-0.1,1.5-0.2,2.2-0.3c4.3-0.8,8.4-1.7,12.2-2.6C702.8,386.5,682.4,365.4,663.6,351z"/>
		<path id="j4_x5F_17" class="st4" d="M457.6,223c-4.3-10.2-10-19.6-16.7-27.9c0,0,0,0,0,0c-11.6-14.3-26.6-25.6-44.3-33.1
			c-1-0.4-2.1-0.2-2.4,0.5c-1.4,2.9-2.6,5.8-3.9,8.8c-4.3,10.2-8.2,20.7-12.4,31c-2.3,5.6-4.6,11.2-7.1,16.6
			c-0.3,0.7-0.1,1.3,0.3,1.7c11.1,11.1,17.7,17.7,27.8,27.8c0.4,0.4,1,0.7,1.7,0.3c6.5-3.1,13.3-5.8,20.2-8.6
			c12.2-4.8,24.6-9.5,36.3-14.9C457.7,225.1,458,224,457.6,223z M418.1,189.4c1.1-1.4,2.3-2.8,3.4-4.2c0.5-0.6,1.5-0.6,2.2-0.1
			c3.9,3.3,7.5,6.9,10.8,10.8c0.6,0.7,0.5,1.7-0.1,2.2c-1.4,1.1-2.8,2.3-4.2,3.4c-0.6,0.5-1.5,0.4-2.1-0.3c-3-3.6-6.2-6.8-9.8-9.8
			C417.7,191,417.6,190.1,418.1,189.4z M414.2,213.5c-2.5-2.9-5.2-5.6-8.1-8.1c-0.5-0.4-0.6-1.3-0.1-1.9c1.1-1.4,2.3-2.8,3.4-4.2
			c0.5-0.6,1.4-0.7,2-0.2c3.3,2.7,6.3,5.8,9.1,9.1c0.5,0.6,0.4,1.5-0.2,2c-1.4,1.1-2.8,2.3-4.2,3.4
			C415.5,214.1,414.6,214.1,414.2,213.5z M398,177.7c0.7-1.6,1.4-3.3,2.1-4.9c0.3-0.7,1.3-1,2.1-0.6c4.8,2.1,9.4,4.6,13.7,7.4
			c0.8,0.5,1,1.5,0.6,2.1c-1,1.5-2.1,2.9-3.1,4.4c-0.5,0.6-1.4,0.8-2.1,0.3c-3.9-2.6-8.1-4.8-12.5-6.7
			C398.1,179.3,397.7,178.4,398,177.7z M389.4,193.8c0.7-1.6,1.4-3.3,2.1-4.9c0.3-0.7,1.2-1.1,1.9-0.7c4.1,1.8,7.9,3.9,11.5,6.2
			c0.6,0.4,0.8,1.3,0.3,2c-1,1.5-2.1,2.9-3.1,4.4c-0.5,0.6-1.3,0.8-1.9,0.5c-3.2-2.1-6.7-4-10.3-5.6
			C389.4,195.3,389.1,194.5,389.4,193.8z M390,216.4c-0.5,0.6-1.2,0.9-1.6,0.6c-2.5-1.7-5.3-3.2-8.2-4.4c-0.5-0.2-0.7-1-0.4-1.7
			c0.7-1.6,1.4-3.3,2.1-4.9c0.3-0.7,1.1-1.1,1.6-0.9c3.3,1.4,6.5,3.1,9.4,5.1c0.5,0.3,0.6,1.2,0.1,1.8
			C392,213.5,391,214.9,390,216.4z M399.3,226.8c-1.9-2.3-4.1-4.5-6.4-6.4c-0.4-0.3-0.4-1.1,0.1-1.7c1.1-1.4,2.3-2.8,3.4-4.2
			c0.5-0.6,1.3-0.8,1.8-0.4c2.7,2.2,5.1,4.7,7.4,7.4c0.4,0.5,0.2,1.3-0.4,1.8c-1.4,1.1-2.8,2.3-4.2,3.4
			C400.4,227.1,399.6,227.2,399.3,226.8z M413.7,237.7c-1.6,0.7-3.3,1.4-4.9,2.1c-0.7,0.3-1.5,0.1-1.7-0.4c-1.2-2.9-2.7-5.6-4.4-8.2
			c-0.3-0.5,0-1.2,0.6-1.6c1.5-1,2.9-2.1,4.4-3.1c0.6-0.5,1.5-0.4,1.8,0.1c1.9,2.9,3.6,6.1,5.1,9.4
			C414.8,236.7,414.4,237.4,413.7,237.7z M430.8,228.1c-1.6,0.7-3.3,1.4-4.9,2.1c-0.7,0.3-1.5,0-1.8-0.6c-1.6-3.6-3.4-7.1-5.6-10.3
			c-0.4-0.6-0.2-1.4,0.5-1.9c1.5-1,2.9-2.1,4.4-3.1c0.6-0.5,1.5-0.3,2,0.3c2.4,3.6,4.5,7.5,6.2,11.5
			C431.8,226.9,431.5,227.8,430.8,228.1z M446.9,219.5c-1.6,0.7-3.3,1.4-4.9,2.1c-0.7,0.3-1.6-0.1-1.9-0.9
			c-1.9-4.4-4.2-8.6-6.7-12.5c-0.5-0.7-0.3-1.6,0.3-2.1c1.5-1,2.9-2.1,4.4-3.1c0.6-0.5,1.6-0.2,2.1,0.6c2.8,4.3,5.3,8.9,7.4,13.7
			C447.9,218.2,447.6,219.2,446.9,219.5z"/>
		<path id="j4_x5F_16" class="st4" d="M672.3,340.8c-1.3-1.5-2.7-3-4.1-4.5c-5.7-5.8-11.9-10.9-18.5-15.2c0,0,0,0,0,0
			c-14.3-9.2-30.7-14.9-48.4-16.4c-1-0.1-1.9,0.4-2,1.2c-0.1,0.6-0.1,1.3-0.2,1.9c-0.3,2.3-0.5,4.6-0.7,6.9
			c-0.8,9.1-1.2,18.5-1.8,27.7c-0.4,5.8-0.8,11.6-1.4,17.2c0.4,0.2,0.7,0.3,1.1,0.5c0.5,0.2,1,0.4,1.4,0.7
			c9.9,4.6,21.1,10,32.7,15.2c0.8,0.4,1.6,0.7,2.4,1.1c3.9-3.6,8-7,12.2-10.5c6.2-5.2,12.6-10.3,18.7-15.6c3-2.6,6-5.2,8.9-7.9
			C673,342.6,672.9,341.5,672.3,340.8z M627.9,322.6c0.6-1.5,1.2-3.1,1.8-4.6c0.3-0.7,1.1-1,1.9-0.7c4.4,1.7,8.6,3.9,12.5,6.4
			c0.7,0.4,1,1.3,0.6,1.9c-0.9,1.4-1.8,2.8-2.7,4.2c-0.4,0.6-1.2,0.8-1.9,0.4c-3.6-2.3-7.4-4.2-11.4-5.8
			C628.1,324.1,627.7,323.3,627.9,322.6z M635.4,338.5c0.6,0.4,0.8,1.2,0.4,1.8c-0.9,1.4-1.8,2.8-2.7,4.2c-0.4,0.6-1.1,0.8-1.7,0.5
			c-3-1.9-6.2-3.5-9.4-4.8c-0.6-0.2-0.9-1-0.6-1.6c0.6-1.5,1.2-3.1,1.8-4.6c0.3-0.7,1-1,1.7-0.8
			C628.6,334.6,632.1,336.3,635.4,338.5z M607.4,313.3c0-0.1,0-0.1,0-0.2c0.1-0.7,0.8-1.3,1.7-1.2c4.9,0.5,9.6,1.3,14.2,2.6
			c0.8,0.2,1.3,1,1.1,1.7c-0.5,1.6-1,3.2-1.5,4.7c-0.2,0.7-1,1.1-1.7,0.9c-0.5-0.1-0.9-0.2-1.4-0.3c-3.7-0.9-7.6-1.6-11.5-2
			c-0.8-0.1-1.4-0.7-1.3-1.4C607.1,316.5,607.3,314.9,607.4,313.3z M604.5,329.8c0.1-0.7,0.7-1.3,1.5-1.2c4.1,0.4,8.1,1.1,11.9,2.2
			c0.7,0.2,1.1,0.9,0.9,1.6c-0.5,1.6-1,3.2-1.5,4.7c-0.2,0.7-0.9,1.1-1.5,0.9c-3.4-0.9-7-1.6-10.7-1.9c-0.6-0.1-1.1-0.7-1.1-1.4
			C604.2,333,604.3,331.4,604.5,329.8z M612.4,349.6c-0.5,1.6-1,3.2-1.5,4.7c-0.2,0.7-0.8,1.1-1.3,1c-2.7-0.7-5.5-1.3-8.4-1.5
			c-0.5,0-0.9-0.7-0.8-1.4c0.1-1.6,0.3-3.3,0.4-4.9c0.1-0.7,0.6-1.3,1.2-1.2c3.3,0.3,6.6,0.9,9.7,1.8
			C612.4,348.2,612.7,348.9,612.4,349.6z M622.1,360.8c-2.4-1.5-4.9-2.8-7.5-3.8c-0.5-0.2-0.6-0.9-0.4-1.6c0.6-1.5,1.2-3.1,1.8-4.6
			c0.3-0.7,0.9-1.1,1.5-0.9c3,1.2,5.9,2.7,8.6,4.4c0.5,0.3,0.6,1.1,0.2,1.7c-0.9,1.4-1.8,2.8-2.7,4.2
			C623.2,360.8,622.6,361.1,622.1,360.8z M637.9,366.3c-1.2,1.1-2.5,2.2-3.7,3.3c-0.5,0.5-1.3,0.5-1.6,0.2c-1.9-2.2-4-4.1-6.2-5.9
			c-0.4-0.3-0.4-1,0.1-1.6c1-1.3,2-2.7,3-4c0.4-0.6,1.2-0.8,1.6-0.4c2.5,2,4.9,4.3,7.2,6.8C638.6,365.1,638.5,365.9,637.9,366.3z
			 M650.2,353c-1.2,1.1-2.5,2.2-3.7,3.3c-0.5,0.5-1.3,0.5-1.8,0c-2.4-2.7-5.1-5.2-7.9-7.5c-0.5-0.4-0.6-1.2-0.1-1.8c1-1.3,2-2.7,3-4
			c0.4-0.6,1.3-0.7,1.8-0.3c3.1,2.5,6.1,5.3,8.8,8.4C650.8,351.6,650.7,352.5,650.2,353z M656.2,343.8c-2.9-3.3-6.1-6.3-9.5-9
			c-0.6-0.5-0.7-1.3-0.3-1.9c1-1.3,2-2.7,3-4c0.4-0.6,1.3-0.6,2-0.1c3.1,2.5,6,5.2,8.8,8.2c0.5,0.6,1.1,1.2,1.6,1.8
			c0.6,0.7,0.6,1.6,0.1,2.1c-1.2,1.1-2.5,2.2-3.7,3.3c0,0-0.1,0-0.1,0.1C657.5,344.5,656.7,344.4,656.2,343.8z"/>
		<path id="j4_x5F_15" d="M110.6,241.6c0.5-19.4,4.4-45.6,9.6-58.7c0,0,0,0.1-0.1,0.1c2.1-9.6,6.5-18.5,13.5-22.3
			c-0.7-1.7-5.5-13.3-9.4-19.5c-4.2-6.8-13.2-1.5-17.8,9.5c-0.7,1.8-1.3,4.2-1.7,7c-2.3,0-4.1,3-4.1,6.7c0,3.1,1.3,5.7,3.1,6.5
			c-0.1,3.9-0.2,8.3-0.2,13c-1.7,0.9-2.9,3.4-2.9,6.4c0,3,1.2,5.5,2.9,6.4c0,4.1,0,8.4,0,12.8c-2.1,0.4-3.7,3.2-3.7,6.7
			c0,3.4,1.5,6.1,3.5,6.6c0,2.5-0.1,5-0.2,7.5c-1,36.8-29,143.2-33,172.5c2.1-4.5,36.6-59.7,45-73.2c0,0,0,0,0-0.1
			c0.1-0.2,0.2-0.4,0.3-0.6c0.1-0.1,0.1-0.2,0.2-0.3c0.1-0.1,0.1-0.2,0.2-0.3c0.1-0.1,0.1-0.2,0.2-0.3c0.1-0.2,0.2-0.3,0.3-0.5
			c4.2-6.7,7.8-12.7,16.3-13.5c-7.7-11.5-20.5-55.3-22.3-68.3C110.4,244.6,110.4,243.3,110.6,241.6z"/>
		<path id="j4_x5F_14" class="st6" d="M935,457.8c-1-6.1-2.1-11-2.7-13c-1.9-5.8-8.6-10.1-12.5-10.2c0.5,1.2,0.2,3.6-3.7,5.2
			c-1.1,0.4-13.4,5.7-26.4,9.2s-64.8,14.2-74.4,15.6c-11.3,1.7-23.3,9.9-31.3,21.2c-1,1.4-2,2.9-2.8,4.4c-7.8,13.5-15,26.8-28,25.7
			s-142.8-16.6-154-18.2s-18.8-3.6-24.9-12.4c-0.2-0.3-0.4-0.6-0.6-0.9c-6.6-9.4-23.5-32.6-35.8-38.4c-12.6-6-27.6-11.2-47.8-5.9
			s-41.9,23.2-44.9,25.6c-0.4,0.3-0.8,0.6-1.2,0.9c-0.2,0.2-0.4,0.3-0.7,0.5c-0.1,0.1-0.2,0.1-0.2,0.2c-0.2,0.1-0.4,0.3-0.6,0.4
			c-0.1,0.1-0.1,0.1-0.2,0.2c-0.2,0.2-0.4,0.3-0.7,0.5c-0.1,0-0.1,0.1-0.2,0.1c-0.6,0.5-1.2,0.9-1.9,1.5c-0.1,0-0.1,0.1-0.2,0.1
			c-0.3,0.2-0.6,0.5-0.9,0.7c-0.1,0.1-0.1,0.1-0.2,0.2c-0.3,0.2-0.6,0.5-0.9,0.7c-0.1,0.1-0.2,0.1-0.3,0.2c-0.8,0.6-1.6,1.2-2.5,1.9
			c-0.1,0.1-0.1,0.1-0.2,0.2c-0.3,0.3-0.7,0.5-1,0.8c-0.1,0.1-0.3,0.2-0.4,0.3c-0.3,0.3-0.7,0.5-1,0.8c-0.1,0.1-0.2,0.2-0.3,0.2
			c-0.9,0.7-1.9,1.5-2.9,2.2c-0.1,0.1-0.3,0.2-0.4,0.3c-0.4,0.3-0.7,0.6-1.1,0.8c-0.2,0.1-0.4,0.3-0.6,0.4c-0.3,0.2-0.6,0.5-1,0.8
			c-0.2,0.2-0.4,0.3-0.6,0.5c-0.3,0.3-0.7,0.5-1,0.8c-0.3,0.2-0.5,0.4-0.8,0.6c-0.1,0.1-0.2,0.1-0.3,0.2c-0.3,0.3-0.7,0.5-1,0.8
			c-0.2,0.2-0.5,0.4-0.7,0.6c-0.3,0.2-0.6,0.5-0.9,0.7c-0.3,0.2-0.6,0.5-0.9,0.7c-0.2,0.1-0.4,0.3-0.5,0.4c-1.9,1.5-3.8,3-5.8,4.5
			c0,0,0,0,0,0c-0.5,0.4-1,0.8-1.5,1.2c-0.1,0.1-0.1,0.1-0.2,0.2c-1,0.8-2,1.6-3,2.3c-0.2,0.1-0.4,0.3-0.5,0.4
			c-0.8,0.6-1.6,1.3-2.5,1.9c-0.1,0.1-0.2,0.2-0.3,0.3l0,0c-25.9,20.4-55.6,44.2-62.2,50.3c18.9,0,35.1,0,44.5-0.2
			c32.8-0.5,138.5-0.5,144.2-0.5c5.7,0,11.7,0.2,15.3-4c1.7-1.9,4.2-4.3,7.5-6.3c3.8-2.4,8.7-4.3,14.5-4.7
			c10.8-0.7,181.3-5.3,190.8-6.2s20.8-0.8,27.3,4.2s11.2,5.7,18.5,4.7c5.1-0.7,22.3-3.3,32.2-4.9c3.6-7.4,7-15.2,8.4-18.1
			c2.8-5.7,13.7-10.7,17.8-12.2c4.2-1.5,41.7-13.7,51.7-16.7c10-3,18.8-8.2,20.9-10.7C936.3,466.6,935.6,461.9,935,457.8z"/>
		<path id="j4_x5F_13" d="M724.2,452.9c-19.7-2.7-44.3-2.2-71.8,6.5c-22.2,7-61.7,19.4-78.7,24.9c0.2,0.3,0.4,0.6,0.6,0.9
			c6.1,8.8,13.6,10.8,24.9,12.4s141,17.1,154,18.2s20.3-12.2,28-25.7c0.9-1.5,1.8-3,2.8-4.4l0,0
			C771.8,475.6,743.8,455.6,724.2,452.9z"/>
		<path id="j4_x5F_12" class="st5" d="M919.8,434.5c-5.1-14.1-21.4-46.8-34.4-47.8c1,4-2.7,7.3-16.3,11.7
			c-13.7,4.3-74.3,17-103,19.3s-66,4.7-80,12.7s-20.3,16-47.3,8.3s-52-21.7-65-26.7s-35.7-11-54.7-3.7c-16.3,6.3-82.8,45.2-101,55.9
			c0.7,0.2,1.4,0.4,2,0.5c0.4,0.1,0.8,0.2,1.1,0.3c0.2,0.1,0.4,0.1,0.6,0.2c0.4,0.1,0.8,0.2,1.2,0.3c0.2,0.1,0.4,0.1,0.6,0.2
			c0.5,0.1,0.9,0.2,1.4,0.4c0.2,0,0.3,0.1,0.5,0.1c0.4,0.1,0.9,0.2,1.3,0.3c0.2,0,0.4,0.1,0.6,0.1c0.3,0.1,0.7,0.2,1,0.3
			c0.1,0,0.3,0.1,0.4,0.1c0.4,0.1,0.9,0.2,1.3,0.3c0.1,0,0.2,0,0.3,0.1c0.3,0.1,0.6,0.2,0.9,0.2c0.1,0,0.2,0.1,0.3,0.1
			c0.3,0.1,0.5,0.1,0.8,0.2c0.1,0,0.1,0,0.2,0.1c0.3,0.1,0.6,0.1,0.8,0.2c0.1,0,0.1,0,0.2,0c0.2,0,0.4,0.1,0.5,0.1
			c0.1,0,0.1,0,0.2,0c0.2,0,0.4,0.1,0.5,0.1c4,0.7,6.7-0.2,9.3-2c0.4-0.3,0.8-0.6,1.2-0.9c3-2.4,24.8-20.2,44.9-25.6
			s35.1-0.1,47.8,5.9c12.2,5.8,29.2,29,35.8,38.4c17-5.5,56.5-17.9,78.7-24.9c27.5-8.7,52.2-9.2,71.8-6.5
			c19.7,2.7,47.7,22.7,59.8,32.8l0,0c8-11.3,19.9-19.5,31.3-21.2c0.1,0,0.3,0,0.5-0.1c0,0,0.1,0,0.1,0c0.1,0,0.3,0,0.4-0.1
			c0.1,0,0.1,0,0.2,0c0.1,0,0.2,0,0.4-0.1c0.1,0,0.2,0,0.3-0.1c0.1,0,0.2,0,0.3-0.1c0.1,0,0.3,0,0.4-0.1c0.1,0,0.2,0,0.3-0.1
			c0.1,0,0.3,0,0.4-0.1c0.1,0,0.2,0,0.3-0.1c0.1,0,0.3-0.1,0.4-0.1c0.1,0,0.2,0,0.4-0.1c0.1,0,0.3-0.1,0.4-0.1c0.1,0,0.3,0,0.4-0.1
			c0.2,0,0.3-0.1,0.5-0.1c0.1,0,0.3-0.1,0.4-0.1c0.1,0,0.3-0.1,0.4-0.1c0.2,0,0.3-0.1,0.5-0.1c0.1,0,0.3,0,0.4-0.1
			c0.2,0,0.4-0.1,0.6-0.1c0.2,0,0.3-0.1,0.5-0.1c0.2,0,0.3-0.1,0.5-0.1c0.2,0,0.4-0.1,0.6-0.1c0.2,0,0.3-0.1,0.5-0.1
			c0.2,0,0.4-0.1,0.5-0.1c0.2,0,0.4-0.1,0.6-0.1c0.2,0,0.3-0.1,0.5-0.1c0.2,0,0.4-0.1,0.6-0.1c0.2,0,0.4-0.1,0.5-0.1
			c0.2,0,0.4-0.1,0.6-0.1c0.2,0,0.4-0.1,0.6-0.1c0.2,0,0.4-0.1,0.6-0.1c0.2,0,0.4-0.1,0.6-0.1c0.2,0,0.4-0.1,0.6-0.1
			c0.2,0,0.4-0.1,0.7-0.1c0.2,0,0.3-0.1,0.5-0.1c0.2,0,0.5-0.1,0.8-0.1c0.2,0,0.4-0.1,0.6-0.1c0.2,0,0.4-0.1,0.7-0.1
			c0.2,0,0.5-0.1,0.7-0.1c0.2,0,0.4-0.1,0.7-0.1c0.2,0,0.3-0.1,0.5-0.1c0.3-0.1,0.6-0.1,0.9-0.2c0.1,0,0.3-0.1,0.4-0.1
			c0.3-0.1,0.6-0.1,0.9-0.2c0.2,0,0.4-0.1,0.7-0.1c0.2,0,0.5-0.1,0.7-0.1c0.3-0.1,0.6-0.1,0.9-0.2c0.2,0,0.3-0.1,0.5-0.1
			c0.2,0,0.4-0.1,0.6-0.1c1.1-0.2,2.1-0.4,3.2-0.7c0.2,0,0.3-0.1,0.5-0.1c0.1,0,0.2,0,0.3-0.1c0.4-0.1,0.7-0.2,1.1-0.2
			c0.2,0,0.5-0.1,0.7-0.2c0.2,0,0.4-0.1,0.7-0.1c0.3-0.1,0.6-0.1,0.9-0.2c0.2,0,0.4-0.1,0.6-0.1c0.8-0.2,1.6-0.3,2.4-0.5
			c0.1,0,0.3-0.1,0.4-0.1c0.3-0.1,0.7-0.1,1-0.2c0.1,0,0.2-0.1,0.4-0.1c0.4-0.1,0.8-0.2,1.2-0.3c0.1,0,0.1,0,0.2,0
			c0.4-0.1,0.8-0.2,1.3-0.3c0.1,0,0.1,0,0.2,0c0.4-0.1,0.8-0.2,1.2-0.3c0.1,0,0.1,0,0.2,0c0.4-0.1,0.8-0.2,1.2-0.3
			c0.1,0,0.2,0,0.3-0.1c0.4-0.1,0.8-0.2,1.1-0.2c0.1,0,0.2,0,0.3-0.1c0.4-0.1,0.8-0.2,1.2-0.3c0.1,0,0.1,0,0.2,0
			c0.4-0.1,0.8-0.2,1.2-0.3c0.1,0,0.1,0,0.2,0c0.4-0.1,0.8-0.2,1.1-0.2c0.1,0,0.2,0,0.3-0.1c0.4-0.1,0.7-0.2,1.1-0.2
			c0.1,0,0.2,0,0.3-0.1c0.4-0.1,0.7-0.2,1.1-0.2c0.1,0,0.1,0,0.2,0c0.4-0.1,0.7-0.2,1.1-0.2c0.1,0,0.2,0,0.3-0.1
			c0.3-0.1,0.7-0.1,1-0.2c0.1,0,0.2-0.1,0.4-0.1c0.3-0.1,0.6-0.1,0.9-0.2c0.1,0,0.2-0.1,0.4-0.1c1.2-0.3,2.4-0.5,3.5-0.8
			c0,0,0,0,0,0c0.7-0.2,1.4-0.3,2.1-0.5c0.3-0.1,0.5-0.1,0.7-0.2c0.4-0.1,0.8-0.2,1.3-0.3c0.3-0.1,0.5-0.1,0.8-0.2
			c0.4-0.1,0.8-0.2,1.1-0.3c0.3-0.1,0.5-0.1,0.8-0.2c0.3-0.1,0.7-0.2,1-0.2c0.2-0.1,0.5-0.1,0.7-0.2c0.3-0.1,0.7-0.2,1-0.2
			c0.2-0.1,0.4-0.1,0.6-0.2c0.5-0.1,0.9-0.2,1.4-0.3c0.2-0.1,0.4-0.1,0.6-0.1c0.2-0.1,0.4-0.1,0.6-0.2v0c0.5-0.1,1.1-0.3,1.5-0.4
			c13-3.5,25.3-8.7,26.4-9.2C919.9,438.2,920.2,435.8,919.8,434.5z"/>
		<path id="j4_x5F_11" class="st7" d="M338.2,503.9l-123.1-6.4c-5.6-0.3-10.1,4.3-10.1,10.2v6.1c0,5.9,4.5,10.7,10.1,10.7h123
			c5.6,0,10.1-4.5,10.1-10S343.7,504.1,338.2,503.9z"/>
		<path id="j4_x5F_10" class="st5" d="M471,223.7c-0.5-0.4-1.4-1.3-2.7-2.5c-5-4.9-15.5-15.7-27.4-26c6.7,8.3,12.4,17.6,16.7,27.9
			c0.4,1,0.2,2.1-0.5,2.4c-11.6,5.4-24.1,10-36.3,14.9l-6.1,10.9c3.6,0.2,7.2,1.2,9.7,3l107.1,65.4c4.5,3.1,22,22.8-10.2,36.9
			l-55,21.8c-4.9,2.4-14.7,0.7-20.1-0.4l-72.7-15c-10.3-2.1-12.7-5-16.1-8.7l-2.7,4.8c56,11.7,103.1,21.4,111.1,22.8
			c21,3.8,41.5,4.8,66.8-11.5c24.9-16.1,32.3-24.3,62.7-10.7c1.6-14.7,1.9-30,3.2-44.9c0.2-2.3,0.4-4.6,0.7-6.9
			C544.9,272.2,473.6,225.6,471,223.7z"/>
		<path id="j4_x5F_9" class="st5" d="M406.8,70.1c-1-1.7-2-3.2-3.1-4.4l0,0c-49-7.9-64.3,33.7-68.3,49.4c-3.7,14.3,4.6,31,10.6,47.6
			v0c8.8-3.1,16.7-5.2,22.3-5.6c17.8-1.2,37.5-3.5,67,17.2c21.5,15.1,32.5,27.5,37.5,34.4C470.9,191.4,412.7,79.7,406.8,70.1z"/>
		<path id="j4_x5F_8" class="st3" d="M363.7,268.6l-44.2,16.6c-10,3.5-21.1,11.8-10,23l25.4,24.4l29-49.8
			C366.4,278.5,366.7,273.4,363.7,268.6z"/>
		<path id="j4_x5F_7" class="st6" d="M476.2,213.9c-0.5-0.8-1.6-2.6-3.5-5.1c-5.1-6.8-16.1-19.3-37.5-34.4
			c-29.5-20.8-49.2-18.5-67-17.2c-7.8,0.5-20,4.4-32.9,9.5c-16.5,6.5-34.1,15.1-44.9,21.2c-19.2,11-54.8,20.5-71.8,20.8
			s-33.2-22-41-30s-24-20-36-20c-3,0-5.7,0.7-8.1,2c-7.1,3.9-11.4,12.7-13.5,22.3c0.2-0.5,0.4-1,0.6-1.4c0.1-0.1,0.1-0.3,0.2-0.4
			c0.1-0.3,0.3-0.6,0.4-0.9c0.1-0.2,0.2-0.3,0.2-0.5c0.1-0.3,0.3-0.5,0.4-0.7c0.1-0.2,0.2-0.3,0.2-0.4c0.1-0.2,0.3-0.4,0.4-0.6
			c0.1-0.1,0.2-0.3,0.3-0.4c0.1-0.2,0.3-0.4,0.4-0.6c0.1-0.1,0.2-0.2,0.2-0.3c0.1-0.2,0.3-0.3,0.4-0.5c0.1-0.1,0.1-0.2,0.2-0.2
			c0.2-0.2,0.4-0.4,0.6-0.6c1.9-1.4,3.7-2.8,5.4-4c5.6-3.8,11-5.6,17.1-1.2c8,5.8,31.5,35,42.8,43.2s32.2,14,54.2,8.2
			s59.5-19,78.5-29.2c4.4-2.4,10.2-5.2,16.9-8c14.9-6.2,34.1-12.3,50.7-13.1c1.3-3,2.6-5.9,3.9-8.8c0.3-0.7,1.4-0.9,2.4-0.5
			c17.6,7.5,32.6,18.8,44.3,33.1c0,0,0,0,0,0c11.9,10.3,22.3,21,27.3,25.9c0,0,0,0,0.1,0.1C472.2,225,478,216.9,476.2,213.9z"/>
		<path id="j4_x5F_6" class="st5" d="M377.9,202.4c4.2-10.3,8.1-20.9,12.4-31c-24.1,1-53.5,13.4-67.6,21
			c-19,10.2-56.5,23.5-78.5,29.2s-43,0-54.2-8.2s-34.8-37.5-42.8-43.2c-6.1-4.4-11.4-2.5-17.1,1.2c-1.8,1.2-3.6,2.6-5.4,4
			c-1.6,1.2-3.2,3.9-4.6,7.6c-5.2,13.2-9.1,39.2-9.6,58.6c0,1.4-0.1,2.8-0.1,4.1c1.8,13,14.5,56.8,22.3,68.3
			c2.2-0.2,4.8-0.1,7.7,0.5c3.8,0.7,27,5.6,59.4,12.3l0,0L377.9,202.4z"/>
		<path id="j4_x5F_5" d="M434.8,468.5c-1.7-0.3-8.3-2-16.8-4.2c-14.8-3.9-35.1-9.3-43.8-10.9c-13.8-2.5-74.6-11.7-96.1-14.5
			c-21.5-2.8-128.3-15.5-143.2-17c-14.8-1.5-30.5-1.3-38.8,9.7c-3.1,4.1-9.3,12-15.3,10.7c-4-0.9-7.1-2.5-9.4-2.9
			c-1.2-0.2-2.1,0-2.8,0.9c-0.9,1.1-1.6,13.6-2.1,28.2C86,475.1,128,482.8,184,484.1s190.9,14.2,208.3,22.9c4.4-3.5,8.8-7,13.1-10.3
			c6.4-5.1,12.6-9.9,18.1-14.2c0.2-0.2,0.5-0.4,0.7-0.5c0,0,0,0,0.1,0c0.1,0,0.1-0.1,0.2-0.1c0.2-0.2,0.5-0.4,0.7-0.5
			c0,0,0.1-0.1,0.1-0.1c0.2-0.2,0.4-0.3,0.6-0.5c0,0,0,0,0.1,0c0.3-0.2,0.6-0.5,0.9-0.7c0,0,0,0,0,0c0.2-0.1,0.4-0.3,0.6-0.4
			c0,0,0,0,0,0c1.5-1.2,2.9-2.3,4.3-3.3c0,0,0,0,0.1,0c0.1-0.1,0.2-0.1,0.2-0.2c0.4-0.3,0.7-0.6,1.1-0.9c0,0,0,0,0,0c0,0,0,0,0,0
			c0.4-0.3,0.9-0.7,1.3-1c0.1,0,0.1-0.1,0.2-0.1c0,0,0.1-0.1,0.1-0.1c1.3-1,2.6-2,3.7-2.9c0,0,0,0,0,0c0.1-0.1,0.1-0.1,0.2-0.2
			c0,0,0,0,0.1,0c0.3-0.2,0.6-0.5,0.9-0.7c0,0,0.1,0,0.1-0.1c0,0,0,0,0,0c0.7-0.5,1.3-1,1.9-1.4c0,0,0,0,0,0c0,0,0.1,0,0.1-0.1
			c0.5-0.4,1-0.8,1.5-1.1c0,0,0,0,0,0c0.1-0.1,0.2-0.1,0.2-0.2c0,0,0,0,0,0c0.2-0.2,0.4-0.3,0.7-0.5
			C441.5,468.3,438.8,469.2,434.8,468.5z"/>
		<path id="j4_x5F_4" class="st5" d="M885.3,386.7c-30-4.9-110.7-15.5-134.8-26.3c-0.2,14.6-13,24-36.3,29.9
			c-3.8,1-7.9,1.8-12.2,2.6c-6.2,1.1-13.1,1-20.3,0c-15.4-2.2-32.5-8.6-49-15.8c-9.3-4.1-18.3-8.4-26.7-12.3
			c-0.2-0.1-0.5-0.2-0.8-0.4c-0.4-0.2-0.9-0.4-1.3-0.6c-0.9-0.4-1.9-0.9-2.8-1.3c-0.4-0.2-0.8-0.4-1.2-0.5c-1.3-0.6-2.5-1.2-3.8-1.7
			c-0.4-0.2-0.7-0.3-1.1-0.5c-30.3-13.6-37.7-5.3-62.7,10.7c-25.2,16.2-45.8,15.2-66.8,11.5c-8-1.4-55.1-11.2-111.1-22.8l-14,25.1
			l-181.3-29.1l40.6-28.3c-32.4-6.8-55.6-11.6-59.4-12.3c-3-0.6-5.5-0.7-7.7-0.5c-8.4,0.8-12.1,6.8-16.3,13.5
			c-0.4,0.7-1,1.6-1.8,2.9c-9.3,14.9-42.4,68-44.5,72.4c-2.2,4.8-0.5,21.2,1,36.7l0,0c2.3,0.3,5.4,2,9.4,2.9
			c6,1.3,12.3-6.6,15.3-10.7c8.3-11,24-11.2,38.8-9.7c14.8,1.5,121.7,14.2,143.2,17c21.5,2.8,82.4,12,96.1,14.5
			c8.8,1.6,29,7,43.8,10.9c18.2-10.7,84.7-49.6,101-55.9c19-7.3,41.7-1.3,54.7,3.7s38,19,65,26.7s33.3-0.3,47.3-8.3
			s51.3-10.3,80-12.7s89.3-15,103-19.3C882.7,394.1,886.3,390.7,885.3,386.7z"/>
		<path id="j4_x5F_3" class="st8" d="M936.9,471.4c-2,2.5-10.9,7.7-20.9,10.7c-10,3-47.5,15.2-51.7,16.7c-4.2,1.5-15,6.5-17.8,12.2
			c-1.4,2.9-4.8,10.7-8.4,18.1c-3.5,7.2-7.3,13.9-9.8,15.4c6.7-1.2,13.3-2.4,19.6-3.6c16.7-3.2,31.6-6.3,41.1-8.7
			c28.5-7.2,47.2-21.8,48.8-36.9C938.4,488.9,937.8,480,936.9,471.4z"/>
		<path id="j4_x5F_2" class="st8" d="M220.7,545.6c-16.8-1.2-40.8-13.2-55.3-17.8c-14.5-4.7-85.2-19.6-99.3-24.7
			c0.1,4.4,0.2,8,0.3,10.3c1,13.3,9.8,17,15.3,19.7c5.5,2.7,41.8,17.8,46.8,19.8s14.8,4.5,28.8,5c5.3,0.2,41.3,0.4,85.2,0.6
			c1.1,0,2.2,0,3.2,0c30.3,0.1,65,0.2,94.9,0.3c0.8,0,1.7,0,2.5,0v-8.7v-3.2C296,546.9,232.7,546.4,220.7,545.6z"/>
		<path id="j4_x5F_1" class="st5" d="M184,484.1c-56-1.3-98-9-117.6-15.7c-0.4,11.9-0.5,25.2-0.4,34.7c14.1,5,84.8,20,99.3,24.7
			c14.5,4.7,38.5,16.7,55.3,17.8c12,0.8,75.3,1.3,122.5,1.4c5.5-5.1,27.1-22.5,49.1-39.9C374.9,498.3,240,485.4,184,484.1z
			 M338.1,524.4h-123c-5.6,0-10.1-4.8-10.1-10.7v-6.1c0-5.9,4.5-10.4,10.1-10.2l123.1,6.4c5.6,0.3,10.1,5,10.1,10.5
			S343.7,524.4,338.1,524.4z"/>
	</g>
</g>
<g id="jordan3" class="st0">
	<g id="shapes_2_" class="st1">
		<path id="j3_x5F_17" class="st9" d="M559.4,296.7c-2.4-3.1-5.4-5.7-9.1-7.5c-1.6-0.8-3.1-1.4-4.8-1.8c-9.2-2.5-19.1,0.3-25.6,7
			c-1.8,1.9-3.4,4.1-4.6,6.5l46.8,23.2c2.2-4.4,3-9.1,2.6-13.7C564.3,305.5,562.4,300.7,559.4,296.7z M549.7,302.5
			c-1.7,3.5-5.9,4.9-9.4,3.2c-3.5-1.7-4.9-5.9-3.2-9.4c1.7-3.5,5.9-4.9,9.4-3.2C550,294.8,551.4,299,549.7,302.5z"/>
		<path id="j3_x5F_16" class="st5" d="M515.5,294.5c0.1-0.3,0.1-0.5,0.2-0.8c0-0.2,0.1-0.3,0.1-0.5c0.1-0.3,0.1-0.6,0.1-0.8
			c0-0.2,0-0.3,0.1-0.5c0-0.3,0.1-0.6,0.1-0.9c0-0.1,0-0.3,0-0.4c0-0.3,0-0.6,0.1-0.9c0-0.1,0-0.3,0-0.4c0-0.3,0-0.7,0-1
			c0-0.1,0-0.2,0-0.3c0-0.4,0-0.8-0.1-1.1c0-0.1,0-0.1,0-0.2c-0.2-2.7-0.8-5.3-1.8-7.8c0,0,0,0,0,0c-0.5-1.2-1.1-2.4-1.8-3.6
			c0,0,0-0.1-0.1-0.1c-0.7-1.1-1.4-2.2-2.3-3.2c0,0,0-0.1-0.1-0.1c-0.4-0.5-0.9-1-1.3-1.5c0,0-0.1-0.1-0.1-0.1
			c-0.9-0.9-1.9-1.8-3-2.6c-0.1,0-0.1-0.1-0.2-0.1c-0.5-0.4-1.1-0.8-1.7-1.1c-0.7-0.4-1.4-0.8-2.2-1.2c-1.6-0.8-3.1-1.4-4.8-1.8
			c-0.5-0.1-1-0.2-1.5-0.3c-0.5-0.1-0.9-0.2-1.4-0.3c0,0,0,0,0,0c-8.3-1.3-16.8,1.6-22.7,7.6c-0.6,0.6-1.2,1.3-1.8,2.1
			c0,0.1-0.1,0.1-0.1,0.2c-0.3,0.4-0.6,0.8-0.9,1.2c-0.1,0.2-0.2,0.4-0.4,0.5c-0.2,0.3-0.4,0.6-0.6,0.9c-0.3,0.5-0.6,1.1-0.9,1.6
			l46.8,23.2c0.2-0.4,0.4-0.8,0.6-1.3c0.1-0.1,0.1-0.3,0.2-0.4c0.1-0.3,0.2-0.6,0.3-0.9c0.1-0.2,0.1-0.3,0.2-0.5
			c0.1-0.3,0.2-0.5,0.3-0.8c0.1-0.2,0.1-0.3,0.1-0.5c0.1-0.3,0.2-0.5,0.2-0.8C515.4,294.9,515.4,294.7,515.5,294.5z M501.1,278.5
			c-0.1,0.2-0.2,0.4-0.3,0.5c-1.9,3.1-5.8,4.3-9.1,2.6c-3.5-1.7-4.9-5.9-3.2-9.4c1.7-3.5,5.9-4.9,9.4-3.2c1.3,0.6,2.3,1.6,2.9,2.7
			C502,273.8,502.2,276.3,501.1,278.5z"/>
		<path id="j3_x5F_15" class="st5" d="M467,270.5c0.1-0.3,0.1-0.5,0.2-0.8c0-0.2,0.1-0.3,0.1-0.5c0.1-0.3,0.1-0.6,0.1-0.8
			c0-0.2,0-0.3,0.1-0.5c0-0.3,0.1-0.6,0.1-0.9c0-0.1,0-0.3,0-0.4c0-0.3,0-0.6,0.1-0.9c0-0.1,0-0.3,0-0.4c0-0.3,0-0.7,0-1
			c0-0.1,0-0.2,0-0.3c0-0.4,0-0.8-0.1-1.1c0-0.1,0-0.1,0-0.2c-0.2-2.7-0.8-5.3-1.8-7.8c0,0,0,0,0,0c-0.5-1.2-1.1-2.4-1.8-3.6
			c0,0,0-0.1-0.1-0.1c-0.7-1.1-1.4-2.2-2.3-3.2c0,0,0-0.1-0.1-0.1c-0.4-0.5-0.9-1-1.3-1.5c0,0-0.1-0.1-0.1-0.1
			c-0.9-0.9-1.9-1.8-3-2.6c-0.1,0-0.1-0.1-0.2-0.1c-0.5-0.4-1.1-0.8-1.7-1.1c-0.7-0.4-1.4-0.8-2.2-1.2c-1.6-0.8-3.1-1.4-4.8-1.8
			c-0.5-0.1-1-0.2-1.5-0.3c-0.5-0.1-0.9-0.2-1.4-0.3c0,0,0,0,0,0c-8.3-1.3-16.8,1.6-22.7,7.6c-0.6,0.6-1.2,1.3-1.8,2.1
			c0,0.1-0.1,0.1-0.1,0.2c-0.3,0.4-0.6,0.8-0.9,1.2c-0.1,0.2-0.2,0.4-0.4,0.5c-0.2,0.3-0.4,0.6-0.6,0.9c-0.3,0.5-0.6,1.1-0.9,1.6
			l46.8,23.2c0.2-0.4,0.4-0.8,0.6-1.3c0.1-0.1,0.1-0.3,0.2-0.4c0.1-0.3,0.2-0.6,0.3-0.9c0.1-0.2,0.1-0.3,0.2-0.5
			c0.1-0.3,0.2-0.5,0.3-0.8c0.1-0.2,0.1-0.3,0.1-0.5c0.1-0.3,0.2-0.5,0.2-0.8C466.9,270.9,466.9,270.7,467,270.5z M452.6,254.5
			c-0.1,0.2-0.2,0.4-0.3,0.5c-1.9,3.1-5.8,4.3-9.1,2.6c-3.5-1.7-4.9-5.9-3.2-9.4c1.7-3.5,5.9-4.9,9.4-3.2c1.3,0.6,2.3,1.6,2.9,2.7
			C453.5,249.8,453.7,252.3,452.6,254.5z"/>
		<path id="j3_x5F_14" class="st5" d="M929,436c-2-7-7-11-11-12.7c0.1,0.4-0.4,1-1.6,1.8c-2.9,2.6-9,5.5-17,8.4
			c-31.6,11.6-94.4,24.4-122.8,30.4c-14.3,3-35.9,6.1-56.7,11c-0.1,0-0.1,0-0.2,0c-2.3,0.5-4.6,1.1-6.9,1.7c-0.1,0-0.1,0-0.2,0
			c-1.1,0.3-2.3,0.6-3.4,0.9c0,0-0.1,0-0.1,0c-2.3,0.6-4.5,1.3-6.7,1.9c-0.1,0-0.2,0-0.2,0.1c-2.2,0.7-4.4,1.4-6.5,2.1c0,0,0,0,0,0
			c-1.1,0.4-2.1,0.7-3.1,1.1c-0.1,0-0.1,0-0.2,0.1c-2,0.8-4,1.6-6,2.4c0,0-0.1,0-0.1,0.1c-1,0.4-1.9,0.8-2.8,1.3c0,0-0.1,0-0.1,0.1
			c-1.9,0.9-3.6,1.8-5.3,2.7c-0.1,0-0.1,0.1-0.2,0.1c-1.7,1-3.4,1.9-4.9,3v0l0,0c-5.3,3.6-9.5,7.7-12,12.4c-1.6,2-4.4,5.7-7.8,10.2
			c-9.6,12.8-23.8,31.9-27.7,36.7c43.4-3.2,100.5-10.2,133.3-25.2c41.2-18.8,148.2-62,174.3-73.5C931.7,445.2,929.8,438.7,929,436z"
			/>
		<path id="j3_x5F_13" class="st10" d="M918,423.4c-2.7-7.4-14.3-34.3-17.6-39.1c-1.1-1.6-3.8-1.5-7.7-0.6c-7.9,2-20.5,8-32.8,12.8
			c-18.2,7.2-191.2,40.2-207.8,45.2s-35.8,35.8-48.5,57.2c12,4.5,23.4,6.1,33.7,6.5c8.7,0.3,16.6-0.2,23.6-0.5
			c2.5-4.7,6.6-8.8,12-12.4c12.5-8.4,31.4-14.1,50.6-18.4c19.7-4.4,39.6-7.3,53.1-10.2c28.4-6,91.2-18.9,122.8-30.4
			c8-2.9,14-5.8,17-8.4C917.6,424.4,918.2,423.8,918,423.4z"/>
		<path id="j3_x5F_12" class="st5" d="M490.7,466.2c37.7-1.5,91,24.5,113,32.8c12.8-21.5,32-52.2,48.5-57.2s189.5-38,207.8-45.2
			c12.3-4.9,24.9-10.9,32.8-12.8c-5.8-5.5-14.7-9.5-25.3-12.6l0,0c-64.4,20.4-218.2,61.2-359.1,52.2c-62.2-4-195-34.7-255-44.8
			c58.4,42.7,131.7,96.7,139,102.8C409.2,485.5,426.2,468.8,490.7,466.2z"/>
		<path id="j3_x5F_11" class="st10" d="M191.1,515.4c0,6.7,5.5,12.2,12.2,12.2h124.3c4.5,0,8.2-3.7,8.2-8.2c0-3-1.6-5.5-3.9-7
			c-50.2-3.4-112.2-7.1-133.7-8.1C194,506.3,191.1,510.5,191.1,515.4z"/>
		<path id="j3_x5F_10" class="st5" d="M413.7,214.6c-0.1,0.1-0.2,0.3-0.3,0.4c-0.5,0.9-1.1,1.7-1.6,2.6c-2.4,3.8-4.8,7.7-7.3,11.7
			c-1.9,3.1-3.8,6.1-5.7,9.1c-0.1,0.2-0.2,0.3-0.3,0.5c-0.5,0.8-1,1.6-1.5,2.5c-0.1,0.1-0.2,0.3-0.3,0.4c-1.2,1.9-2.3,3.7-3.3,5.5
			c-0.1,0.2-0.2,0.3-0.3,0.5c-0.4,0.7-0.8,1.4-1.2,2.1c-0.1,0.2-0.2,0.4-0.3,0.6c-0.4,0.7-0.8,1.4-1.2,2.1c-0.1,0.1-0.1,0.2-0.2,0.3
			c-0.3,0.5-0.6,1-0.9,1.5c-0.1,0.1-0.2,0.3-0.3,0.4c-0.3,0.5-0.5,0.9-0.8,1.4c-0.1,0.1-0.2,0.3-0.2,0.4c0,0,0,0,0,0.1
			c-0.2,0.4-0.4,0.8-0.7,1.2c-0.1,0.2-0.2,0.3-0.3,0.5c0,0,0,0,0,0c-0.2,0.4-0.4,0.7-0.6,1c-0.1,0.2-0.2,0.4-0.3,0.5
			c-0.2,0.3-0.3,0.6-0.5,1c-0.1,0.1-0.1,0.3-0.2,0.4c0,0,0,0.1,0,0.1c-0.2,0.3-0.3,0.6-0.4,0.9c0,0.1-0.1,0.2-0.1,0.3
			c0,0.1,0,0.1-0.1,0.1c-0.1,0.2-0.2,0.5-0.3,0.7c0,0.1-0.1,0.2-0.1,0.3c0,0,0,0.1,0,0.1c-0.1,0.3-0.2,0.6-0.3,0.9
			c-3,9,1,16.5,6,19.5s111.5,60,119.5,62s25,0.5,38.5-7.5s36-23,40.5-26.5s12.5-3.5,19.5-2s47.5,14.5,51.5,16
			c-5.2-3.7-187.5-89-196.8-93.5C452.3,226.7,427.2,215.3,413.7,214.6z M545.5,287.4c1.6,0.4,3.2,1,4.8,1.8c0.4,0.2,0.9,0.4,1.3,0.7
			c0.1,0.1,0.3,0.2,0.4,0.2c0.3,0.2,0.6,0.3,0.9,0.5c0.1,0.1,0.3,0.2,0.4,0.3c0.3,0.2,0.5,0.4,0.8,0.5c0.1,0.1,0.3,0.2,0.4,0.3
			c0.3,0.2,0.5,0.4,0.8,0.6c0.1,0.1,0.2,0.2,0.3,0.3c0.3,0.2,0.6,0.5,0.8,0.7c0.1,0.1,0.1,0.1,0.2,0.2c1.1,1,2,2.1,2.9,3.2
			c0,0,0,0,0,0c0,0,0,0,0,0c0.4,0.5,0.7,1,1,1.5c0,0,0.1,0.1,0.1,0.1c0.7,1,1.2,2,1.7,3.1c0,0.1,0.1,0.1,0.1,0.2
			c0.5,1.1,0.9,2.2,1.3,3.3c0,0.1,0,0.1,0.1,0.2c0.2,0.6,0.3,1.1,0.5,1.7c0,0,0,0,0,0c0.1,0.6,0.2,1.1,0.3,1.7c0,0.1,0,0.2,0,0.3
			c0.2,1.1,0.3,2.2,0.3,3.3c0,0.1,0,0.2,0,0.3c0,0.5,0,0.9,0,1.4c0,0.1,0,0.1,0,0.2c0,0.5-0.1,1.1-0.1,1.6c0,0.1,0,0.2,0,0.2
			c-0.1,0.4-0.1,0.9-0.2,1.3c0,0.1,0,0.3-0.1,0.4c-0.1,0.5-0.2,0.9-0.3,1.4c0,0.1,0,0.1,0,0.2c-0.1,0.5-0.3,1-0.5,1.5
			c0,0.1-0.1,0.3-0.1,0.4c-0.1,0.4-0.3,0.8-0.4,1.2c-0.1,0.1-0.1,0.3-0.2,0.4c-0.2,0.5-0.4,1-0.7,1.5L515.3,301
			c1.2-2.5,2.8-4.7,4.6-6.5C526.4,287.7,536.3,284.9,545.5,287.4z M496.9,263.4c1.6,0.4,3.2,1,4.8,1.8c0.4,0.2,0.9,0.4,1.3,0.7
			c0.1,0,0.1,0.1,0.2,0.1c0.4,0.2,0.7,0.4,1,0.6c0,0,0.1,0,0.1,0.1c0.4,0.2,0.7,0.5,1.1,0.8c0,0,0,0,0,0c0.4,0.3,0.8,0.6,1.1,0.9
			c0,0,0,0,0,0s0,0,0,0c1,0.8,2,1.7,2.8,2.7c0,0,0,0,0,0c0.9,0.9,1.7,2,2.4,3c0,0,0,0,0,0c0.7,1.1,1.3,2.2,1.9,3.3c0,0,0,0,0,0
			c0.5,1.1,1,2.3,1.4,3.5c0,0,0,0,0,0c0,0,0,0,0,0c0.1,0.4,0.2,0.8,0.3,1.2c0,0,0,0,0,0c0.1,0.4,0.2,0.8,0.3,1.2c0,0,0,0,0,0
			c0.1,0.4,0.2,0.8,0.2,1.2c0,0,0,0,0,0c0.1,0.4,0.1,0.8,0.2,1.2c0,0,0,0.1,0,0.1c0,0.4,0.1,0.8,0.1,1.1c0,0,0,0.1,0,0.1
			c0,0.4,0,0.7,0.1,1.1c0,0.1,0,0.1,0,0.2c0,0.4,0,0.7,0,1.1c0,0.1,0,0.1,0,0.2c0,0.3,0,0.7,0,1c0,0.1,0,0.2,0,0.3
			c0,0.3-0.1,0.6-0.1,0.9c0,0.1,0,0.2,0,0.3c0,0.3-0.1,0.6-0.1,0.9c0,0.1-0.1,0.3-0.1,0.4c-0.1,0.3-0.1,0.6-0.2,0.8
			c0,0.2-0.1,0.3-0.1,0.5c-0.1,0.3-0.1,0.5-0.2,0.8c0,0.2-0.1,0.4-0.2,0.5c-0.1,0.2-0.1,0.5-0.2,0.7c-0.1,0.2-0.1,0.4-0.2,0.6
			c-0.1,0.2-0.1,0.4-0.2,0.6c-0.1,0.3-0.2,0.5-0.3,0.7c-0.1,0.2-0.1,0.3-0.2,0.5c-0.2,0.4-0.4,0.8-0.6,1.2L466.7,277
			c1.2-2.5,2.8-4.7,4.6-6.5C477.8,263.7,487.6,260.9,496.9,263.4z M464,251.3c0.7,1.1,1.3,2.3,1.8,3.6c0,0,0,0,0,0c0,0,0,0,0,0
			c1,2.5,1.6,5.1,1.8,7.8c0,0.1,0,0.1,0,0.2c0,0.4,0,0.8,0.1,1.1c0,0.1,0,0.2,0,0.3c0,0.3,0,0.7,0,1c0,0.1,0,0.3,0,0.4
			c0,0.3,0,0.6-0.1,0.9c0,0.1,0,0.3,0,0.4c0,0.3-0.1,0.6-0.1,0.9c0,0.2,0,0.3-0.1,0.5c0,0.3-0.1,0.6-0.1,0.8c0,0.2-0.1,0.3-0.1,0.5
			c-0.1,0.3-0.1,0.5-0.2,0.8c0,0.2-0.1,0.3-0.1,0.5c-0.1,0.3-0.1,0.5-0.2,0.8c0,0.2-0.1,0.3-0.1,0.5c-0.1,0.3-0.2,0.5-0.3,0.8
			c-0.1,0.2-0.1,0.3-0.2,0.5c-0.1,0.3-0.2,0.6-0.3,0.9c-0.1,0.1-0.1,0.3-0.2,0.4c-0.2,0.4-0.4,0.8-0.6,1.3L418.2,253
			c0.3-0.6,0.6-1.1,0.9-1.6c0.2-0.3,0.4-0.6,0.6-0.9c0.1-0.2,0.2-0.4,0.4-0.5c0.3-0.4,0.6-0.8,0.9-1.2c0-0.1,0.1-0.1,0.1-0.2
			c0.6-0.7,1.1-1.4,1.8-2.1c5.9-6.1,14.4-8.9,22.7-7.6c0,0,0,0,0,0c0.5,0.1,0.9,0.2,1.4,0.3c0.5,0.1,1,0.2,1.5,0.3
			c1.6,0.4,3.2,1,4.8,1.8c0.7,0.4,1.4,0.7,2.1,1.2c0,0,0.1,0,0.1,0.1c0.6,0.4,1.1,0.7,1.7,1.1c0.1,0,0.1,0.1,0.2,0.1
			c1.1,0.8,2.1,1.7,3,2.6c0,0,0.1,0.1,0.1,0.1c0.5,0.5,0.9,1,1.3,1.5c0,0,0,0.1,0.1,0.1c0.8,1,1.6,2.1,2.3,3.2
			C463.9,251.2,464,251.2,464,251.3z"/>
		<path id="j3_x5F_9" class="st5" d="M493.8,237.4c-20.1-9.4-36.1-29.1-52.4-52.1C425,162.4,368,101.7,359,94
			c-3.5-3-7.5-6.1-11.5-8.5c1.5-3.5-14.6-9.8-20-1.1c-5.3,8.7-20.5,44.6-18.9,80.7c2.2-1.4,4.2-2.7,6-3.9c3.2-2.1,6.5-4,9.7-5.9
			c29.9-17.2,59-25.3,70.3-17.2c5.4,3.9,13.2,12.8,19.6,23.1c8.3,13.5,14.1,29.2,8.4,38.9c-2.4,4-5.6,9.3-9.2,15
			c0.1-0.1,0.2-0.3,0.3-0.4c13.5,0.7,38.6,12.1,49.2,17.9c9.2,4.5,191.5,89.8,196.8,93.5c4,1.5,9.5,7.5,11,12.5s8.5,26,9.5,30
			s7,8,8,0s3-22,4-25.5C668,317.4,526.7,252.8,493.8,237.4z"/>
		<path id="j3_x5F_8" class="st5" d="M161.1,318.2c-44.6-25.6-48.7-143.7-49-146.2s0.7-6.1,3.1-7.7c-2.2-3.5-5.5-7.8-9.9,10
			c-0.1,0.2-0.1,0.5-0.2,0.7c-2.3,0.2-4.1,1.4-4.5,3.2c-0.4,1.8,0.7,3.7,2.6,4.8c-0.5,2.1-1.1,4.4-1.7,7c-2,0.3-3.5,1.5-3.9,3.2
			c-0.4,1.6,0.5,3.3,2.1,4.5c-0.5,2.3-1.1,4.8-1.7,7.4c-1.7,0.4-3.1,1.5-3.4,3.1c-0.3,1.5,0.4,3.1,1.8,4.2c-0.6,2.5-1.2,5.1-1.8,7.8
			c-1.5,0.5-2.7,1.5-3,2.9c-0.3,1.4,0.3,2.9,1.5,4c-0.6,2.7-1.2,5.4-1.8,8.2c-1.4,0.5-2.4,1.5-2.7,2.8c-0.3,1.3,0.2,2.7,1.3,3.8
			c-9.9,46.7-21.5,107.8-24.8,152.7l0,0c7.5-8.2,24.2-28.9,39.1-46.2c7.4-8.5,14.3-16.3,19.5-21.3c7.7-7.5,22.3-11.8,37.8-8.8
			C161.4,318.4,161.3,318.3,161.1,318.2z"/>
		<path id="j3_x5F_7" class="st11" d="M394.7,138c-12.5-9-46.9,1.9-80,23.1c-1.8,1.2-3.8,2.5-6,3.9c-23.5,15.5-66,44.6-93.5,43.5
			c-28-1.2-60-40.5-72.5-52c-8.7-8-12.8-6.6-18.5-1.2c10.1,18.1,48.6,66,92.2,65.7c27.9-0.2,66.8-21.5,95.9-40.4l0,0
			c0.1,0,0.1-0.1,0.2-0.1c0.6-0.4,1.2-0.8,1.8-1.2c0.3-0.2,0.6-0.4,0.9-0.6c0.4-0.3,0.8-0.5,1.2-0.8c0.3-0.2,0.6-0.4,0.9-0.6
			c0.4-0.2,0.7-0.5,1.1-0.7c0.3-0.2,0.6-0.4,0.9-0.6c0.4-0.3,0.7-0.5,1.1-0.7c0.3-0.2,0.6-0.4,0.8-0.6c0.6-0.4,1.2-0.8,1.8-1.2
			c0.3-0.2,0.6-0.4,0.8-0.6c0.4-0.2,0.7-0.5,1.1-0.7c0.3-0.2,0.6-0.4,0.9-0.6c0.3-0.2,0.7-0.5,1-0.7c0.3-0.2,0.6-0.4,0.8-0.6
			c0.3-0.2,0.7-0.5,1-0.7c0.2-0.2,0.5-0.3,0.7-0.5c0.5-0.3,1-0.7,1.4-1c0.3-0.2,0.6-0.4,0.8-0.6c0.3-0.2,0.7-0.5,1-0.7
			c0.3-0.2,0.5-0.4,0.8-0.5c0.3-0.2,0.6-0.4,0.9-0.6c0.3-0.2,0.5-0.4,0.8-0.6c0.2-0.2,0.5-0.3,0.7-0.5c0.3-0.2,0.5-0.4,0.8-0.6
			c0.3-0.2,0.6-0.4,0.8-0.6c0.4-0.3,0.7-0.5,1.1-0.8c0.3-0.2,0.6-0.4,0.8-0.6c0.2-0.2,0.5-0.3,0.7-0.5c0.2-0.1,0.4-0.3,0.6-0.4
			c0.3-0.2,0.5-0.4,0.8-0.6c0.2-0.1,0.3-0.2,0.5-0.4c0.2-0.2,0.5-0.3,0.7-0.5c0.2-0.1,0.4-0.3,0.6-0.4c0.5-0.4,1.1-0.8,1.6-1.1
			c0,0,0,0,0.1,0c0.3-0.2,0.6-0.4,0.9-0.6c0,0,0.1-0.1,0.1-0.1c1.3-0.9,2.4-1.7,3.3-2.4c0,0,0,0,0,0c0.3-0.2,0.5-0.4,0.7-0.5
			c0.1-0.1,0.2-0.1,0.2-0.2c0.2-0.1,0.3-0.2,0.5-0.3c0.1-0.1,0.2-0.1,0.2-0.2c0.2-0.1,0.3-0.2,0.4-0.3c0.1,0,0.1-0.1,0.2-0.1
			c0.2-0.1,0.4-0.3,0.5-0.4c14.7-10.1,36.5-21.7,62.3,8.1C407.9,150.9,400.1,141.9,394.7,138z"/>
		<path id="j3_x5F_6" class="st6" d="M188.2,263.5c31.5-12.2,109.3-57.4,140.4-93.8c-4.9,3.4-10.4,7.1-16.3,10.9
			c-29.2,18.9-68,40.2-95.9,40.4c-43.6,0.3-82-47.6-92.2-65.7c-2.5,2.4-5.3,5.5-9,8.9c-2.3,1.6-3.3,5.2-3.1,7.7
			c0.1,1.4,1.5,38.2,10.2,75.2C138.7,260,156.7,275.8,188.2,263.5z"/>
		<path id="j3_x5F_5" class="st10" d="M182.4,327.3c-6.8-4.6-14-7.4-20.9-8.8c-15.5-3-30.1,1.3-37.8,8.8c-0.4,0.4-0.9,0.9-1.4,1.3
			c-0.1,0.1-0.2,0.2-0.3,0.4c-0.5,0.5-0.9,0.9-1.4,1.4c0,0.1-0.1,0.1-0.1,0.2c-0.4,0.5-0.9,0.9-1.3,1.4c-0.1,0.2-0.3,0.3-0.5,0.5
			c-0.5,0.5-1,1-1.5,1.6c-0.1,0.1-0.3,0.3-0.4,0.4c-0.4,0.4-0.8,0.8-1.2,1.3c-0.2,0.2-0.4,0.5-0.6,0.7c-0.4,0.4-0.8,0.9-1.2,1.3
			c-0.3,0.4-0.7,0.7-1,1.1c-0.3,0.3-0.6,0.6-0.8,0.9c-0.3,0.3-0.6,0.7-0.9,1c-0.2,0.2-0.4,0.5-0.6,0.7c-0.6,0.7-1.2,1.4-1.9,2.1
			c-0.1,0.1-0.3,0.3-0.4,0.4c-1.2,1.4-2.5,2.9-3.8,4.4c-0.1,0.1-0.1,0.1-0.2,0.2v0c-14.9,17.3-31.6,38-39.1,46.2l0,0
			c-1.2,16.4-1.3,30.7,0.2,41.3c2.4-0.3,5-0.2,6.8-0.7c6.3-1.6,7.8-6.8,20.3-12c2.7-1.1,7.7-1.5,14.3-1.4c0.6,0,1.1,0,1.7,0
			c0.3,0,0.6,0,1,0c0.4,0,0.9,0,1.3,0.1c0.3,0,0.7,0,1,0.1c0.5,0,1,0.1,1.5,0.1c0.4,0,0.7,0,1.1,0.1c0.7,0,1.4,0.1,2.1,0.1
			c0.4,0,0.7,0.1,1.1,0.1c0.5,0,1,0.1,1.5,0.1c0.4,0,0.8,0.1,1.2,0.1c0.6,0,1.1,0.1,1.7,0.2c0.5,0,0.9,0.1,1.4,0.1
			c0.7,0.1,1.4,0.1,2.2,0.2c0.4,0,0.8,0.1,1.2,0.1c0.5,0.1,1.1,0.1,1.7,0.2c0.4,0,0.8,0.1,1.3,0.1c0.6,0.1,1.3,0.1,1.9,0.2
			c0.4,0,0.8,0.1,1.3,0.1c0.8,0.1,1.6,0.2,2.5,0.3c0.4,0.1,0.9,0.1,1.3,0.2c0.6,0.1,1.2,0.2,1.8,0.2c0.4,0.1,0.9,0.1,1.3,0.2
			c0.7,0.1,1.5,0.2,2.2,0.3c0.3,0,0.7,0.1,1,0.1c0.9,0.1,1.8,0.3,2.8,0.4c0.4,0.1,0.8,0.1,1.2,0.2c0.7,0.1,1.3,0.2,2,0.3
			c0.4,0.1,0.8,0.1,1.2,0.2c0.8,0.1,1.7,0.2,2.5,0.4c0.3,0,0.5,0.1,0.8,0.1c1,0.2,2,0.3,3,0.5c0.4,0.1,0.8,0.1,1.1,0.2
			c0.7,0.1,1.5,0.2,2.2,0.3c0.4,0.1,0.7,0.1,1.1,0.2c0.9,0.1,1.9,0.3,2.8,0.5c0.2,0,0.3,0,0.5,0.1c1.1,0.2,2.1,0.3,3.1,0.5
			c0.3,0.1,0.7,0.1,1,0.2c0.8,0.1,1.6,0.3,2.4,0.4c0.3,0.1,0.7,0.1,1,0.2c1,0.2,2.1,0.4,3.1,0.5c0,0,0.1,0,0.1,0
			c1.1,0.2,2.1,0.4,3.2,0.6c0.3,0.1,0.6,0.1,0.9,0.2c0.8,0.1,1.6,0.3,2.4,0.4c0.3,0.1,0.6,0.1,0.9,0.2c1.1,0.2,2.1,0.4,3.1,0.6
			c16.7,3,31.6,6,40.8,8.1c29.7,6.7,135.4,33.4,166,41C380.8,471.7,204.4,342.3,182.4,327.3z"/>
		<path id="j3_x5F_4" class="st5" d="M760.9,359c-30.8-4-59.7-12.5-68.7-16c-1,3.5-3,17.5-4,25.5s-7,4-8,0s-8-25-9.5-30
			s-7-11-11-12.5s-44.5-14.5-51.5-16s-15-1.5-19.5,2s-27,18.5-40.5,26.5s-30.5,9.5-38.5,7.5c-8-2-114.5-59-119.5-62s-9-10.5-6-19.5
			c0.1-0.3,0.2-0.6,0.3-0.9c0,0,0-0.1,0-0.1c0.1-0.3,0.3-0.6,0.4-1c0-0.1,0.1-0.1,0.1-0.2c0.2-0.4,0.3-0.7,0.5-1.1
			c0-0.1,0.1-0.1,0.1-0.2c0.2-0.4,0.4-0.9,0.7-1.3c0,0,0,0,0,0c0.2-0.5,0.5-1,0.8-1.5c0,0,0,0,0-0.1c0.3-0.5,0.6-1,0.9-1.6
			c0,0,0.1-0.1,0.1-0.1c0.3-0.5,0.6-1.1,0.9-1.7c0,0,0.1-0.1,0.1-0.1c0.3-0.6,0.7-1.2,1.1-1.8c3.9-6.7,9-15,14.3-23.4
			c3.1-5,6.3-10,9.2-14.7c3.5-5.6,6.6-10.7,9-14.6c5.7-9.6-0.1-25.4-8.4-38.9c-25.7-29.8-47.6-18.2-62.3-8.1
			c-3.1,2.1-11.7,8.6-23.4,16.7c-31.1,36.4-108.9,81.6-140.4,93.8c-31.5,12.2-49.5-3.5-65.8-16.3c7,29.7,18.9,59.6,38.8,71
			c0.1,0.1,0.3,0.2,0.4,0.3c7,1.3,14.1,4.2,20.9,8.8c8.1,5.5,37,26.5,70.9,51.2c60,10.2,192.8,40.9,255,44.8
			c140.9,9,294.7-31.9,359.1-52.2C834.2,361.7,784.2,362.1,760.9,359z"/>
		<path id="j3_x5F_3" class="st7" d="M933.2,453.3c-26.1,11.5-133.1,54.6-174.3,73.5c-43.8,20-130.8,25.8-170.8,27.2
			s-231,0.2-266.5,1.8S193,557.4,158.4,553c-10.3-1.3-11.5-9-13.2-13.5s-6.2-9.2-12-10.5c-5.7-1.2-63.9-4.3-77.6-14.3
			c-0.1,1.9-0.2,3.4-0.3,4.3c-0.7,8-1.3,18,8.3,22.7c1.1,0.5,2.6,1.2,4.6,2.1c1.4,0.6,3,1.3,4.8,2c4.8,1.9,11,4.3,18.3,6.7
			c2.2,0.7,4.4,1.4,6.8,2.2c5.8,1.8,12,3.5,18.6,5.1c2.6,0.6,5.3,1.2,8,1.8c15,3.2,31.5,5.5,48.2,5.6c16.4,0.1,63.4,0.2,120.3,0.2
			c2.1,0,4.1,0,6.2,0c94.5,0.1,213.8,0.1,266.9,0.1c8.8,0,15.8,0,20.5,0c2.6,0,4.6,0,5.8,0c1.9,0,4.4-0.1,7.3-0.2
			c2.2-0.1,4.6-0.2,7.3-0.3c11.3-0.5,26.7-1.5,43.9-2.9c2.2-0.2,4.4-0.4,6.7-0.5c12-1,24.7-2.2,37.3-3.5c2.3-0.2,4.6-0.5,6.9-0.7
			c4.6-0.5,9.2-1,13.7-1.6c2.9-0.3,5.8-0.7,8.6-1.1c13.1-1.7,25.5-3.5,36.3-5.5c3.1-0.6,6-1.1,8.8-1.7c2.7-0.6,5.3-1.1,7.7-1.7
			c6.7-1.6,14.2-3.4,22.1-5.2c3-0.7,6-1.4,9.1-2.1c8.6-2,17.6-4.2,26.6-6.4c3-0.7,6-1.5,9-2.2c43.1-10.9,84.8-23.7,89.3-36.4
			C937.7,483.3,935.8,466.3,933.2,453.3z"/>
		<path id="j3_x5F_2" class="st5" d="M401.4,518c-7.3-1.2-35.7-3.3-69.5-5.6c2.3,1.4,3.9,4,3.9,7c0,4.5-3.7,8.2-8.2,8.2H203.3
			c-6.7,0-12.2-5.5-12.2-12.2c0-4.9,2.9-9.1,7.1-11.1c-1.5-0.1-2.9-0.1-4-0.2c-26.8-1-108.8-6.8-126.8-10.7
			c-7.7-1.6-9.5-4.3-10.6-8.2l0,0c-0.4,11.8-0.8,23.1-1.1,29.4c13.7,10,71.8,13,77.6,14.3c5.8,1.2,10.2,6,12,10.5s3,12.2,13.2,13.5
			c34.6,4.3,127.8,4.2,163.2,2.8s226.5-0.2,266.5-1.8c10-0.4,22.9-1,37.4-2.1c3.4-4.1,14.5-19.1,23.6-31.3
			C620.5,532.8,451.7,525.7,401.4,518z"/>
		<path id="j3_x5F_1" class="st6" d="M637.4,505.5c-0.6,0-1.3-0.1-2-0.1c0,0,0,0,0,0c-3.9-0.2-7.9-0.6-12.1-1.2
			c-0.1,0-0.3,0-0.4-0.1c-0.5-0.1-1.1-0.2-1.6-0.3c-0.2,0-0.4-0.1-0.6-0.1c-0.5-0.1-1-0.2-1.4-0.3c-0.2,0-0.5-0.1-0.7-0.1
			c-0.4-0.1-0.9-0.2-1.3-0.3c-0.3-0.1-0.5-0.1-0.8-0.2c-0.4-0.1-0.9-0.2-1.3-0.3c-0.3-0.1-0.5-0.1-0.8-0.2c-0.4-0.1-0.8-0.2-1.3-0.3
			c-0.3-0.1-0.6-0.1-0.8-0.2c-0.4-0.1-0.8-0.2-1.3-0.4c-0.3-0.1-0.6-0.2-0.9-0.2c-0.4-0.1-0.9-0.3-1.3-0.4c-0.3-0.1-0.5-0.2-0.8-0.3
			c-0.5-0.2-1-0.3-1.4-0.5c-0.2-0.1-0.5-0.2-0.7-0.2c-0.7-0.3-1.4-0.5-2.2-0.8c-22-8.3-75.3-34.4-113-32.8
			c-64.5,2.6-81.5,19.3-98.3,15.2c0,0.1,0,0.3,0,0.5c0,0,0,0,0,0c0-0.2,0-0.3,0-0.5c-30.6-7.6-136.3-34.3-166-41
			c-9.2-2.1-24.1-5.1-40.8-8.1c-27.7-5-60.3-9.9-79.3-10.3c-6.4-0.1-11.3,0.3-13.9,1.4c-12.6,5.2-14,10.4-20.3,12
			c-1.8,0.5-4.3,0.4-6.8,0.7c-3.9,0.5-7.6,2.2-7.5,9c0,3.3-0.1,9.5-0.3,17c-0.2,7.1-0.4,15.4-0.7,23.4l0,0c1.1,3.8,2.9,6.5,10.6,8.2
			c18,3.8,100,9.7,126.8,10.7c1.1,0,2.5,0.1,4,0.2c21.5,1,83.5,4.6,133.7,8.1v0c33.7,2.3,62.1,4.5,69.5,5.6c-0.2-0.6-0.2-0.6,0,0
			c50.3,7.7,219.1,14.8,247.9,2.6c1.4-1.9,2.8-3.8,4.2-5.6c0.4-0.5,0.7-0.9,1-1.4c0,0,0.1-0.1,0.1-0.1c0.4-0.5,0.7-1,1.1-1.4
			c0.1-0.1,0.1-0.2,0.2-0.2c0.3-0.4,0.6-0.8,0.9-1.2c0-0.1,0.1-0.1,0.1-0.2c0.3-0.4,0.7-0.9,1-1.3c0,0,0.1-0.1,0.1-0.1
			c0.3-0.4,0.5-0.7,0.8-1c0.1-0.1,0.1-0.2,0.2-0.3c0.3-0.3,0.5-0.7,0.8-1c0-0.1,0.1-0.1,0.1-0.1c0.2-0.3,0.4-0.5,0.6-0.7
			c0.1-0.1,0.1-0.1,0.2-0.2c0.2-0.3,0.4-0.5,0.6-0.7C654,505.3,646.1,505.9,637.4,505.5z"/>
	</g>
</g>
<g id="jordan2" class="st0">
	<g id="shapes_1_" class="st1">
		<path id="j2_x5F_18" class="st12" d="M111.4,269.5c0-0.3,0-0.5,0.1-0.8c0,0,0,0,0,0c-2.1-0.8-4.3-1.5-6.3-2.1c0,0,0,0-0.1,0
			c-2.5-0.7-4.8-1.2-6.4-1.2c-6.4,0.1-5.2,5.4-2.8,7.8s3.8,6.9-2.6,8s-4.2,5.5-1,7.1s2.6,5.6-3.8,6.2s-5,6.8-1,8s2.4,6.9-2.8,7.9
			s-5.5,5.2-1.8,6.9s9,5.1,2.5,10s-1.8,10,1.5,8l0,0c6.3-9.2,13.2-14.3,20-16.4c0.6-0.2,1.1-0.3,1.7-0.4c0,0,0.1,0,0.1,0
			c0.5-0.1,1-0.2,1.5-0.3c-0.3-2.5-0.5-7.6-0.4-14.4C109.9,294.8,110.3,282.7,111.4,269.5z"/>
		<path id="j2_x5F_17" class="st5" d="M651.6,329.9c-0.3-0.2-0.7-0.3-1-0.5c-5.5-2.2-11.4-1.8-16.4,0.5c-4.6,2.1-8.4,5.9-10.4,11
			l38.2,15.3C666.1,345.9,661.4,334.4,651.6,329.9z M651.9,340.9c-1.1,2.8-4.4,4.2-7.2,3.1c-1.7-0.7-2.9-2.1-3.3-3.8
			c-0.3-1.1-0.2-2.3,0.2-3.4c1.1-2.8,4.4-4.2,7.2-3.1c1.5,0.6,2.6,1.8,3.1,3.2C652.4,338.1,652.5,339.5,651.9,340.9z"/>
		<path id="j2_x5F_16" class="st5" d="M597.6,308.6C597.6,308.6,597.5,308.6,597.6,308.6c-5.8-2.3-12.1-1.8-17.2,0.8
			c-4.2,2.2-7.7,5.8-9.6,10.6l38.2,15.3C613.2,324.8,608.1,312.9,597.6,308.6z M598.9,320.1c-1.1,2.8-4.4,4.2-7.2,3.1
			c-1.9-0.8-3.2-2.5-3.4-4.4c-0.1-0.9,0-1.9,0.3-2.8c1.1-2.8,4.4-4.2,7.2-3.1c1,0.4,1.9,1.1,2.4,1.9
			C599.3,316.3,599.6,318.3,598.9,320.1z"/>
		<path id="j2_x5F_15" class="st5" d="M544.7,287.7c-1.3-0.5-2.6-0.9-3.9-1.1c-7.4-1.4-15,1.4-19.7,7.2c-1.3,1.6-2.4,3.4-3.2,5.4
			l38.2,15.3C560.4,303.9,555.3,292,544.7,287.7z M545.1,298.2c-1.1,2.8-4.4,4.2-7.2,3.1s-4.2-4.4-3.1-7.2s4.4-4.2,7.2-3.1
			C544.9,292.1,546.3,295.4,545.1,298.2z"/>
		<path id="j2_x5F_14" d="M345,537.3c0.1,0,0.1,0,0.2,0c0.4,0,0.9,0,1.3,0c0.2,0,0.3,0,0.5,0c0.3,0,0.6,0,0.9,0c0.2,0,0.4,0,0.5,0
			c0.3,0,0.5,0,0.7,0c0.1,0,0.2,0,0.3,0c0.7,0,1.3,0,1.7,0c0.9,0,1.8,0.1,2.7,0.1c0.2,0,0.3,0,0.5,0c0.9,0.1,1.8,0.1,2.8,0.2
			c0.2,0,0.4,0,0.5,0.1c1,0.1,2,0.2,3,0.3c0.1,0,0.1,0,0.2,0c1,0.1,2.1,0.3,3.1,0.4c0.1,0,0.2,0,0.3,0c1.1,0.2,2.2,0.3,3.3,0.5
			c0.1,0,0.3,0,0.4,0.1c1.1,0.2,2.3,0.4,3.4,0.6c0,0,0.1,0,0.1,0c2.5,0.4,4.9,0.9,7.5,1.4c0,0,0,0,0,0l0,0
			c13.7,2.7,27.6,6.1,36.8,7.2c6.4,0.8,20.3,1.9,38.4,3c3.4,0.2,6.9,0.4,10.6,0.6c0,0,0.1,0,0.1,0c1.8,0.1,3.7,0.2,5.5,0.3
			c0,0,0,0,0.1,0c1.9,0.1,3.8,0.2,5.7,0.3c0,0,0.1,0,0.1,0c1.9,0.1,3.8,0.2,5.8,0.3c0.1,0,0.2,0,0.3,0c3.9,0.2,8,0.4,12,0.5
			c0.1,0,0.3,0,0.4,0c2,0.1,4,0.2,6,0.2c0.1,0,0.2,0,0.3,0c2.1,0.1,4.1,0.2,6.2,0.2c0.1,0,0.2,0,0.4,0c2,0.1,4,0.1,6,0.2
			c0.2,0,0.3,0,0.5,0c2.1,0.1,4.2,0.1,6.4,0.2c0,0,0,0,0,0c2.1,0.1,4.3,0.1,6.4,0.2c0.2,0,0.4,0,0.5,0c2,0.1,4.1,0.1,6.2,0.1
			c0.1,0,0.3,0,0.4,0c2.1,0,4.3,0.1,6.4,0.1c0.1,0,0.2,0,0.4,0c2.1,0,4.1,0.1,6.2,0.1c0.2,0,0.4,0,0.5,0c2.2,0,4.3,0.1,6.5,0.1
			c59.7,0.7,159.7-8.3,219.7-23.3c2.1-0.5,4.2-1.1,6.3-1.6c0.2,0,0.4-0.1,0.6-0.1c2-0.5,4-1,6-1.6c0.2-0.1,0.4-0.1,0.6-0.2
			c2.1-0.6,4.2-1.1,6.4-1.7c0.1,0,0.1,0,0.2,0c2.2-0.6,4.4-1.2,6.6-1.9c0.2,0,0.3-0.1,0.5-0.1c2.1-0.6,4.2-1.2,6.2-1.8
			c0.2-0.1,0.4-0.1,0.6-0.2c2.1-0.6,4.2-1.3,6.4-1.9c0.1,0,0.2-0.1,0.3-0.1c2.2-0.7,4.4-1.4,6.6-2.1c0.1,0,0.3-0.1,0.4-0.1
			c2.1-0.7,4.2-1.3,6.3-2c0.2-0.1,0.4-0.1,0.6-0.2c2.1-0.7,4.2-1.4,6.3-2.1c0.1,0,0.3-0.1,0.4-0.1c2.2-0.7,4.4-1.5,6.5-2.2
			c0.1,0,0.1-0.1,0.2-0.1c2.1-0.7,4.2-1.5,6.3-2.2c0.2-0.1,0.4-0.1,0.6-0.2c2-0.7,4-1.5,6-2.2c0.2-0.1,0.3-0.1,0.5-0.2
			c2.1-0.8,4.2-1.6,6.3-2.4c0,0,0,0,0,0c2-0.8,4.1-1.6,6.1-2.4c0.2-0.1,0.3-0.1,0.5-0.2c1.9-0.8,3.8-1.5,5.6-2.3
			c0.2-0.1,0.3-0.1,0.5-0.2c2-0.8,3.9-1.7,5.8-2.5c0,0,0,0,0,0c0.2-0.1,0.4-0.2,0.7-0.3c0.6-0.3,1.1-0.5,1.7-0.8
			c0.3-0.1,0.6-0.3,0.9-0.4c0.5-0.2,0.9-0.4,1.4-0.6c0.3-0.2,0.7-0.3,1-0.5c0.4-0.2,0.9-0.4,1.3-0.6c0.3-0.1,0.6-0.3,1-0.4
			c0.5-0.2,0.9-0.4,1.3-0.6c0.3-0.1,0.6-0.3,0.9-0.4c0.5-0.3,1.1-0.5,1.6-0.8c0.2-0.1,0.4-0.2,0.6-0.3c0.7-0.3,1.4-0.7,2.1-1
			c0.3-0.1,0.5-0.3,0.8-0.4c0.4-0.2,0.9-0.5,1.3-0.7c0.3-0.1,0.6-0.3,0.9-0.4c0.4-0.2,0.8-0.4,1.2-0.6c0.3-0.2,0.6-0.3,0.9-0.5
			c0.4-0.2,0.8-0.4,1.2-0.6c0.3-0.1,0.5-0.3,0.8-0.4c0.4-0.2,0.9-0.5,1.3-0.7c0.2-0.1,0.4-0.2,0.7-0.4c0.6-0.4,1.2-0.7,1.9-1.1
			c0.2-0.1,0.3-0.2,0.5-0.3c0.5-0.3,0.9-0.5,1.4-0.8c0.2-0.1,0.5-0.3,0.7-0.4c0.4-0.2,0.7-0.5,1.1-0.7c0.2-0.1,0.5-0.3,0.7-0.4
			c0.4-0.2,0.7-0.4,1.1-0.7c0.2-0.1,0.5-0.3,0.7-0.4c0.4-0.2,0.7-0.5,1.1-0.7c0.2-0.1,0.4-0.3,0.6-0.4c0.5-0.3,0.9-0.6,1.4-0.9
			c0.1-0.1,0.2-0.1,0.2-0.2c0.5-0.4,1-0.7,1.5-1.1c0.2-0.1,0.3-0.2,0.5-0.4c0.3-0.2,0.7-0.5,1-0.7c0.2-0.1,0.4-0.3,0.6-0.4
			c0.3-0.2,0.6-0.5,0.9-0.7c0.2-0.1,0.4-0.3,0.5-0.4c0.3-0.2,0.6-0.5,0.9-0.7c0.2-0.1,0.3-0.3,0.5-0.4c0.3-0.3,0.6-0.5,1-0.8
			c0.1-0.1,0.2-0.2,0.3-0.3c0.4-0.4,0.8-0.7,1.2-1.1c0.1-0.1,0.2-0.2,0.3-0.3c0.3-0.3,0.6-0.6,0.9-0.8c0.1-0.1,0.3-0.3,0.4-0.4
			c0.2-0.2,0.5-0.5,0.7-0.7c0.1-0.1,0.3-0.3,0.4-0.4c0.2-0.2,0.4-0.5,0.6-0.7c0.1-0.1,0.2-0.3,0.4-0.4c0.2-0.2,0.4-0.5,0.6-0.7
			c0.1-0.1,0.2-0.2,0.3-0.3c0.3-0.4,0.6-0.7,0.9-1.1c-0.1-6-0.2-11.4-0.5-14.4c-0.5-5.4-3.1-7.3-5.2-8.1
			c-2.2,13.6-22.3,23.7-52.3,34.6C808.8,500,717.5,504,646,499.7c-14.8-0.9-36.9-3.6-61.8-7.1c-58.1-8.2-132-20.7-167.7-24.9
			c-17-2-42.8-3.8-70-5.2c-54.2-2.9-114.2-4.5-122.7-4.5c-34.3,0-143,5.1-151.5-5.5c-0.6-0.7-1-1.8-1.5-3.1l0,0
			c-4.5,2.2-8.3,6.7-5.6,15.7c2.7,9,5.6,39.1,7,46.7c0.7,3.7,1.6,7.9,3.4,12c26.7,16.7,70.8,19.7,83.7,18.7c3-0.2,7.8-0.4,9.8-2.8
			c2.1-2.4,3.3-3.6,3.9-4.2c1.2-1.2,2.8-2.8,5.8-2.8c2.6,0,120.4,3.4,160.7,4.4l0,0C341.6,537.2,343.4,537.2,345,537.3z"/>
		<path id="j2_x5F_13" class="st5" d="M881.8,380.5c1.2,0.5,2.3,0.9,3.1,1.3c28.8,15.3-7.3,35.2-47,46.7c0,0,0,0,0,0l-1,0.3
			c-0.3,0.1-0.6,0.2-1,0.3c-0.3,0.1-0.7,0.2-1,0.3c-1.3,0.4-2.6,0.7-3.9,1.1l0,0c-1.3,0.4-2.7,0.7-4,1c-0.5,0.1-1,0.2-1.5,0.4
			c-5.2,1.3-10.4,2.4-15.4,3.3c-4.6,0.8-9,1.5-13.1,2c-46.7,5.3-151,2.7-189,2.7c-28.3,0-120.9-2-182.8-5.2v0
			c-1.3-0.1-2.6-0.1-3.9-0.2c0,0,0,0,0,0c-5.1-0.3-10-0.6-14.6-0.9c-0.1,0-0.1,0-0.2,0c-1.1-0.1-2.1-0.1-3.1-0.2c-0.1,0-0.2,0-0.3,0
			c-1-0.1-2-0.1-2.9-0.2c-0.1,0-0.3,0-0.4,0c-0.9-0.1-1.8-0.1-2.7-0.2c-0.2,0-0.3,0-0.5,0c-0.8-0.1-1.6-0.1-2.5-0.2
			c-0.2,0-0.4,0-0.6,0c-0.8-0.1-1.5-0.1-2.3-0.2c-0.2,0-0.4,0-0.6-0.1c-0.7-0.1-1.4-0.1-2.1-0.2c-0.2,0-0.5,0-0.7-0.1
			c-0.7-0.1-1.3-0.1-1.9-0.2c-0.2,0-0.5,0-0.7-0.1c-0.6-0.1-1.2-0.1-1.8-0.2c-0.2,0-0.5,0-0.7-0.1c-0.6-0.1-1.1-0.1-1.7-0.2
			c-0.2,0-0.5,0-0.7-0.1c-0.6-0.1-1.1-0.1-1.6-0.2c-0.2,0-0.4,0-0.5-0.1c-0.7-0.1-1.4-0.2-2-0.3c0,0,0,0,0,0c0,0,0,0,0,0
			c11.3,2.7,23,5.4,35.1,7.9c2.6,0.5,5.1,1,7.7,1.6v0c7.3,1.5,14.6,3,21.7,4.4c1.3,0.3,2.6,0.5,4,0.8c1.6,0.3,3.1,0.6,4.7,1
			c61.5,12.5,111.6,22.5,120.5,25c10.7,3,14.2,11.7,14.5,21.2c24.9,3.5,46.9,6.2,61.8,7.1c71.5,4.2,162.8,0.2,225-22.2
			c30-10.8,50.1-20.9,52.3-34.6C924.5,406.6,904.3,386.5,881.8,380.5z"/>
		<path id="j2_x5F_12" class="st5" d="M884.9,381.8c-0.8-0.4-1.9-0.9-3.1-1.3c0,0,0,0,0,0l0,0c-23.7-8.6-118.7-19.3-145.6-22.7
			c-1.9-0.2-4.2-0.7-6.9-1.4c-0.8-0.2-1.7-0.4-2.6-0.7c0,0-0.1,0-0.1,0c-0.5-0.1-1-0.3-1.5-0.4c-4-1.1-8.7-2.6-13.8-4.3
			c-0.4-0.1-0.7-0.3-1.1-0.4c-0.4-0.1-0.8-0.3-1.2-0.4c-0.2-0.1-0.4-0.1-0.5-0.2c-0.5-0.2-0.9-0.3-1.4-0.5c-0.4-0.1-0.7-0.3-1.1-0.4
			c-5.9-2.1-12.4-4.5-19.4-7.2c0,0-0.1,0-0.1-0.1c-6.9-2.7-14.3-5.6-22-8.8C617.2,313.9,557.9,287,513.7,266c-0.5-0.2-1-0.5-1.5-0.7
			c0,0-3.1-1.6-5.1-2.4c-3.2,2.4-7.1,5.2-10.2,7.5l-24.4,18.3l-31.2,23.9c-5.3,4.2-22.2,19.3-19,35.6c0.1,0.7,0.3,1.4,0.5,2
			c0,0.1,0.1,0.3,0.1,0.4l0,0.1c0.1,0.2,0.1,0.3,0.2,0.5c0,0.1,0,0.1,0.1,0.2v0.1l0.2,0.4c0.2,0.5,0.4,0.9,0.6,1.4
			c0.1,0.2,0.2,0.4,0.3,0.6l0.3,0.6c0.2,0.3,0.3,0.6,0.5,0.9l0.2,0.4c0.5,0.7,1,1.5,1.6,2.2c0.1,0.1,0.2,0.2,0.3,0.3l0.9,1.1h0
			c0.2,0.2,0.3,0.4,0.5,0.6c0.2,0.2,0.3,0.3,0.5,0.5c0.2,0.2,0.3,0.3,0.5,0.5c0.2,0.2,0.3,0.3,0.5,0.5c0.3,0.3,0.6,0.5,0.9,0.8
			l0.1,0.1c0.2,0.2,0.4,0.3,0.6,0.5l0,0c0,0,0.1,0.1,0.1,0.1l0,0l0.2,0.1c0.4,0.3,0.9,0.7,1.4,1c0.1,0.1,0.2,0.2,0.3,0.2l0.2,0.1
			c0.3,0.2,0.5,0.4,0.8,0.5l0.6,0.4c0.7,0.5,1.5,0.9,2.2,1.3l0.3,0.2c0.4,0.2,0.8,0.5,1.2,0.7l0.4,0.2c0.5,0.3,1.1,0.6,1.7,0.9
			l0.2,0.1c1.1,0.5,2.2,1,3.4,1.5l0.4,0.1l0.4,0.2c1.1,0.5,2.3,0.9,3.6,1.4l0.2,0.1c0.4,0.1,0.8,0.3,1.2,0.4l0.8,0.3
			c0.1,0,0.1,0,0.2,0.1l0.2,0.1h0c0.3,0.1,0.6,0.2,0.9,0.3l0.5,0.2c0.8,0.2,1.6,0.5,2.4,0.7l0.1,0c0.7,0.2,1.5,0.4,2.3,0.6l1.3,0.4
			l20.2,4.7c2,0.4,4,0.8,6,1.2l0.1,0c79.3,16.1,250.6,40.7,278.4,43.8c13.3,1.5,26.3,2.3,37.8,3.1c11.3,0.7,23.9,1.6,29.2,2.8
			c1.3-0.3,2.6-0.7,3.9-1.1c0.3-0.1,0.7-0.2,1-0.3l1-0.3c0.3-0.1,0.7-0.2,1-0.3c0,0,0,0,0,0l1.1-0.3c0,0,0.1,0,0.1,0
			C878.3,416.6,913.4,397,884.9,381.8z M556.2,314.5L518,299.2c0.8-2,1.9-3.8,3.2-5.4c4.7-5.7,12.3-8.6,19.7-7.2
			c1.3,0.2,2.6,0.6,3.9,1.1C555.3,292,560.4,303.9,556.2,314.5z M609,335.4l-38.2-15.3c1.9-4.8,5.4-8.4,9.6-10.6
			c5.1-2.7,11.4-3.2,17.1-0.9c0,0,0,0,0,0C608.1,312.9,613.2,324.8,609,335.4z M662,356.2l-38.2-15.3c2-5.1,5.8-8.8,10.4-11
			c5-2.3,10.9-2.7,16.4-0.5c0.4,0.1,0.7,0.3,1,0.5C661.4,334.4,666.1,345.9,662,356.2z"/>
		<path id="j1_x5F_11" d="M818.4,433.4c1.4-0.3,2.8-0.6,4.1-0.9c0.1,0,0.2,0,0.3-0.1c0.8-0.2,1.7-0.4,2.5-0.6
			c-1.4-0.1-2.8-0.5-5.2-0.8c-2.6-0.2-5.4-0.5-8.3-0.7c-4-0.3-7.8-0.5-10.2-0.7c-11.5-0.8-24.6-1.6-37.9-3.1
			c-27.8-3.1-199.2-27.7-278.6-43.8l-0.2,0c-2-0.4-4-0.8-6-1.2l-20.2-4.7l0,0l0,0l-1.3-0.4c-0.8-0.2-1.6-0.4-2.3-0.7l-0.1,0
			c-0.8-0.2-1.6-0.5-2.4-0.7l-0.6-0.2c-0.2-0.1-0.4-0.1-0.6-0.2l-0.3-0.1l-0.2-0.1l-0.1,0l-0.1,0l-0.8-0.3c-0.4-0.1-0.8-0.3-1.2-0.4
			l-0.2-0.1c-1.3-0.5-2.5-0.9-3.7-1.4l-0.4-0.2l-0.4-0.2c-1.2-0.5-2.4-1-3.5-1.6l-0.2-0.1c-0.6-0.3-1.2-0.6-1.7-0.9l-0.4-0.2
			c-0.4-0.2-0.9-0.5-1.3-0.7l-0.3-0.2c-0.8-0.4-1.5-0.9-2.3-1.4l-0.6-0.4c-0.3-0.2-0.6-0.4-0.8-0.6l-0.2-0.1
			c-0.1-0.1-0.2-0.2-0.4-0.3c-0.4-0.3-0.9-0.7-1.4-1.1l-0.2-0.1c0,0-0.1-0.1-0.1-0.1l0,0c-0.2-0.2-0.4-0.3-0.6-0.5l0,0l-0.4-0.3l0,0
			c-0.3-0.2-0.5-0.4-0.7-0.6c-0.2-0.2-0.3-0.3-0.5-0.5c-0.2-0.2-0.3-0.3-0.5-0.5c-0.1-0.1-0.3-0.3-0.4-0.5h-0.1l-0.6-0.7l-0.9-1.1
			c-0.1-0.1-0.2-0.2-0.3-0.4c-0.6-0.7-1.2-1.5-1.7-2.3l-0.2-0.4c-0.2-0.3-0.4-0.6-0.6-1l-0.3-0.6c-0.1-0.3-0.2-0.5-0.3-0.7
			c-0.2-0.5-0.4-1-0.6-1.4l-0.2-0.4l-0.2-0.4v-0.2c0-0.1-0.1-0.2-0.1-0.4l-0.1-0.2c-0.1-0.2-0.1-0.3-0.2-0.5
			c-0.2-0.7-0.4-1.5-0.5-2.2c-3.4-17.4,14.2-33.2,19.7-37.6l31.2-23.9l24.5-18.3c1.9-1.4,4.2-3.1,6.5-4.8c0.4-0.3,0.7-0.5,1.1-0.8
			c-1.1-0.5-2.1-1-3.2-1.5c-0.3-0.1-0.6-0.3-0.9-0.4c-0.8-0.4-1.6-0.8-2.3-1.1c-0.3-0.1-0.6-0.3-0.8-0.4c-0.9-0.4-1.7-0.8-2.5-1.2
			c-0.2-0.1-0.3-0.2-0.5-0.2c-1-0.5-2-1-3-1.5c-0.1,0-0.1-0.1-0.2-0.1c-0.9-0.4-1.8-0.9-2.7-1.3c-0.2-0.1-0.3-0.2-0.5-0.3
			c-0.8-0.4-1.7-0.8-2.5-1.2c-0.1-0.1-0.2-0.1-0.4-0.2c-1.9-0.9-3.8-1.9-5.6-2.8c0,0,0,0,0,0c0,0,0,0,0,0c-1-0.5-1.9-1-2.9-1.4
			c-0.1,0-0.2-0.1-0.3-0.1c-0.9-0.5-1.9-0.9-2.8-1.4c0,0,0,0,0,0c-0.8-0.4-1.6-0.8-2.4-1.2c-0.2-0.1-0.4-0.2-0.5-0.3
			c-0.8-0.4-1.6-0.8-2.3-1.2c-4-2-8.1-3.2-12.7-3.7c-1.7-0.2-3.3-0.3-5-0.3c-0.4,0-0.7,0-1.1,0c-0.7,0-1.4,0.1-2.2,0.1
			c-5.8,0.4-12,1.6-18.9,3.4c0,0,0,0,0,0c-0.6,0.2-1.2,0.3-1.8,0.5c-0.2,0.1-0.4,0.1-0.6,0.2c-0.6,0.2-1.2,0.3-1.8,0.5
			c-0.3,0.1-0.5,0.1-0.8,0.2c-0.6,0.2-1.1,0.3-1.7,0.5c-0.3,0.1-0.6,0.2-0.9,0.3c-0.6,0.2-1.1,0.3-1.7,0.5c-0.3,0.1-0.7,0.2-1,0.3
			c-0.6,0.2-1.1,0.3-1.7,0.5c-0.4,0.1-0.7,0.2-1.1,0.3c-0.5,0.2-1.1,0.3-1.6,0.5c-0.5,0.1-0.9,0.3-1.4,0.4s-0.9,0.3-1.4,0.4
			c-0.9,0.3-1.8,0.6-2.8,0.9c-2.4,0.8-4.9,1.5-7.5,2.3c-30.4,9.4-184.9,47.9-274.1,67.3c0.6,0.3,1.2,0.6,1.8,0.9
			c0.2,0.1,0.5,0.3,0.7,0.4c0.2,0.1,0.4,0.3,0.7,0.4c0.5,0.3,1.1,0.7,1.6,1.1c0.7,0.5,1.5,1.1,2.3,1.6l10.7-2.2
			c90.3-20,229.1-54.8,258.2-63.7c2.6-0.8,5.1-1.6,7.5-2.4c16.2-5.1,28.9-9.1,39.6-9.3c0.3,0,0.6,0,1,0c1.4,0,2.9,0.1,4.3,0.2
			c3.8,0.4,7.3,1.4,10.6,3.1c7.3,3.8,16.6,8.4,27.4,13.7l-24,17.9l0,0l0,0l-31.2,23.9l-0.1,0.1l-0.1,0.1c-3.2,2.5-9.2,7.8-14.2,14.9
			c-3.6,5-6.4,10.6-7.6,16.7c-1.2,6.2-0.5,12.8,2.2,18.6c1.2,2.6,2.8,5.1,4.8,7.3c1.5,1.6,2.9,3.2,4.7,4.7c3,2.4,6.2,4.5,9.6,6.3
			c3.5,1.9,7.2,3.3,10.9,4.7c5.6,2,11.4,3.4,17.1,4.8c3.4,0.8,6.8,1.6,10.2,2.4c1.3,0.3,2.5,0.6,3.8,0.9l0.1,0l0.1,0
			c2,0.4,4,0.8,6,1.2l0.1,0l0.1,0c74.4,15.1,229.3,37.6,271.9,43l54.1,3.5c0,0,0,0,0,0c2.7-0.5,5.5-1,8.3-1.7
			C818.4,433.4,818.4,433.4,818.4,433.4z"/>
		<path id="j2_x5F_10" class="st13" d="M406.9,250.8c0.9-0.3,1.9-0.6,2.8-0.9c0.5-0.1,0.9-0.3,1.4-0.4c0.5-0.1,0.9-0.3,1.4-0.4
			c0.5-0.2,1.1-0.3,1.6-0.5c0.4-0.1,0.8-0.2,1.1-0.3c0.6-0.2,1.1-0.3,1.7-0.5c0.3-0.1,0.7-0.2,1-0.3c0.6-0.2,1.1-0.3,1.7-0.5
			c0.3-0.1,0.6-0.2,0.9-0.3c0.6-0.2,1.2-0.3,1.7-0.5c0.3-0.1,0.5-0.1,0.8-0.2c0.6-0.2,1.2-0.3,1.8-0.5c0.2-0.1,0.4-0.1,0.6-0.2
			c0.6-0.2,1.2-0.3,1.8-0.5h0c0,0,0,0,0,0c7.7-2.1,14.6-3.4,21-3.5c0.4,0,0.7,0,1.1,0c1.7,0,3.3,0.1,5,0.3c4.6,0.5,8.7,1.7,12.7,3.7
			c0.8,0.4,1.5,0.8,2.3,1.2c0.2,0.1,0.4,0.2,0.5,0.3c0.8,0.4,1.6,0.8,2.4,1.2c0,0,0,0,0,0c0.9,0.5,1.8,0.9,2.8,1.4
			c0.1,0,0.2,0.1,0.3,0.1c0.9,0.5,1.9,0.9,2.9,1.4c0,0,0,0,0,0c1.8,0.9,3.6,1.8,5.6,2.8c0.1,0.1,0.2,0.1,0.4,0.2
			c0.8,0.4,1.6,0.8,2.5,1.2c0.2,0.1,0.3,0.2,0.5,0.3c0.9,0.4,1.8,0.9,2.7,1.3c0.1,0,0.1,0.1,0.2,0.1c1,0.5,2,1,3,1.5
			c0.2,0.1,0.3,0.2,0.5,0.2c0.8,0.4,1.7,0.8,2.5,1.2c0.3,0.1,0.6,0.3,0.8,0.4c0.8,0.4,1.5,0.8,2.3,1.1c0.3,0.1,0.6,0.3,0.9,0.4
			c1,0.5,2.1,1,3.2,1.5c-0.3,0.3-0.7,0.5-1.1,0.8c-2.2,1.6-4.5,3.3-6.5,4.8l-19.9,14.9l-4.6,3.4L440,310.9
			c-5.5,4.4-23.1,20.1-19.7,37.6c0.1,0.7,0.3,1.5,0.5,2.2c0,0.2,0.1,0.3,0.2,0.5l0.1,0.2c0,0.1,0.1,0.2,0.1,0.4v0.2l0.2,0.4l0.2,0.4
			c0.2,0.5,0.4,0.9,0.6,1.4c0.1,0.2,0.2,0.4,0.3,0.7l0.3,0.6c0.2,0.3,0.4,0.6,0.6,1l0.2,0.4c0.5,0.8,1.1,1.6,1.7,2.3
			c0.1,0.1,0.2,0.2,0.3,0.4l0.9,1.1l0.6,0.7h0.1c0.1,0.2,0.3,0.3,0.4,0.5c0.2,0.2,0.4,0.3,0.5,0.5c0.2,0.2,0.4,0.3,0.5,0.5
			c0.2,0.2,0.5,0.4,0.7,0.6c0,0,0.4,0.4,0.4,0.4c0.2,0.2,0.4,0.3,0.6,0.5l0,0c0,0,0.1,0.1,0.1,0.1l0.2,0.1c0.5,0.4,1,0.8,1.4,1.1
			c0.1,0.1,0.2,0.2,0.4,0.3l0.2,0.1c0.3,0.2,0.5,0.4,0.8,0.6l0.6,0.4c0.8,0.5,1.5,1,2.3,1.4l0.3,0.2c0.4,0.2,0.8,0.5,1.3,0.7
			l0.4,0.2c0.6,0.3,1.1,0.6,1.7,0.9l0.2,0.1c1.1,0.5,2.3,1.1,3.5,1.6l0.4,0.2l0.4,0.2c1.2,0.5,2.4,0.9,3.7,1.4l0.2,0.1
			c0.4,0.1,0.8,0.3,1.2,0.4l0.8,0.3l0.1,0l0.1,0l0.2,0.1l0.3,0.1h0c0.2,0.1,0.4,0.1,0.6,0.2l0.6,0.2c0.8,0.3,1.6,0.5,2.4,0.7l0.1,0
			c0.8,0.2,1.5,0.4,2.3,0.7l1.3,0.4l0,0l0,0l20.2,4.7c2,0.4,4,0.8,6,1.2l0.2,0c79.4,16.1,250.7,40.7,278.6,43.8
			c13.3,1.5,26.4,2.3,37.9,3.1c3.4,0.2,6.8,0.5,10.2,0.7c5.5,0.4,11.4,0.8,15.1,1.1c0.8-0.2,1.6-0.4,2.4-0.6
			c0.5-0.1,1.1-0.3,1.6-0.4v0c0,0,0,0,0,0c-0.3-0.1-0.6-0.1-1-0.2c-0.1,0-0.2,0-0.3-0.1c-0.3,0-0.5-0.1-0.8-0.1
			c-0.1,0-0.2,0-0.3-0.1c-0.4-0.1-0.8-0.1-1.2-0.2c0,0,0,0,0,0c0,0,0,0,0,0c-0.4-0.1-0.9-0.1-1.4-0.2c-0.1,0-0.3,0-0.4-0.1
			c-0.4,0-0.7-0.1-1.1-0.1c-0.1,0-0.3,0-0.4-0.1c-0.5-0.1-1-0.1-1.5-0.2c0,0,0,0,0,0c-1.2-0.1-2.5-0.2-3.8-0.4
			c-1.3-0.1-2.7-0.2-4-0.3c-0.9-0.1-1.9-0.1-2.8-0.2c-0.2,0-0.5,0-0.7-0.1c-0.9-0.1-1.8-0.1-2.7-0.2c-0.1,0-0.2,0-0.2,0
			c-0.9-0.1-1.9-0.1-2.8-0.2c-0.3,0-0.5,0-0.8-0.1c-0.9-0.1-1.8-0.1-2.7-0.2c-1.4-0.1-2.9-0.2-4.4-0.3c-1.5-0.1-3-0.2-4.5-0.3
			c-3-0.2-6.2-0.4-9.3-0.7s-6.4-0.5-9.7-0.8c0,0,0,0,0,0c-3.3-0.3-6.6-0.6-9.9-1c0,0,0,0,0,0c-0.4,0-0.8-0.1-1.2-0.1
			c-0.1,0-0.2,0-0.3,0c-0.4-0.1-0.9-0.1-1.4-0.2c-0.1,0-0.2,0-0.3,0c-0.5-0.1-0.9-0.1-1.4-0.2c-0.1,0-0.2,0-0.3,0
			c-0.6-0.1-1.1-0.1-1.7-0.2c-0.1,0-0.3,0-0.4-0.1c-1.3-0.2-2.6-0.3-4.1-0.5c-0.1,0-0.3,0-0.4-0.1c-0.7-0.1-1.5-0.2-2.2-0.3
			c-0.1,0-0.2,0-0.3,0c-0.7-0.1-1.4-0.2-2.2-0.3c-0.2,0-0.3,0-0.5-0.1c-0.8-0.1-1.6-0.2-2.4-0.3c-0.2,0-0.5-0.1-0.7-0.1
			c-0.9-0.1-1.7-0.2-2.7-0.4c-1.2-0.2-2.5-0.3-3.7-0.5c-1.9-0.3-3.8-0.5-5.8-0.8c-1.4-0.2-2.8-0.4-4.2-0.6c-0.2,0-0.4-0.1-0.6-0.1
			c-1.9-0.3-3.9-0.6-6-0.8c-0.7-0.1-1.5-0.2-2.2-0.3c-7.4-1-15.5-2.2-24-3.4c-0.3,0-0.5-0.1-0.8-0.1c-0.3,0-0.6-0.1-1-0.1
			c-2.5-0.4-5-0.7-7.5-1.1c-0.3,0-0.7-0.1-1-0.1c-3.2-0.5-6.4-0.9-9.7-1.4c-3.3-0.5-6.6-1-10-1.5c-0.5-0.1-0.9-0.1-1.4-0.2
			c-1.3-0.2-2.5-0.4-3.8-0.6c-0.7-0.1-1.3-0.2-2-0.3c-1.1-0.2-2.3-0.3-3.4-0.5c-0.6-0.1-1.2-0.2-1.8-0.3c-1.2-0.2-2.4-0.4-3.5-0.5
			c-0.7-0.1-1.4-0.2-2.1-0.3c-1.1-0.2-2.2-0.3-3.3-0.5c-0.7-0.1-1.5-0.2-2.2-0.3c-1.1-0.2-2.1-0.3-3.2-0.5c-0.8-0.1-1.6-0.2-2.4-0.4
			c-1-0.2-2.1-0.3-3.1-0.5c-0.8-0.1-1.6-0.3-2.5-0.4c-1-0.2-2-0.3-3-0.5c-0.9-0.1-1.8-0.3-2.7-0.4c-1-0.2-2-0.3-3-0.5
			c-0.8-0.1-1.7-0.3-2.5-0.4c-1-0.2-2.1-0.3-3.1-0.5c-0.8-0.1-1.7-0.3-2.5-0.4c-1-0.2-2.1-0.3-3.1-0.5c-0.8-0.1-1.7-0.3-2.5-0.4
			c-1-0.2-2-0.3-3-0.5c-0.9-0.1-1.8-0.3-2.6-0.4c-1-0.2-2-0.3-2.9-0.5c-0.9-0.1-1.7-0.3-2.6-0.4c-1.1-0.2-2.1-0.3-3.2-0.5
			c-0.8-0.1-1.5-0.2-2.3-0.4c-1.1-0.2-2.2-0.4-3.3-0.5c-0.8-0.1-1.5-0.2-2.3-0.4c-1.1-0.2-2.1-0.3-3.2-0.5c-0.8-0.1-1.6-0.3-2.4-0.4
			c-1.6-0.3-3.1-0.5-4.7-0.8c-0.3,0-0.5-0.1-0.8-0.1c0,0,0,0,0,0c-3.5-0.6-7-1.1-10.5-1.7c0,0,0,0,0,0c-1.7-0.3-3.5-0.6-5.2-0.9
			c-3.5-0.6-6.9-1.2-10.3-1.7c-1.6-0.3-3.2-0.5-4.8-0.8c-0.5-0.1-0.9-0.2-1.4-0.2c-1.1-0.2-2.2-0.4-3.3-0.6
			c-0.6-0.1-1.1-0.2-1.7-0.3c-1-0.2-2-0.4-3-0.5c-0.6-0.1-1.2-0.2-1.7-0.3c-0.9-0.2-1.9-0.3-2.8-0.5c-0.6-0.1-1.2-0.2-1.8-0.3
			c-0.9-0.2-1.8-0.3-2.8-0.5c-0.6-0.1-1.2-0.2-1.7-0.3c-1-0.2-2-0.4-3-0.5c-0.4-0.1-0.9-0.2-1.3-0.2c-2.9-0.5-5.8-1-8.6-1.6
			c-0.4-0.1-0.9-0.2-1.3-0.2c-0.9-0.2-1.9-0.3-2.8-0.5c-0.5-0.1-1.1-0.2-1.6-0.3c-0.8-0.2-1.7-0.3-2.5-0.5c-0.5-0.1-1.1-0.2-1.6-0.3
			c-0.8-0.2-1.6-0.3-2.4-0.5c-0.5-0.1-1-0.2-1.5-0.3c-0.8-0.2-1.6-0.3-2.4-0.5c-0.5-0.1-1-0.2-1.4-0.3c-0.9-0.2-1.7-0.3-2.5-0.5
			c-0.4-0.1-0.8-0.1-1.1-0.2c-1.2-0.2-2.4-0.5-3.6-0.7l0,0l-0.1,0c-0.6-0.1-1.2-0.2-1.8-0.4c-1.4-0.3-2.8-0.6-4.2-0.9l-20.2-4.7
			l-1.3-0.4c-0.2-0.1-0.4-0.1-0.6-0.2c-0.3-0.1-0.7-0.2-1-0.3c-0.2-0.1-0.4-0.1-0.6-0.2l-0.1,0c-0.8-0.2-1.6-0.5-2.4-0.7l-0.3-0.1
			l-0.3-0.1c-0.2-0.1-0.5-0.2-0.7-0.2c-0.1,0-0.1,0-0.2-0.1h0l-0.1,0l-0.1,0c-0.1,0-0.1,0-0.2-0.1l-0.6-0.2l-0.3-0.1
			c-0.1,0-0.2-0.1-0.4-0.1c-0.3-0.1-0.6-0.2-0.9-0.3l-0.2-0.1c-1.3-0.5-2.5-0.9-3.6-1.4l-0.4-0.2l-0.4-0.1c-0.6-0.2-1.2-0.5-1.7-0.8
			c-0.6-0.3-1.1-0.5-1.7-0.8l-0.1,0l-0.1,0c-0.3-0.1-0.6-0.3-0.9-0.4s-0.6-0.3-0.8-0.4l-0.2-0.1l-0.2-0.1c-0.4-0.2-0.8-0.5-1.2-0.7
			l-0.3-0.2c-0.7-0.4-1.5-0.9-2.2-1.3l-0.6-0.4c-0.3-0.2-0.5-0.4-0.8-0.5l-0.2-0.1c-0.1-0.1-0.2-0.2-0.3-0.2c-0.5-0.3-0.9-0.7-1.4-1
			l-0.2-0.1l0,0c0,0-0.1-0.1-0.1-0.1l0,0c-0.2-0.2-0.4-0.3-0.6-0.5L431,362c-0.3-0.3-0.6-0.5-0.9-0.8c-0.2-0.1-0.3-0.3-0.5-0.5
			c-0.2-0.2-0.3-0.3-0.5-0.5c-0.2-0.2-0.3-0.3-0.5-0.5c-0.1-0.1-0.2-0.2-0.3-0.3c-0.1-0.1-0.2-0.2-0.3-0.3h0h0l-0.4-0.5l-0.4-0.5
			c-0.1-0.1-0.2-0.2-0.3-0.3c-0.6-0.7-1.1-1.4-1.6-2.2l-0.2-0.4c-0.2-0.3-0.4-0.6-0.5-0.9l-0.2-0.3l-0.2-0.3
			c-0.1-0.2-0.2-0.4-0.3-0.6c-0.2-0.5-0.4-0.9-0.6-1.4l-0.2-0.4v0v-0.1c0-0.1,0-0.1-0.1-0.2c-0.1-0.2-0.1-0.3-0.2-0.5l0-0.1
			c0-0.1,0-0.1-0.1-0.2s0-0.1-0.1-0.2c-0.2-0.7-0.4-1.4-0.5-2c-0.2-1-0.3-2-0.4-3c0-0.5,0-1,0-1.5c0-0.5,0-1,0.1-1.5
			c0-0.5,0.1-1,0.2-1.5c0,0,0,0,0,0c0.1-0.7,0.2-1.3,0.4-1.9c0-0.2,0.1-0.3,0.1-0.5c0.2-0.6,0.3-1.3,0.5-1.9c0,0,0,0,0,0
			c0.3-0.9,0.7-1.9,1.1-2.8c0,0,0,0,0,0c0.3-0.6,0.5-1.2,0.8-1.8c0.1-0.2,0.2-0.3,0.2-0.5c0.3-0.6,0.6-1.2,0.9-1.7c0,0,0,0,0,0
			c0.3-0.6,0.7-1.1,1-1.7c0.1-0.1,0.2-0.3,0.3-0.4c0.4-0.5,0.7-1.1,1.1-1.6c0,0,0,0,0,0c0,0,0,0,0,0c0.6-0.8,1.1-1.6,1.7-2.3
			c0,0,0,0,0,0c0,0,0,0,0,0c0.4-0.5,0.8-1,1.2-1.4c0.1-0.1,0.2-0.2,0.3-0.4c0.4-0.5,0.8-0.9,1.2-1.3c0,0,0,0,0,0c0,0,0,0,0,0
			c0.6-0.7,1.2-1.3,1.8-1.9c0,0,0,0,0,0c0,0,0,0,0,0c0.4-0.4,0.8-0.8,1.1-1.1c0.1-0.1,0.2-0.2,0.3-0.3c0.4-0.3,0.7-0.7,1-1
			c0,0,0,0,0,0c0,0,0,0,0,0c0.5-0.5,1-0.9,1.5-1.4c0,0,0,0,0,0c0.5-0.4,0.9-0.8,1.3-1.2c0.4-0.3,0.8-0.7,1.1-0.9l31.2-23.9l7.1-5.3
			l17.3-13c0,0,0.1,0,0.1-0.1c0.5-0.4,1-0.7,1.5-1.1c0.2-0.1,0.3-0.2,0.5-0.3c0.5-0.4,1.1-0.8,1.6-1.2c0.6-0.4,1.2-0.9,1.8-1.4
			c0.7-0.5,1.4-1,2.1-1.5c0.9-0.6,1.7-1.3,2.5-1.9c-0.1,0-0.2-0.1-0.3-0.1c-1.2-0.6-2.4-1.2-3.6-1.7c-0.1,0-0.1-0.1-0.2-0.1
			c-0.1,0-0.1-0.1-0.2-0.1c-1.4-0.7-2.9-1.4-4.3-2.1c0,0-0.1,0-0.1-0.1c-0.9-0.4-1.8-0.9-2.7-1.3c0,0-0.1,0-0.1-0.1
			c-0.9-0.4-1.8-0.9-2.6-1.3c0,0-0.1,0-0.1-0.1c-1.1-0.6-2.2-1.1-3.3-1.6c-0.3-0.1-0.6-0.3-0.9-0.4c-1.1-0.5-2.1-1.1-3.2-1.6
			c-0.1,0-0.1-0.1-0.2-0.1c-0.1,0-0.1-0.1-0.2-0.1c-1-0.5-2-1-3-1.5c-0.1-0.1-0.2-0.1-0.3-0.2c-1.2-0.6-2.4-1.2-3.5-1.8
			c0,0-0.1,0-0.1-0.1c0,0-0.1,0-0.1,0c-1-0.5-1.9-0.9-2.8-1.4c-0.3-0.1-0.5-0.3-0.8-0.4c-0.9-0.5-1.8-0.9-2.6-1.3c0,0-0.1,0-0.1-0.1
			c-1.3-0.7-2.6-1.4-3.9-2c-0.5-0.3-1.1-0.5-1.6-0.8c-0.6-0.3-1.3-0.5-1.9-0.8c-0.2-0.1-0.4-0.1-0.6-0.2c-0.4-0.2-0.9-0.3-1.3-0.5
			c-0.2-0.1-0.4-0.1-0.7-0.2c-0.4-0.1-0.9-0.3-1.3-0.4c-0.2-0.1-0.4-0.1-0.6-0.2c-0.6-0.2-1.3-0.3-1.9-0.4c0,0,0,0,0,0
			c-0.5-0.1-0.9-0.2-1.4-0.2c-0.4-0.1-0.9-0.1-1.3-0.2c-0.2,0-0.5-0.1-0.7-0.1c0,0,0,0,0,0c-1-0.1-1.9-0.2-2.9-0.2
			c-0.3,0-0.6,0-0.9,0c-0.8,0-1.7,0-2.5,0c0,0,0,0,0,0c-0.1,0-0.2,0-0.3,0c0,0,0,0-0.1,0c-0.2,0-0.5,0-0.7,0
			c-5.1,0.2-10.5,1.1-16.3,2.5c0,0-0.1,0-0.1,0c-1,0.2-2.1,0.5-3.2,0.8c-0.2,0.1-0.4,0.1-0.6,0.2c-0.9,0.2-1.9,0.5-2.9,0.8
			c-0.3,0.1-0.5,0.1-0.7,0.2c-1.2,0.3-2.3,0.7-3.5,1c0,0-0.1,0-0.1,0c-1.2,0.4-2.5,0.7-3.7,1.1c-0.4,0.1-0.9,0.3-1.3,0.4
			c-0.9,0.3-1.8,0.5-2.7,0.8c-0.5,0.2-1,0.3-1.5,0.5c-1,0.3-1.9,0.6-2.9,0.9c-2.8,0.9-5.8,1.8-8.8,2.7c0,0,0,0-0.1,0
			c-0.4,0.1-0.9,0.3-1.4,0.4c-0.2,0.1-0.4,0.1-0.5,0.2c-0.3,0.1-0.7,0.2-1,0.3c-0.2,0.1-0.4,0.1-0.7,0.2c-0.4,0.1-0.7,0.2-1.1,0.3
			c-0.2,0.1-0.5,0.1-0.7,0.2c-0.4,0.1-0.8,0.2-1.2,0.3c-0.2,0.1-0.5,0.1-0.7,0.2c-0.5,0.1-1,0.3-1.5,0.4c-0.2,0.1-0.4,0.1-0.6,0.2
			c-0.7,0.2-1.4,0.4-2.2,0.6c-0.2,0.1-0.5,0.1-0.8,0.2c-0.5,0.1-1.1,0.3-1.6,0.4c-0.3,0.1-0.6,0.2-0.9,0.3c-0.5,0.1-1.1,0.3-1.6,0.4
			c-0.3,0.1-0.7,0.2-1,0.3c-0.5,0.1-1.1,0.3-1.6,0.4c-0.4,0.1-0.7,0.2-1.1,0.3c-0.6,0.2-1.2,0.3-1.8,0.5c-0.3,0.1-0.7,0.2-1,0.3
			c-0.9,0.2-1.9,0.5-2.8,0.8c-0.3,0.1-0.6,0.2-0.9,0.2c-0.7,0.2-1.4,0.4-2.1,0.6c-0.4,0.1-0.9,0.2-1.3,0.3c-0.6,0.2-1.2,0.3-1.9,0.5
			c-0.5,0.1-0.9,0.2-1.4,0.4c-0.7,0.2-1.3,0.3-2,0.5c-0.4,0.1-0.9,0.2-1.3,0.3c-0.7,0.2-1.4,0.4-2.1,0.5c-0.5,0.1-0.9,0.2-1.4,0.4
			c-0.9,0.2-1.8,0.5-2.6,0.7c-0.3,0.1-0.5,0.1-0.8,0.2c-1.1,0.3-2.3,0.6-3.5,0.9c-0.5,0.1-1,0.2-1.4,0.4c-0.8,0.2-1.5,0.4-2.3,0.6
			c-0.5,0.1-1.1,0.3-1.6,0.4c-0.7,0.2-1.5,0.4-2.2,0.6c-0.5,0.1-1.1,0.3-1.6,0.4c-0.8,0.2-1.6,0.4-2.4,0.6c-0.5,0.1-1,0.3-1.5,0.4
			c-1,0.2-1.9,0.5-2.9,0.7c-0.4,0.1-0.7,0.2-1.1,0.3c-1.3,0.3-2.7,0.7-4,1c-0.4,0.1-0.9,0.2-1.3,0.3c-0.9,0.2-1.8,0.5-2.7,0.7
			c-0.6,0.2-1.3,0.3-1.9,0.5c-0.8,0.2-1.6,0.4-2.4,0.6c-0.6,0.2-1.2,0.3-1.8,0.5c-0.8,0.2-1.7,0.4-2.5,0.6c-0.6,0.2-1.2,0.3-1.8,0.5
			c-0.9,0.2-1.8,0.5-2.7,0.7c-0.6,0.1-1.1,0.3-1.7,0.4c-1.4,0.4-2.9,0.7-4.4,1.1c-2.4,0.6-4.7,1.2-7.1,1.8c-0.4,0.1-0.9,0.2-1.3,0.3
			c-2.3,0.6-4.7,1.2-7,1.7c-0.4,0.1-0.8,0.2-1.2,0.3c-2.3,0.6-4.6,1.1-6.9,1.7c-0.2,0-0.4,0.1-0.6,0.1c-2.5,0.6-4.9,1.2-7.4,1.8
			c-0.5,0.1-0.9,0.2-1.4,0.3c-2.5,0.6-5,1.2-7.5,1.8c-0.3,0.1-0.5,0.1-0.8,0.2c-2.4,0.6-4.7,1.2-7.1,1.7c-0.4,0.1-0.8,0.2-1.2,0.3
			c-2.5,0.6-5,1.2-7.5,1.8c-0.5,0.1-0.9,0.2-1.4,0.3c-2.6,0.6-5.2,1.2-7.8,1.9c-11.6,2.8-23.3,5.6-34.9,8.3
			c-0.4,0.1-0.7,0.2-1.1,0.3c-2.7,0.6-5.4,1.3-8,1.9c-0.5,0.1-0.9,0.2-1.4,0.3c-2.7,0.6-5.3,1.2-8,1.9c-0.4,0.1-0.7,0.2-1.1,0.3
			c-7.9,1.8-15.7,3.6-23.2,5.3c-2.2,0.5-4.3,1-6.5,1.5c-0.5,0.1-1.1,0.2-1.6,0.4c-5.3,1.2-10.6,2.4-15.7,3.5c-3,0.7-6,1.3-9,2
			c-2.9,0.6-5.8,1.3-8.6,1.9c1.1,0.4,2.3,0.9,3.4,1.4c89.3-19.4,243.7-57.9,274.1-67.3C402,252.4,404.5,251.6,406.9,250.8z"/>
		<path id="j2_x5F_9" class="st5" d="M388.7,80.4c-5.5-0.1-11,1-17.9,2.4l0,0c34.2,25.4,68.9,89.1,84.4,156.7
			c0.9,0.1,1.8,0.3,2.7,0.4c2.8,0.6,5.6,1.4,8.3,2.6c0.5,0.2,1.1,0.5,1.6,0.8c1.2,0.6,2.5,1.3,3.9,2c2,1,4.2,2.1,6.4,3.2
			c2.3,1.1,4.6,2.3,7.1,3.5c2.5,1.2,5,2.5,7.7,3.8c1.8,0.9,3.6,1.8,5.5,2.7c1.5,0.7,3.1,1.5,4.6,2.2C490,231.7,414,116.8,388.7,80.4
			z"/>
		<path id="j2_x5F_8" d="M388.7,80.4c-4.4-6.4-7.3-10.4-8-11c-4.9-4.7-12.8-2.3-25.7,4.6l0,0c0.9,0.3,1.8,0.6,2.6,1
			c4.4,1.9,8.8,4.6,13.2,7.9l0,0C377.7,81.5,383.2,80.3,388.7,80.4z"/>
		<path id="j2_x5F_7" d="M452.4,228.5c-2.4-9.2-5.1-18.3-8.2-27.2c-2.6-7.6-5.4-15.1-8.4-22.4c-20.9-50.8-50.6-91.8-78.3-104
			c-0.8-0.4-1.7-0.7-2.6-1c-23.3-7.5-76.7,6.6-103.2,29.5c-24.9,21.5-50.8,38-103.6,56.7c-34,12.1-40.3,76.8-43.1,106.4
			c2,0.6,4.3,1.3,6.3,2.1c3.1-36.3,11.5-81.1,32.6-94.9c35.2-23,80.5-33.8,98-51.8c16.1-16.5,76.9-47.1,110.4-40.2
			c2.9,0.6,5.7,1.5,8.1,2.7c41.1,20.3,68.6,97,87,153.8c0.1,0.3,0.2,0.6,0.3,0.9c0.1,0,0.2,0,0.3,0c0.4,0,0.8,0,1.2,0
			c1.8,0,3.5,0.1,5.2,0.3c0.2,0,0.5,0.1,0.7,0.1C454.3,235.9,453.4,232.2,452.4,228.5z"/>
		<path id="j2_x5F_6" class="st5" d="M447.6,238.4C447.6,238.4,447.5,238.4,447.6,238.4c-18.5-56.7-46-133.3-87-153.6
			c-2.5-1.2-5.2-2.1-8.2-2.7c-11.6-2.4-26.5-0.3-41.7,4.2l-0.1,0.1l0-0.1c-28.5,8.5-57.9,25.2-68.4,35.9c-17.5,18-62.8,28.8-98,51.8
			c-21.3,13.9-29.7,59.3-32.7,95.8c-1.1,13-1.4,24.9-1.5,33.8c0,6.8,0.2,11.9,0.4,14.4c0,0,0,0,0,0c0.1,0,0.1,0,0.2,0
			c3.9-0.6,7.7-0.2,11.4,1c2.8-0.6,5.7-1.2,8.6-1.9c5.9-1.3,12-2.6,18.3-4c4.7-1.1,9.6-2.1,14.5-3.3c3.3-0.7,6.6-1.5,9.9-2.3
			c1.7-0.4,3.4-0.8,5-1.2c11.8-2.7,24-5.6,36.3-8.5c3.5-0.8,7-1.7,10.6-2.5c5.3-1.3,10.6-2.5,15.9-3.8c22.9-5.5,45.5-11.1,66.3-16.3
			c43.2-10.8,78.5-20.1,91.4-24.1c1.3-0.4,2.5-0.8,3.7-1.2c6.1-1.9,11.9-3.7,17.2-5.3c10.3-3,19.2-5.2,27.4-5.5c0.2,0,0.5,0,0.7,0
			c0,0,0,0,0.1,0C447.9,239.5,447.7,238.9,447.6,238.4z"/>
		<path id="j2_x5F_5" class="st13" d="M249.1,389.6c-1.5-0.6-3-1.3-4.4-1.9c-0.1,0-0.1-0.1-0.2-0.1c-0.5-0.2-1-0.4-1.5-0.6
			c-10-4.3-19.4-8.7-28.1-12.9c-0.1,0-0.1-0.1-0.2-0.1c-1.2-0.6-2.4-1.2-3.6-1.8c-0.2-0.1-0.4-0.2-0.6-0.3c-1-0.5-2.1-1-3.1-1.5
			c-0.3-0.1-0.5-0.3-0.8-0.4c-0.9-0.5-1.8-0.9-2.8-1.4c-0.3-0.2-0.7-0.3-1-0.5c-0.8-0.4-1.7-0.9-2.5-1.3c-0.4-0.2-0.7-0.4-1.1-0.6
			c-0.8-0.4-1.6-0.8-2.4-1.3c-0.4-0.2-0.7-0.4-1.1-0.6c-0.8-0.4-1.5-0.8-2.3-1.2c-0.4-0.2-0.7-0.4-1.1-0.6c-0.8-0.4-1.6-0.9-2.4-1.3
			c-0.3-0.2-0.6-0.3-0.9-0.5c-1.1-0.6-2.2-1.2-3.2-1.8c-1.4-0.8-2.8-1.6-4.1-2.3c0,0-0.1-0.1-0.1-0.1c-0.2-0.1-0.4-0.2-0.6-0.3
			c-0.1,0-0.2-0.1-0.3-0.1c-1.4-0.8-2.9-1.6-4.3-2.5c0,0,0,0,0,0c0,0,0,0,0,0c-0.8-0.5-1.6-0.9-2.3-1.4l0,0
			c-0.5-0.3-1.1-0.6-1.6-0.9c0,0-0.1,0-0.1,0c-1.3-0.8-2.6-1.5-3.8-2.3c-0.2-0.1-0.4-0.2-0.6-0.4c-1.2-0.7-2.5-1.5-3.6-2.2
			c-0.1-0.1-0.2-0.1-0.3-0.2c-1.2-0.7-2.3-1.4-3.4-2.1c-0.1-0.1-0.2-0.2-0.4-0.2c-1.1-0.7-2.2-1.4-3.3-2.1c-0.2-0.1-0.4-0.2-0.5-0.3
			c-2.2-1.4-4.3-2.8-6.4-4.1c-0.2-0.1-0.3-0.2-0.5-0.3c-1-0.7-2-1.3-2.9-1.9c-0.1-0.1-0.3-0.2-0.4-0.3c-0.9-0.6-1.8-1.2-2.7-1.8
			c-0.1,0-0.1-0.1-0.2-0.1c-0.9-0.6-1.8-1.2-2.7-1.8c-0.2-0.1-0.3-0.2-0.5-0.3c-0.9-0.6-1.7-1.2-2.5-1.8c-0.1-0.1-0.2-0.1-0.3-0.2
			c-0.7-0.5-1.4-1-2.1-1.5c0,0-0.1-0.1-0.1-0.1c-0.1-0.1-0.2-0.2-0.4-0.3c-0.8-0.5-1.5-1.1-2.2-1.6c-0.1-0.1-0.2-0.1-0.3-0.2
			c0,0-0.1-0.1-0.1-0.1c-0.7-0.5-1.5-1-2.2-1.6c-1.5-1.1-3.1-2-4.7-2.8c0,0,0,0,0,0c-0.3-0.1-0.6-0.3-0.9-0.4
			c-0.8-0.4-1.6-0.7-2.5-1c-3.7-1.2-7.5-1.6-11.4-1c-0.1,0-0.1,0-0.2,0c-0.1,0-0.2,0-0.3,0.1c-1,0.2-2,0.4-3,0.7
			c-6.8,2.1-13.7,7.2-20,16.4c-0.5,0.7-1,1.5-1.5,2.3c-3.3,5.3-6.3,14.1-8.8,24.5c33.2,10.5,151.9,36.9,169.4,40.4
			C246.8,400.3,248,394.8,249.1,389.6C249.1,389.6,249.1,389.6,249.1,389.6z"/>
		<path id="j2_x5F_4" class="st5" d="M483.9,388.6L483.9,388.6l-0.2,0c-2-0.4-4.1-0.8-6-1.2l-0.1,0l-0.1,0c-1.3-0.3-2.5-0.6-3.8-0.9
			c-3.4-0.8-6.8-1.6-10.2-2.4c-5.8-1.3-11.5-2.7-17.1-4.8c-3.7-1.5-7.4-2.9-10.9-4.7c-3.4-1.8-6.6-3.9-9.6-6.3
			c-1.7-1.4-3.1-3-4.7-4.7c-2-2.1-3.5-4.6-4.8-7.3c-2.7-5.8-3.4-12.3-2.2-18.6c1.2-6.1,4.1-11.7,7.6-16.7c5-7,11-12.3,14.2-14.9
			l0.1-0.1l0.1-0.1l31.2-23.9l0,0l0,0l24-17.9c-10.8-5.2-20.1-9.9-27.4-13.7c-3.3-1.7-6.8-2.7-10.6-3.1c-1.4-0.2-2.9-0.2-4.3-0.2
			c-0.3,0-0.6,0-1,0c-10.7,0.3-23.4,4.3-39.6,9.3c-2.4,0.8-5,1.6-7.5,2.4c-29.1,9-167.9,43.7-258.2,63.7l-10.7,2.2
			c1,0.7,2,1.4,3,2.2c1.9,1.4,4,2.8,6.2,4.3c0.4,0.3,0.7,0.5,1.1,0.8c11.3,7.7,25.5,16.9,43.2,26.7c36.8,20.5,88.4,44.1,158.1,63.6
			c10.3,2.9,21,5.7,32.1,8.4c0,0,0,0,0,0c10.2,1.4,27.8,2.6,49,3.7c61.9,3.2,154.5,5.2,182.8,5.2c30.3,0,102.6,1.7,154.4-0.3
			c1.4-0.1,2.7-0.1,4-0.2c11.6-0.5,22.1-1.2,30.6-2.2c4.1-0.5,8.6-1.1,13.1-2l-54.1-3.5C713.2,426.3,558.3,403.8,483.9,388.6z"/>
		<path id="j2_x5F_3" class="st5" d="M929,465.4c-0.3,0.4-0.6,0.7-0.9,1.1c-0.1,0.1-0.2,0.2-0.3,0.3c-0.2,0.2-0.4,0.5-0.6,0.7
			c-0.1,0.1-0.2,0.3-0.4,0.4c-0.2,0.2-0.4,0.5-0.6,0.7c-0.1,0.1-0.3,0.3-0.4,0.4c-0.2,0.2-0.5,0.5-0.7,0.7c-0.1,0.1-0.3,0.3-0.4,0.4
			c-0.3,0.3-0.6,0.6-0.9,0.8c-0.1,0.1-0.2,0.2-0.3,0.3c-0.4,0.4-0.8,0.7-1.2,1.1c-0.1,0.1-0.2,0.2-0.3,0.3c-0.3,0.3-0.6,0.5-1,0.8
			c-0.2,0.1-0.3,0.3-0.5,0.4c-0.3,0.2-0.6,0.5-0.9,0.7c-0.2,0.1-0.4,0.3-0.5,0.4c-0.3,0.2-0.6,0.5-0.9,0.7c-0.2,0.1-0.4,0.3-0.6,0.4
			c-0.3,0.2-0.7,0.5-1,0.7c-0.2,0.1-0.3,0.2-0.5,0.4c-0.5,0.4-1,0.7-1.5,1.1c-0.1,0.1-0.2,0.1-0.2,0.2c-0.5,0.3-0.9,0.6-1.4,0.9
			c-0.2,0.1-0.4,0.3-0.6,0.4c-0.4,0.2-0.7,0.5-1.1,0.7c-0.2,0.1-0.4,0.3-0.7,0.4c-0.4,0.2-0.7,0.4-1.1,0.7c-0.2,0.1-0.5,0.3-0.7,0.4
			c-0.4,0.2-0.7,0.5-1.1,0.7c-0.2,0.1-0.5,0.3-0.7,0.4c-0.5,0.3-0.9,0.5-1.4,0.8c-0.2,0.1-0.3,0.2-0.5,0.3c-0.6,0.4-1.2,0.7-1.9,1.1
			c-0.2,0.1-0.4,0.2-0.7,0.4c-0.4,0.2-0.9,0.5-1.3,0.7c-0.3,0.1-0.5,0.3-0.8,0.4c-0.4,0.2-0.8,0.4-1.2,0.6c-0.3,0.2-0.6,0.3-0.9,0.5
			c-0.4,0.2-0.8,0.4-1.2,0.6c-0.3,0.1-0.6,0.3-0.9,0.4c-0.4,0.2-0.9,0.5-1.3,0.7c-0.3,0.1-0.5,0.3-0.8,0.4c-0.7,0.3-1.4,0.7-2.1,1
			c-0.2,0.1-0.4,0.2-0.6,0.3c-0.5,0.3-1.1,0.5-1.6,0.8c-0.3,0.1-0.6,0.3-0.9,0.4c-0.4,0.2-0.9,0.4-1.3,0.6c-0.3,0.1-0.6,0.3-1,0.4
			c-0.4,0.2-0.9,0.4-1.3,0.6c-0.3,0.2-0.7,0.3-1,0.5c-0.5,0.2-0.9,0.4-1.4,0.6c-0.3,0.1-0.6,0.3-0.9,0.4c-0.6,0.3-1.1,0.5-1.7,0.8
			c-0.2,0.1-0.4,0.2-0.7,0.3c0,0,0,0,0,0c0,0,0,0,0,0c-1.9,0.8-3.8,1.7-5.8,2.5c-0.2,0.1-0.3,0.1-0.5,0.2c-1.8,0.8-3.7,1.6-5.6,2.3
			c-0.2,0.1-0.3,0.1-0.5,0.2c-2,0.8-4,1.6-6.1,2.4c0,0,0,0,0,0c-2.1,0.8-4.2,1.6-6.3,2.4c-0.2,0.1-0.3,0.1-0.5,0.2
			c-2,0.7-4,1.5-6,2.2c-0.2,0.1-0.4,0.1-0.6,0.2c-2.1,0.7-4.2,1.5-6.3,2.2c-0.1,0-0.1,0.1-0.2,0.1c-2.2,0.8-4.4,1.5-6.5,2.2
			c-0.1,0-0.3,0.1-0.4,0.1c-2.1,0.7-4.2,1.4-6.3,2.1c-0.2,0.1-0.4,0.1-0.6,0.2c-2.1,0.7-4.2,1.4-6.3,2c-0.1,0-0.3,0.1-0.4,0.1
			c-2.2,0.7-4.4,1.4-6.6,2.1c-0.1,0-0.2,0.1-0.3,0.1c-2.1,0.6-4.3,1.3-6.4,1.9c-0.2,0.1-0.4,0.1-0.6,0.2c-2.1,0.6-4.2,1.2-6.2,1.8
			c-0.2,0-0.3,0.1-0.5,0.1c-2.2,0.6-4.4,1.2-6.6,1.9c-0.1,0-0.1,0-0.2,0c-2.1,0.6-4.3,1.2-6.4,1.7c-0.2,0.1-0.4,0.1-0.6,0.2
			c-2,0.5-4,1.1-6,1.6c-0.2,0-0.4,0.1-0.6,0.1c-2.1,0.5-4.2,1.1-6.3,1.6c-60,15-160,24-219.7,23.3c-2.2,0-4.3-0.1-6.5-0.1
			c-0.2,0-0.4,0-0.5,0c-2.1,0-4.1-0.1-6.2-0.1c-0.1,0-0.2,0-0.4,0c-2.1,0-4.3-0.1-6.4-0.1c-0.1,0-0.3,0-0.4,0
			c-2.1,0-4.1-0.1-6.2-0.1c-0.2,0-0.4,0-0.5,0c-2.1-0.1-4.3-0.1-6.4-0.2c0,0,0,0,0,0c-2.1-0.1-4.3-0.1-6.4-0.2c-0.2,0-0.3,0-0.5,0
			c-2-0.1-4-0.1-6-0.2c-0.1,0-0.2,0-0.4,0c-2.1-0.1-4.2-0.2-6.2-0.2c-0.1,0-0.2,0-0.3,0c-2-0.1-4-0.2-6-0.2c-0.1,0-0.3,0-0.4,0
			c-4.1-0.2-8.1-0.3-12-0.5c-0.1,0-0.2,0-0.3,0c-1.9-0.1-3.9-0.2-5.8-0.3c0,0-0.1,0-0.1,0c-1.9-0.1-3.9-0.2-5.7-0.3c0,0,0,0-0.1,0
			c-1.9-0.1-3.7-0.2-5.5-0.3c0,0-0.1,0-0.1,0c-3.7-0.2-7.2-0.4-10.6-0.6c-18.2-1.1-32-2.2-38.4-3c-9.2-1.2-23.2-4.5-36.8-7.2
			c0,0,0,0,0,0c-2.5-0.5-5-1-7.5-1.4c0,0-0.1,0-0.1,0c-1.2-0.2-2.3-0.4-3.4-0.6c-0.1,0-0.3,0-0.4-0.1c-1.1-0.2-2.2-0.3-3.3-0.5
			c-0.1,0-0.2,0-0.3,0c-1.1-0.2-2.1-0.3-3.1-0.4c-0.1,0-0.1,0-0.2,0c-1-0.1-2-0.2-3-0.3c-0.2,0-0.4,0-0.5-0.1
			c-0.9-0.1-1.9-0.2-2.8-0.2c-0.2,0-0.3,0-0.5,0c-0.9-0.1-1.9-0.1-2.7-0.1c-0.5,0-1.1,0-1.7,0c-0.1,0-0.2,0-0.3,0
			c-0.2,0-0.5,0-0.7,0c-0.2,0-0.4,0-0.5,0c-0.3,0-0.6,0-0.9,0c-0.2,0-0.3,0-0.5,0c-0.4,0-0.8,0-1.3,0c-0.1,0-0.1,0-0.2,0
			c-1.6,0-3.4-0.1-5.4-0.1l-0.5,5.9l-1.3,16.2c1,0,1.9,0.1,2.9,0.1c13.6,0.5,27.4,1.1,41.1,1.6c1.4,0.1,2.8,0.1,4.2,0.2
			c13.2,0.5,26.3,1,39.1,1.5c1.4,0.1,2.8,0.1,4.2,0.2c65,2.6,120.9,4.8,135.3,4.9c5.8,0.1,15,0.1,26.7,0.1c1.4,0,2.8,0,4.2,0
			c37.9,0,97.9-0.6,148.2-3.9c1.5-0.1,2.9-0.2,4.3-0.3c12.9-0.9,25.1-2,36-3.3c1.5-0.2,2.9-0.4,4.4-0.6c10.1-1.3,19-2.9,26.2-4.7
			c0.8-0.2,1.6-0.4,2.4-0.6c0.7-0.2,1.4-0.4,2.1-0.6c51.5-14.5,87-31.8,95.2-38.4c8.3-6.7,13.7-16.7,14.3-25.3
			C928.9,484.9,929.1,474.5,929,465.4z"/>
		<path id="j2_x5F_2" class="st13" d="M178.9,532.7c-3,0-4.6,1.5-5.8,2.8c-0.6,0.6-1.9,1.8-3.9,4.2c-2.1,2.4-6.9,2.6-9.8,2.8
			c-12.9,1-56.9-2-83.7-18.7c2.3,5.2,6.2,10.2,13.3,14c10.8,5.7,33.4,13.6,75.5,16c1.4,0.1,2.8,0.1,4.2,0.2c6,0.3,12.3,0.4,19,0.5
			c12.5,0.1,35.7,0.7,64.8,1.7c1.4,0,2.8,0.1,4.2,0.1c23.9,0.8,51.4,1.8,80,2.9c0.4,0,0.9,0,1.3,0.1l1.3-16.2l0.5-5.9
			C299.3,536.1,181.5,532.7,178.9,532.7z"/>
		<path id="j2_x5F_1" class="st5" d="M569.8,471.5c-9-2.5-59-12.5-120.5-25c-9.9-2-20-4.1-30.4-6.2c-2.5-0.5-5.1-1-7.7-1.6
			c-24.1-4.9-46.4-10.4-67.2-16.2c-36.4-10.2-67.9-21.5-94.9-32.9c-1.1,5.2-2.2,10.7-2.9,12.8c-17.6-3.5-136.3-29.9-169.4-40.4
			c-7.1,30.1-10,73.9-5.9,87.4c0.4,1.4,0.9,2.4,1.5,3.1c8.5,10.6,117.2,5.5,151.5,5.5c8.5,0,68.5,1.7,122.7,4.5
			c3.4,0.2,6.8,0.4,10.1,0.6c0,0,0,0,0,0c1.3,0.1,2.7,0.2,4,0.2c0.2,0,0.4,0,0.6,0c0.2,0,0.3,0,0.5,0c3.2,0.2,6.3,0.4,9.4,0.6
			c0.1,0,0.3,0,0.4,0c1.4,0.1,2.7,0.2,4.1,0.3c0.2,0,0.5,0,0.7,0c2.9,0.2,5.8,0.4,8.6,0.6c0.3,0,0.5,0,0.8,0.1
			c1.1,0.1,2.2,0.2,3.3,0.2c0.3,0,0.6,0,0.9,0.1c0.5,0,1,0.1,1.5,0.1c2.1,0.2,4.2,0.3,6.2,0.5c0.3,0,0.6,0.1,0.9,0.1
			c0.9,0.1,1.9,0.2,2.8,0.2c0.3,0,0.7,0.1,1,0.1c1.2,0.1,2.3,0.2,3.5,0.3c0,0,0,0,0,0c1.1,0.1,2.2,0.2,3.3,0.3
			c0.3,0,0.6,0.1,0.9,0.1c0.8,0.1,1.6,0.2,2.3,0.2c0.3,0,0.6,0.1,0.9,0.1c1,0.1,2,0.2,3,0.3c33.2,3.9,99.6,15.1,155.5,23.2l1.1,0.2
			c3.8,0.5,7.5,1.1,11.2,1.6C584,483.2,580.5,474.5,569.8,471.5z"/>
	</g>
</g>
<g id="jordan1">
	<g id="shapes">
		<path id="j1_x5F_14" class="st13" d="M678.5,359.4c-1.5-1.9-3.5-4-6-6.2c-1-0.9-2.1-1.9-3.4-2.9c-3.2-0.8-5.9-1.7-8.1-2.5
			c-16.5-5.8-50.2-21.9-76.2-33.8c-4.3-2-8.3-3.8-12.1-5.5v0c-0.1-0.1-0.3-0.1-0.4-0.2c-0.7-0.3-1.4-0.6-2-0.9
			c-0.2-0.1-0.4-0.2-0.7-0.3c-0.8-0.4-1.6-0.7-2.4-1.1c-0.1,0-0.1-0.1-0.2-0.1c-0.5-0.2-0.9-0.4-1.4-0.6c-0.1-0.1-0.3-0.1-0.4-0.2
			c-0.4-0.2-0.8-0.3-1.1-0.5c-0.2-0.1-0.3-0.1-0.5-0.2c-0.4-0.1-0.7-0.3-1-0.4c-0.2-0.1-0.3-0.1-0.5-0.2c-0.3-0.1-0.7-0.3-1-0.4
			c-0.1-0.1-0.3-0.1-0.4-0.2c-0.5-0.2-0.9-0.4-1.3-0.5c-0.6-0.2-1.1-0.4-1.6-0.6c-0.6-0.2-1.1-0.3-1.6-0.3c-0.3,0-0.6-0.1-0.9-0.1
			c-0.4,0-0.8,0-1.2,0c0,0,0,0,0,0c0,0-0.1,0-0.1,0c-0.1,0-0.1,0-0.2,0c-0.4,0-0.7,0.1-1,0.2c0,0-0.1,0-0.1,0
			c-0.3,0.1-0.5,0.2-0.8,0.3c-0.1,0-0.2,0.1-0.2,0.1c-0.1,0.1-0.2,0.1-0.3,0.2c-0.1,0.1-0.2,0.2-0.4,0.2c-0.1,0.1-0.2,0.1-0.3,0.2
			c-0.2,0.2-0.4,0.3-0.6,0.5c-0.1,0.1-0.2,0.2-0.3,0.3c-0.2,0.2-0.3,0.4-0.5,0.6c-0.1,0.1-0.2,0.2-0.2,0.3c-0.1,0.2-0.3,0.4-0.4,0.7
			c-0.1,0.1-0.1,0.3-0.2,0.4c-0.1,0.2-0.3,0.5-0.4,0.8c-0.1,0.1-0.1,0.3-0.2,0.4c-0.1,0.3-0.2,0.6-0.3,0.9c-0.1,0.2-0.1,0.3-0.2,0.5
			c-0.1,0.3-0.2,0.6-0.3,1c0,0.2-0.1,0.3-0.1,0.5c-0.1,0.3-0.2,0.7-0.3,1.1c0,0.2-0.1,0.3-0.1,0.5c-0.1,0.4-0.2,0.8-0.2,1.2
			c0,0.2,0,0.3-0.1,0.5c-0.1,0.4-0.1,0.9-0.2,1.3c0,0.1,0,0.2,0,0.3c0,0,0,0,0,0c-0.2,1.5-0.3,3-0.5,4.7c-0.1,1.6-0.2,3.4-0.3,5.2
			c0,0,0,0.1,0,0.1c0,0.7,0,1.4-0.1,2c0,0.1,0,1.7,0,2.3c0,0.1,0,0.2,0,0.3c0,0.7,0,1.4,0,2.2c0,0.1,0,0.1,0,0.2
			c0,2.8,0,5.7-0.1,8.7c0,0.1,0,0.3,0,0.4c0,0.7,0,1.4,0,2.1c0,0.3,0,0.6,0,0.8c0,0.6,0,1.2,0,1.8c0,0.4,0,0.7,0,1.1
			c0,0.6,0,1.1,0,1.7c0,0.4,0,0.7,0,1.1c0,0.6,0,1.2-0.1,1.7c0,0.4,0,0.7,0,1.1c0,0.6,0,1.3-0.1,1.9c0,0.3,0,0.6,0,0.9
			c0,0.9-0.1,1.9-0.1,2.8c-0.3,4.8-0.7,9.6-1.5,14.3c-0.5,3.1-1.1,6.2-1.9,9.1c-3.3,12.7-12.1,31.1-21.4,49
			c-8.5,16.3-17.4,32.3-23.3,43.4v0.8c2.6,0.3,5.2,0.7,7.7,1c0.4,0,0.7,0.1,1.1,0.1c9.3,1.3,18.1,2.6,26.2,4
			c11.4,2,23.3,3.3,35.5,4.1c0,0,0.1,0,0.1,0c0,0,0,0-0.1,0c1.8,0.1,3.7,0.2,5.5,0.3c6.9,0.4,13.9,0.6,21,0.6
			c10.2-22.4,37.2-81.9,69.5-89.4h0C673.7,380.5,690.7,374.9,678.5,359.4z"/>
		<path id="j1_x5F_13" class="st13" d="M913.7,388.9c-11.9-14.7-23.1-22.6-43.5-25.3c4.8,4.8-10.4,10-29.2,16.1
			C808.8,390.3,713.5,390,691.8,421c-13,18.5-39.2,7.8-34.8-11.9c1.2-5.4,3.5-9.8,6.2-13.7h0c-32.3,7.5-59.3,67-69.5,89.4
			c136.5,0.9,303.3-54.6,326.5-66.2c0.9-0.4,1.5-1.2,1.9-2.2C924.8,410.1,917.8,394,913.7,388.9z"/>
		<path id="j1_x5F_12" class="st5" d="M870.2,363.7c-12.7-1.7-28.9-1.3-51.2,0.8c-44,4-105.7-4.1-139.9-11.8
			c-0.5-0.1-0.9-0.2-1.4-0.3c-3.1-0.7-6-1.4-8.6-2.1c1.2,1,2.3,2,3.4,2.9c0.6,0.5,1.1,1,1.6,1.5c0.1,0.1,0.2,0.2,0.4,0.3
			c0.5,0.5,0.9,0.9,1.4,1.4c0,0,0,0,0,0c0.5,0.5,0.9,1,1.4,1.5c0,0,0,0,0.1,0.1c0.4,0.5,0.8,1,1.2,1.4
			c15.4,19.5-15.5,23.4-21.5,49.7c-4.5,19.7,21.7,30.5,34.8,11.9c21.8-31,117-30.8,149.2-41.2C859.8,373.7,875,368.4,870.2,363.7z"
			/>
		<path id="j1_x5F_11" d="M235.8,290.1c40.3-2.9,97.2-28.4,109.7-41.7l0.2,0.3c1.8-22.6,11.4-34.7,8.5-46.9
			c-38.1,23.1-89.5,53.7-98.2,59.5C242.8,270,237.1,281.9,235.8,290.1z"/>
		<path id="j1_x5F_10" class="st13" d="M556,301.7c-2.2-1.2-5.9-2.4-10.7-3.9c-6.5-2.1-14.9-5-23.8-10.1c-4-2.3-8.1-4.9-12.2-8.2
			c-5-4-10.1-8.7-14.8-14.6c-0.1-0.1-0.1-0.2-0.2-0.3c-3.7-4.5-9.4-11.2-15.6-16.6c-0.2-0.1-0.3-0.3-0.5-0.4
			c-4.2-3.6-8.7-6.5-12.9-7.7c-1.3-0.3-2.6-0.7-3.9-1c-13.5-3.1-28.1-3.8-40.1-6.4c-12.1-2.6-21.5-7.1-24.4-17.7
			c-0.7-2.5-1-5.4-0.9-8.6c0.1-2.5,0.1-5.5,0-8.8c-0.1-5.6-0.4-12.2-0.9-19.3l-2.6-0.3c-5,3.3-14.6,9.4-26.6,16.7
			c-0.2,0.1-0.5,0.3-0.7,0.5c-0.3,0.2-0.6,0.4-1,0.6c-3.2,1.9-6.5,4-9.9,6.1c2.9,12.2-6.8,24.3-8.5,46.9c-0.1,0.9-0.1,1.8-0.2,2.7
			c0,0.4,0,0.8,0,1.2c0,0.8,0.1,1.5,0.2,2.2c0,0,0,0.1,0,0.1c0.1,0.3,0.1,0.6,0.2,0.9c0,0.1,0,0.2,0,0.2c0,0.1,0.1,0.2,0.1,0.3
			c0,0.1,0,0.1,0.1,0.2c0.1,0.2,0.1,0.4,0.2,0.6c0,0.1,0.1,0.2,0.1,0.3c0.3,1,0.8,2,1.3,2.9c0.1,0.2,0.2,0.3,0.3,0.5
			c0.1,0.2,0.2,0.4,0.3,0.6c0,0.1,0.1,0.1,0.1,0.2c0.4,0.6,0.9,1.2,1.4,1.8c0,0.1,0.1,0.1,0.1,0.2c0.5,0.6,1,1.2,1.6,1.7
			c0.1,0.1,0.2,0.2,0.3,0.2c0.9,0.8,1.8,1.6,2.9,2.4c0.1,0.1,0.2,0.2,0.3,0.2c0.8,0.6,1.6,1.1,2.5,1.7c0.1,0.1,0.2,0.1,0.2,0.2
			c0,0,0.1,0,0.1,0c0.5,0.3,1,0.6,1.6,0.9c0.6,0.3,1.2,0.6,1.8,1c0.6,0.3,1.3,0.6,2,1c0.3,0.1,0.6,0.3,0.9,0.4
			c0.3,0.1,0.6,0.2,0.8,0.4c0.8,0.4,1.6,0.7,2.5,1c0.1,0,0.1,0,0.1,0.1l0,0c11.9,4.7,27.5,7.7,44.2,9.3c6.3,0.6,12.4,2,18.3,4.1
			c14.7,5.3,28.5,15.6,43,32.2c20.3,23.3,56.3,34.3,71.6,37.6l0,0c0.1-0.9,0.1-1.9,0.1-2.8c0-0.3,0-0.6,0-0.9c0-0.6,0.1-1.3,0.1-1.9
			c0-0.4,0-0.7,0-1.1c0-0.6,0-1.2,0.1-1.7c0-0.4,0-0.7,0-1.1c0-0.4,0-0.9,0-1.3c0-0.1,0-0.3,0-0.4c0-0.2,0-0.4,0-0.6
			c0-0.1,0-0.3,0-0.4c0-0.6,0-1.2,0-1.8c0-0.3,0-0.6,0-0.8c0-0.7,0-1.4,0-2.1c0-0.1,0-0.3,0-0.4c0-3,0-5.9,0.1-8.7
			c0-0.1,0-0.1,0-0.2c0-0.7,0-1.5,0-2.2c0-0.1,0-0.2,0-0.3c0-0.7,0-1.4,0-2.1c0-0.1,0-0.2,0-0.3c0-0.7,0-1.4,0.1-2c0,0,0-0.1,0-0.1
			c0.1-3.6,0.3-6.9,0.7-9.8c0-0.1,0-0.2,0-0.3c0.1-0.5,0.1-0.9,0.2-1.3c0-0.2,0-0.3,0.1-0.5c0.1-0.4,0.2-0.8,0.2-1.2
			c0-0.2,0.1-0.3,0.1-0.5c0-0.1,0-0.1,0.1-0.2c0.1-0.3,0.1-0.6,0.2-0.8c0,0,0-0.1,0-0.1c0-0.1,0.1-0.2,0.1-0.4
			c0.1-0.3,0.2-0.7,0.3-1c0.1-0.2,0.1-0.3,0.2-0.5c0.1-0.3,0.2-0.6,0.3-0.9c0.1-0.1,0.1-0.3,0.2-0.4c0.1-0.3,0.2-0.5,0.4-0.8
			c0.1-0.1,0.1-0.3,0.2-0.4c0.1-0.2,0.3-0.5,0.4-0.7c0.1-0.1,0.2-0.2,0.2-0.3c0.2-0.2,0.3-0.4,0.5-0.6c0.1-0.1,0.2-0.2,0.3-0.3
			c0.2-0.2,0.4-0.3,0.6-0.5c0.1-0.1,0.2-0.1,0.3-0.2c0.1-0.1,0.2-0.2,0.4-0.2c0.1-0.1,0.2-0.1,0.3-0.2c0.1,0,0.2-0.1,0.2-0.1
			c0.2-0.1,0.5-0.2,0.8-0.3c0,0,0.1,0,0.1,0c0.7-0.2,1.6-0.3,2.5-0.3c0.3,0,0.6,0,0.9,0.1c0,0,0,0,0,0L556,301.7z"/>
		<path id="j1_x5F_9" class="st5" d="M677.2,347.6L677.2,347.6c-4.9-8.7-17.9-15.3-32.9-17.6c-17-2.6-69.5-36.6-93-43.4
			c-23.5-6.9-34.4-18-38.9-23.3c-4.5-5.3-14.7-28.6-20.4-32.5c0.9-29.6-22.5-36.1-29.5-37.6c-7-1.5-9.6-22.1-12.3-29
			c-14.2-36.4-37.2-61.5-55.5-75.5c-1.2-0.9-2.5-1.8-3.7-2.7c-6.8-4.8-10.8-5.7-15-3.6c-2.9,1.5-6,4.3-10.1,8.3
			c4,3.9,7.6,8.2,10.8,12.8c2.8,4,5.9,10.9,8.7,19.4c0.1,0.2,0.1,0.4,0.2,0.6c5.2,16,9.5,37.3,9.5,54.9c0.5,7.1,0.8,13.7,0.9,19.3
			c0.1,3.5,0.1,6.6,0.1,9.3c-0.1,3.1,0.2,5.8,0.9,8.1c2.9,10.6,12.3,15.1,24.4,17.7c12,2.6,26.6,3.3,40.1,6.4c1.4,0.3,2.8,0.6,4.2,1
			c4.3,1.1,8.8,4.1,13.1,7.7l0,0.3c6.3,5.5,12.1,12.4,15.8,16.9c23.8,29.1,53.5,32.1,61.5,36.8l0.1,0.1c0,0,0,0,0,0
			c1,0.1,2.1,0.4,3.2,0.9c0.4,0.2,0.9,0.4,1.3,0.5c0.1,0.1,0.3,0.1,0.4,0.2c0.3,0.1,0.7,0.3,1,0.4c0.2,0.1,0.3,0.1,0.5,0.2
			c0.3,0.1,0.7,0.3,1,0.4c0.2,0.1,0.3,0.1,0.5,0.2c0.4,0.2,0.8,0.3,1.1,0.5c0.1,0.1,0.3,0.1,0.4,0.2c0.5,0.2,0.9,0.4,1.4,0.6
			c0.1,0,0.1,0.1,0.2,0.1c0.8,0.3,1.6,0.7,2.4,1.1c0.2,0.1,0.4,0.2,0.7,0.3c0.7,0.3,1.3,0.6,2,0.9c0.1,0.1,0.3,0.1,0.4,0.2v0
			c3.8,1.7,7.8,3.5,12.1,5.5c26,11.9,59.6,28,76.2,33.8c2.2,0.8,5,1.6,8.1,2.5c2.6,0.7,5.5,1.4,8.6,2.1c0.4,0.1,0.9,0.2,1.4,0.3
			C678.7,350.3,678.4,349.3,677.2,347.6z"/>
		<path id="j1_x5F_8" class="st13" d="M360.7,86.1c-0.3-0.2-0.6-0.5-0.9-0.7c-0.2-0.2-0.4-0.3-0.7-0.5c-0.3-0.2-0.6-0.5-0.9-0.7
			c-0.2-0.2-0.5-0.3-0.7-0.5c-0.3-0.2-0.7-0.5-1-0.7c-0.2-0.1-0.4-0.3-0.6-0.4c-0.4-0.3-0.8-0.5-1.2-0.8c-0.2-0.1-0.3-0.2-0.5-0.3
			c-0.5-0.3-1.1-0.7-1.7-1c-0.2-0.1-0.5-0.3-0.7-0.4c-0.3-0.2-0.7-0.4-1-0.6c-0.3-0.1-0.5-0.3-0.8-0.4c-0.3-0.2-0.6-0.3-1-0.5
			c-0.3-0.1-0.6-0.3-0.9-0.4c-0.3-0.1-0.6-0.3-0.9-0.4c-0.3-0.1-0.6-0.3-0.9-0.4c-0.3-0.1-0.6-0.3-0.9-0.4c-0.3-0.1-0.6-0.3-0.9-0.4
			c-0.3-0.1-0.6-0.2-0.9-0.4c-0.3-0.1-0.6-0.2-1-0.4c-0.3-0.1-0.6-0.2-0.9-0.3c-0.7-0.2-1.3-0.4-2-0.6c-0.3-0.1-0.5-0.2-0.8-0.2
			c-0.4-0.1-0.7-0.2-1.1-0.3c-0.3-0.1-0.6-0.2-0.9-0.2c-0.4-0.1-0.8-0.2-1.1-0.3c-0.3-0.1-0.6-0.1-0.9-0.2c-0.4-0.1-0.8-0.1-1.2-0.2
			c-0.3-0.1-0.6-0.1-0.9-0.2c-0.4-0.1-0.8-0.1-1.2-0.2c-0.3,0-0.6-0.1-0.9-0.1c-0.4-0.1-0.8-0.1-1.2-0.1c-0.3,0-0.6-0.1-0.9-0.1
			c-0.4,0-0.9-0.1-1.3-0.1c-0.3,0-0.5,0-0.8,0c-1.6-0.1-3.3-0.1-5-0.1c-0.2,0-0.5,0-0.7,0c-0.5,0-0.9,0-1.4,0.1
			c-0.3,0-0.6,0-0.9,0.1c-0.5,0-0.9,0.1-1.4,0.1c-0.3,0-0.6,0.1-0.9,0.1c-0.5,0-0.9,0.1-1.4,0.2c-0.3,0-0.6,0.1-0.9,0.1
			c-0.5,0.1-0.9,0.1-1.4,0.2c-0.3,0-0.6,0.1-0.9,0.2c-0.5,0.1-1,0.2-1.5,0.3c-0.3,0.1-0.6,0.1-0.9,0.2c-0.5,0.1-1.1,0.2-1.6,0.3
			c0,0,0,0,0,0l0,0c-7.1,4.4-12.6,10.3-8.9,15.8c3.7,5.5,7.1,12.3,8,16l0,0l54.5-19.6C361,86.4,360.8,86.2,360.7,86.1z"/>
		<path id="j1_x5F_7" d="M111,185.2c1.1-0.6,2.3-1,3.5-1.4c1.2-0.5,2.4-0.9,3.6-1.4c1.2-0.5,2.4-0.9,3.6-1.4c1.2-0.5,2.4-1,3.5-1.4
			c1.2-0.5,2.4-1,3.5-1.5c1.2-0.5,2.4-1,3.5-1.5c1.2-0.5,2.4-1,3.5-1.5c1.2-0.5,2.4-1,3.5-1.5c1.2-0.5,2.4-1,3.5-1.5
			c1.2-0.5,2.3-1,3.5-1.5c1.2-0.5,2.3-1,3.5-1.5c1.2-0.5,2.3-1,3.5-1.5c1.2-0.5,2.3-1,3.5-1.5c1.2-0.5,2.3-1,3.5-1.5
			c1.2-0.5,2.3-1,3.5-1.5c1.2-0.5,2.3-1,3.5-1.5c1.2-0.5,2.3-1,3.5-1.5c1.2-0.5,2.3-1,3.5-1.5c1.2-0.5,2.3-1,3.5-1.5
			c1.2-0.5,2.4-1,3.5-1.5c1.2-0.5,2.4-1,3.5-1.5c0.4-0.2,0.8-0.3,1.2-0.5c36.6-15.1,73.3-30.1,110.5-43.7c0.8-0.3,9.9-3.4,9.9-3.6
			c-0.8-3.7-4.3-10.5-8-16c-3.7-5.5,1.8-11.3,8.9-15.8c-3.4,0.8-6.9,1.8-10.6,3.1c-9.1,3.3-20.3,7.8-32.8,12.7
			c-38.2,14.8-89.5,32.5-136.8,27.3c-12.3-1.3-17.6,27.6-17.8,68.2l0.1,0.3c0.2-0.1,0.3-0.2,0.5-0.3
			C110.5,185.4,110.7,185.3,111,185.2z"/>
		<path id="j1_x5F_6" class="st13" d="M377.4,104.6c-0.2-0.4-0.5-0.8-0.7-1.1c-3.3-4.6-6.9-8.9-10.9-12.8c-0.5-0.5-1-0.9-1.5-1.4
			c-0.2-0.2-0.3-0.3-0.5-0.4c-0.3-0.3-0.7-0.6-1-0.9c-0.2-0.2-0.4-0.3-0.6-0.5c-0.3-0.3-0.6-0.5-0.9-0.8c-0.1,0-0.1-0.1-0.2-0.1
			l-54.5,19.6c0.3-0.1-0.5,0.2-1.2,0.4c-2.5,0.9-5.1,1.8-7.6,2.8c-2.1,0.8-4.1,1.5-6.2,2.3c-6.1,2.3-12.1,4.6-18.2,6.9
			c-71.4,27.4-158.1,65-160.8,66c-0.5,0.2-0.9,0.4-1.3,0.5c-0.1,0.1-0.3,0.1-0.4,0.2c-0.3,0.1-0.6,0.3-0.9,0.5
			c-0.2,0.1-0.4,0.2-0.5,0.3c-2.3,1.5-3.4,3.4-3.6,6.5c0,0.3-0.1,0.7-0.1,1.2c0,0.3-0.1,0.7-0.1,1.1c-1.1,9.5-5.6,41.6-6.8,61.4
			c7.5,3.2,70.7,29.8,123.5,34c1,0.1,2,0.1,3.1,0.2c0.3,0,0.7,0,1,0c2.9,0.1,6,0,9.2-0.2c1.4-8.2,7-20.1,20.2-28.8
			c8.7-5.7,60.2-36.4,98.2-59.5c4.1-2.5,7.9-4.8,11.6-7.1c12-7.4,21.7-13.4,26.6-16.7l2.5,0.3l0.1,0
			C395.1,151.9,385.4,117.2,377.4,104.6z"/>
		<path id="j1_x5F_5" d="M394.9,298.8c2.4,11.5,3.5,21.1,3.5,29.1c-0.1,28.4-15.1,36.1-43.8,32.3c-7.5-1-16-2.7-25.3-5.1
			c-10.2-2.6-68.9-18.8-118-32.5c-29.2-8.1-55-15.3-65.3-18.2c-0.4-0.1-0.8-0.2-1.1-0.3c-11.7-3.3-25-8.4-35.9-13.5
			c-10.4-4.9-18.6-9.8-21.4-13.3c-0.4-0.6-0.8-1.1-0.9-1.6c-2,9.1-3.5,20.4-4.8,31.8l0.3-1.1c2.2,1.4,4.7,2.9,7.3,4.2
			c10.9,5.7,25.4,10.9,40.8,16.1c28,9.3,59.1,18.4,78.4,29.5l0,0c45.2,13.3,99.4,34.9,145.8,45.3c37.4,8.3,69.8,9.4,88.2-7.1
			c1.4-1.2,2.6-2.5,3.8-3.9C470.3,362.7,431.3,317.1,394.9,298.8z"/>
		<path id="j1_x5F_4" class="st5" d="M544.6,358.1c-15.3-3.3-51.3-14.3-71.6-37.6c-20.3-23.3-39.3-34.2-61.3-36.3
			c-16.7-1.6-32.3-4.7-44.2-9.3c-2.2-0.9-4.4-1.8-6.3-2.8c-0.6-0.3-1.2-0.6-1.8-1c-0.5-0.3-1.1-0.6-1.6-0.9c0,0-0.1,0-0.1,0
			c-1.1-0.7-2.1-1.3-3.1-2.1c-3.7-2.7-6.4-5.8-7.9-9.3c-0.1-0.3-0.3-0.7-0.4-1c-0.2-0.5-0.3-1-0.5-1.5c0,0,0,0,0,0c0,0,0,0,0,0
			c0,0,0-0.1,0-0.1c-0.1-0.3-0.2-0.7-0.2-1c0,0,0,0,0,0c0,0,0-0.1,0-0.1c0,0,0,0,0,0c-0.1-0.4-0.1-0.7-0.1-1.1c0-0.3-0.1-0.7-0.1-1
			c0,0,0-0.1,0-0.1c0-0.4,0-0.8,0-1.2c0-0.9,0.1-1.8,0.2-2.7l-0.2-0.3c-12.5,13.3-69.5,38.8-109.7,41.7c-4.7,0.3-9.1,0.4-13.3,0
			c-52.8-4.2-116-30.8-123.5-34c-5-2.1-8.7,5.1-11.5,16.8l0.3,4.4c0.7,0.9,1.7,1.8,3,2.8c0,0,0.1,0,0.1,0.1c0.3,0.2,0.6,0.4,0.9,0.7
			c0.1,0.1,0.2,0.1,0.2,0.2c0.3,0.2,0.6,0.4,0.9,0.7c0.1,0.1,0.2,0.1,0.3,0.2c0.3,0.2,0.6,0.4,1,0.7c0.1,0.1,0.2,0.1,0.3,0.2
			c1.1,0.7,2.2,1.4,3.5,2.1c0.2,0.1,0.4,0.2,0.6,0.4c0.3,0.2,0.6,0.3,0.9,0.5c0.3,0.2,0.6,0.3,0.9,0.5c0.3,0.2,0.6,0.3,0.9,0.5
			c0.3,0.2,0.7,0.3,1,0.5c0.3,0.1,0.6,0.3,0.9,0.4c0.4,0.2,0.8,0.4,1.1,0.6c0.3,0.1,0.5,0.3,0.8,0.4c0.4,0.2,0.9,0.4,1.3,0.6
			c0.2,0.1,0.5,0.2,0.7,0.3c0.7,0.3,1.4,0.7,2.1,1c10.9,5.1,24.2,10.1,35.9,13.5c1.7,0.5,3.9,1.1,6.7,1.9
			c19.5,5.5,170.5,47.3,177.7,49.1c10.5,2.6,19.8,4.5,27.9,5.4c0.1,0,0.1,0,0.2,0c3.4,0.4,6.5,0.6,9.5,0.6c0.1,0,0.3,0,0.4,0
			c0.7,0,1.3,0,2,0c0.1,0,0.3,0,0.4,0c2-0.1,4-0.3,5.8-0.6c0.1,0,0.2,0,0.2,0c0.5-0.1,1-0.2,1.5-0.3c0.2,0,0.4-0.1,0.6-0.1
			c0.5-0.1,0.9-0.2,1.4-0.3c0.2-0.1,0.4-0.1,0.6-0.2c1.5-0.4,2.8-0.9,4.1-1.5c0.2-0.1,0.4-0.2,0.6-0.3c0.3-0.2,0.7-0.3,1-0.5
			c0.2-0.1,0.5-0.3,0.7-0.4c0.3-0.2,0.6-0.4,0.9-0.6c0.2-0.2,0.5-0.3,0.7-0.5c0.3-0.2,0.6-0.4,0.8-0.6c0.4-0.4,0.9-0.7,1.3-1.1
			c0.2-0.2,0.4-0.4,0.6-0.6c0.2-0.2,0.5-0.5,0.7-0.7c0.2-0.2,0.4-0.5,0.6-0.7c0.2-0.3,0.4-0.5,0.6-0.8c0.2-0.2,0.4-0.5,0.5-0.7
			c0.2-0.3,0.4-0.7,0.7-1c0.1-0.2,0.3-0.4,0.4-0.6c0.3-0.6,0.6-1.1,0.9-1.7c0.1-0.2,0.2-0.5,0.3-0.7c0.2-0.4,0.4-0.8,0.5-1.3
			c0.1-0.3,0.2-0.6,0.3-0.8c0.2-0.4,0.3-0.9,0.4-1.3c0.1-0.3,0.2-0.5,0.2-0.8c0.2-0.6,0.3-1.2,0.5-1.9c0-0.1,0.1-0.3,0.1-0.4
			c0.2-0.8,0.3-1.6,0.4-2.4c0-0.3,0.1-0.5,0.1-0.8c0.1-0.6,0.2-1.2,0.2-1.8c0-0.3,0.1-0.6,0.1-1c0.1-0.6,0.1-1.3,0.1-2
			c0-0.3,0-0.6,0-0.9c0-1,0.1-2,0.1-3c0-8-1.2-17.6-3.5-29.1c36.4,18.3,75.3,63.9,51.7,91.7c-1.2,1.4-2.5,2.7-3.8,3.9
			c-0.6,0.5-1.2,1.1-1.8,1.6c-0.2,0.2-0.4,0.3-0.6,0.5c-0.4,0.3-0.8,0.6-1.3,1c-0.3,0.2-0.5,0.4-0.8,0.5c-0.4,0.3-0.8,0.5-1.2,0.8
			c-0.3,0.2-0.6,0.4-0.9,0.5c-0.4,0.2-0.8,0.5-1.2,0.7c-0.3,0.2-0.6,0.3-1,0.5c-0.4,0.2-0.8,0.4-1.2,0.6c-0.3,0.2-0.7,0.3-1,0.5
			c-0.4,0.2-0.8,0.4-1.2,0.5c-0.4,0.2-0.7,0.3-1.1,0.5c-0.4,0.2-0.8,0.3-1.2,0.5c-0.4,0.1-0.8,0.3-1.1,0.4c-0.4,0.1-0.8,0.3-1.3,0.4
			c-0.4,0.1-0.8,0.3-1.2,0.4c-0.4,0.1-0.8,0.2-1.3,0.4c-0.4,0.1-0.8,0.2-1.3,0.3c-0.4,0.1-0.8,0.2-1.3,0.3c-0.4,0.1-0.9,0.2-1.3,0.3
			c-0.4,0.1-0.8,0.2-1.2,0.2c-0.5,0.1-1,0.2-1.5,0.3c-0.3,0-0.6,0.1-0.9,0.1c-1.4,0.2-2.9,0.4-4.4,0.6c0,0,0,0-0.1,0
			c-0.7,0.1-1.3,0.1-2,0.2c-0.3,0-0.5,0.1-0.8,0.1c-0.6,0-1.3,0.1-1.9,0.1c-0.3,0-0.6,0-0.9,0.1c-0.6,0-1.3,0.1-2,0.1
			c-0.3,0-0.6,0-1,0c-0.7,0-1.3,0-2,0c-0.3,0-0.6,0-1,0c-0.7,0-1.4,0-2.1,0c-0.3,0-0.6,0-0.9,0c-0.7,0-1.5,0-2.2-0.1
			c-0.3,0-0.6,0-0.9,0c-0.8,0-1.5-0.1-2.3-0.1c-0.2,0-0.5,0-0.7,0c-0.8-0.1-1.7-0.1-2.5-0.2c-0.2,0-0.4,0-0.5,0
			c-0.9-0.1-1.8-0.2-2.7-0.3c-0.1,0-0.1,0-0.2,0c-9.5-1-19.6-2.7-30-5.1v0c-43.6-9.7-94.2-29.4-137.6-42.8c-2.8-0.9-5.5-1.7-8.2-2.5
			l0,0c3.1,1.8,5.8,3.6,8.2,5.5c4.6,3.6,7.8,7.3,9.3,11.4c6.7,18.5,34,74.2,38.3,84.3v0c29.5,1.3,60.3,2.9,90.7,4.8
			c2.7,0.2,5.4,0.3,8.1,0.5c1.2,0.1,2.3,0.2,3.5,0.2c1.7,0.1,3.5,0.2,5.2,0.3c1.3,0.1,2.5,0.2,3.8,0.3c1.7,0.1,3.3,0.2,5,0.3
			c1.2,0.1,2.4,0.2,3.7,0.3c1.9,0.1,3.8,0.3,5.7,0.4c0.9,0.1,1.9,0.1,2.8,0.2c2.7,0.2,5.4,0.4,8.1,0.6c1,0.1,2,0.2,3,0.2
			c1.8,0.1,3.6,0.3,5.4,0.4c1.1,0.1,2.3,0.2,3.4,0.3c1.8,0.1,3.5,0.3,5.3,0.4c1,0.1,2.1,0.2,3.1,0.3c2.2,0.2,4.4,0.4,6.5,0.5
			c0.6,0,1.1,0.1,1.7,0.1c2.7,0.2,5.4,0.5,8,0.7c0.9,0.1,1.7,0.2,2.5,0.2c1.9,0.2,3.7,0.3,5.6,0.5c1,0.1,1.9,0.2,2.9,0.3
			c1.8,0.2,3.6,0.3,5.4,0.5c0.9,0.1,1.7,0.2,2.6,0.3c2.4,0.2,4.8,0.5,7.2,0.7c0.2,0,0.4,0,0.6,0.1c2.6,0.3,5.1,0.5,7.6,0.8
			c0.7,0.1,1.5,0.2,2.2,0.2c1.8,0.2,3.6,0.4,5.4,0.6c0.8,0.1,1.6,0.2,2.5,0.3c1.8,0.2,3.5,0.4,5.3,0.6c0.7,0.1,1.4,0.2,2.1,0.3
			c2.4,0.3,4.8,0.6,7.2,0.9c0,0,0,0-0.1,0v-0.8c5.8-11.1,14.8-27.1,23.3-43.4c9.3-17.9,18.1-36.2,21.4-49
			C543.3,374.1,544.2,366.1,544.6,358.1L544.6,358.1z"/>
		<path id="j1_x5F_3_1_" class="st5" d="M933.3,424.8c-0.3-4-5.2-9.3-10.9-8.3l-0.3,0c-0.4,1-1,1.7-1.9,2.2
			c-24.4,12.3-207.6,73-347.4,65.6c-1.7-0.1-3.4-0.2-5.1-0.3c-0.1,0-0.2,0-0.4,0c-3.3-0.2-6.7-0.5-10-0.8c-0.2,0-0.4,0-0.7-0.1
			c-1.6-0.2-3.3-0.3-4.9-0.5c0,0-0.1,0-0.1,0c-1.5-0.2-3-0.3-4.5-0.5c-0.3,0-0.6-0.1-0.9-0.1c-1.5-0.2-3.1-0.4-4.6-0.6
			c-0.1,0-0.1,0-0.2,0c-1.4-0.2-2.9-0.4-4.3-0.6c-0.4-0.1-0.7-0.1-1.1-0.2c-1.5-0.2-2.9-0.5-4.4-0.7c-1.6-0.3-3.2-0.5-4.8-0.8
			c-0.5-0.1-1-0.2-1.6-0.3c-1.1-0.2-2.3-0.4-3.4-0.5c-0.6-0.1-1.2-0.2-1.8-0.3c-1.2-0.2-2.5-0.4-3.7-0.6c-0.5-0.1-1-0.1-1.4-0.2
			c-1.6-0.2-3.2-0.5-4.9-0.7c-0.8-0.1-1.5-0.2-2.3-0.3c-1-0.1-2-0.3-3-0.4c-0.9-0.1-1.7-0.2-2.6-0.4c-0.9-0.1-1.9-0.3-2.8-0.4
			c-0.9-0.1-1.8-0.2-2.6-0.3c-40.9-5.2-90.9-9.3-142.1-12.5c-98.2-6.1-200.4-8.9-249.9-10.6c-16.6-0.6-27.4-0.2-30.7-5.6l0,0
			c-11,0.5-10.7,9.6-10.5,23.8c0.1,7.3,1.5,34.4,4.1,52.8c0.2,1.4,0.4,2.6,0.7,3.9c5,5.2,16.2,10.2,29,11.7
			c12.8,1.5,62.2,5.5,66,5.5c15,0,16-10.8,30-10c8,0.4,85.5,4,120.1,4.1c36.7,0.2,82,11.2,122,13.2c18.3,0.9,124.8,2.1,171.7-5
			c133.7-20.3,290.8-82.7,328.2-102.7l0,0C934.5,435.8,933.7,429.1,933.3,424.8z"/>
		<path id="j1_x5F_2" class="st13" d="M935.2,443.1L935.2,443.1c-37.4,20-194.6,82.4-328.2,102.7c-46.9,7.1-153.4,6-171.7,5
			c-40-2-85.3-13-122-13.2c-34.6-0.1-112.1-3.7-120.1-4.1c-14-0.8-15,10-30,10c-3.8,0-53.2-4-66-5.5c-12.7-1.5-24-6.5-29-11.7
			c4.1,18.9,16.9,21.5,22.8,23c9,2.3,48.7,6.4,80.2,8.9c1.2,0.1,2.4,0.2,3.6,0.3c2.3,0.2,4.6,0.4,6.8,0.5c6,0.4,13.2,0.9,21.4,1.4
			c1.2,0.1,2.4,0.1,3.6,0.2c7.9,0.4,16.6,0.9,26,1.3c1.2,0.1,2.4,0.1,3.6,0.2c8.8,0.4,18.2,0.8,28.1,1.2c1.2,0,2.4,0.1,3.6,0.1
			c9.4,0.4,19.1,0.7,29.3,1c1.2,0,2.4,0.1,3.6,0.1c9.2,0.3,18.6,0.6,28.3,0.8c1.2,0,2.4,0.1,3.6,0.1c66.3,1.8,141.8,2.7,207.4,1.4
			c1.2,0,2.4,0,3.6-0.1c13.8-0.3,27.1-0.6,39.7-1.1c1.2,0,2.4-0.1,3.6-0.1c14.4-0.6,27.9-1.3,40.3-2.2c1.2-0.1,2.4-0.2,3.6-0.3
			c12.7-0.9,24.1-2.1,34-3.4c1.2-0.2,2.4-0.3,3.5-0.5c2.4-0.3,4.7-0.7,6.8-1.1c10.6-1.8,20.9-3.6,31-5.4c1.2-0.2,2.4-0.4,3.5-0.6
			c134.7-24.5,224.8-52.3,227-76.6C937.5,467.5,936.4,454.5,935.2,443.1z"/>
		<path id="j1_x5F_1" class="st13" d="M226.3,373.1c-2.2-6.2-8.6-11.7-17.5-16.9c-32.5-18.6-99-31.8-126.5-49.8l-0.3,1.1
			c-0.5,4.4-0.9,8.8-1.3,13.2c0,0.3,0,0.5-0.1,0.8c-0.3,2.9-0.5,5.8-0.8,8.6c-0.5,5.8-1.1,12.3-1.6,19.3c-2.6,34-5.4,78.5-5.4,92
			c0,1.8,0.4,3.3,1.1,4.5c3.3,5.4,14.1,5,30.7,5.6c34.3,1.2,93.9,2.9,159.9,5.8v0C260.3,447.3,233,391.6,226.3,373.1z"/>
	</g>
</g>
</svg>
