<?xml version="1.0" encoding="utf-8"?>
<!-- Generator: Adobe Illustrator 24.3.0, SVG Export Plug-In . SVG Version: 6.00 Build 0)  -->
<svg version="1.1" id="shapes" xmlns="http://www.w3.org/2000/svg" xmlns:xlink="http://www.w3.org/1999/xlink" x="0px" y="0px"
	 viewBox="0 0 960 677.7" style="enable-background:new 0 0 960 677.7;" xml:space="preserve">
<g id="jordan38">
	<path id="j38_x5F_27" class="st7" d="M484.1,362.4c1.5,2.8,8.8,7.7,16,5.1c4.7-1.7,8.7-4.8,12.6-6c0,0,0,0,0,0
		c-5.6-2.7-30.2-12.3-36-15c0.8,1.3,1.3,2.6,1.8,3.8C479.6,353,482.6,359.5,484.1,362.4z"/>
	<path id="j38_x5F_26" class="st7" d="M556.5,392.4c0.6,2.1,8.3,7.9,16.5,5.4c5-1.5,8.2-3.4,11.2-4.2
		c-4.9-3.1-26.4-12.3-31.3-14.4c0.4,1.1,0.6,2.2,0.9,3.3C554.6,385.1,556,390.3,556.5,392.4z"/>
	<path id="j38_x5F_25" class="st7" d="M633.1,427.5c2.8,1.5,9.9,2.8,17.1-2.3c1.5-1,2.7-1.7,3.9-2.2c0,0,0,0,0,0
		c-3.5-1.3-25.2-9.2-28.2-10.6l0,0c0.9,1.3,1.4,2.7,1.7,4.2C628,419.8,630.3,426,633.1,427.5z"/>
	<path id="j38_x5F_24" class="st7" d="M701.8,442.5c1.5,3.9,4.6,13.3,16.2,13.5c5-5.4,9-9.9,9.9-11.4c1.1-1.8,0.6-4.2,0.9-5.9l0,0
		c-7.6-1.5-25.2-3.1-33-3l0,0C698.4,437.3,700.7,439.7,701.8,442.5z"/>
	<path id="j38_x5F_23" d="M859.3,502.4c-4.9,0.3-57.2,3.4-68.1,3.6l0,0c6.6,0.3,11.6,2.1,11.7,10.5c0,2.2,0,5.3,0.1,8.8
		c0,13.4-0.1,33.6-0.1,40.9c3.2-1,6.4-2.1,9.3-3.2c20.3-7.4,39.9-31.3,49.9-45.4c0.1-0.1,0.1-0.2,0.2-0.3c0.4-0.6,0.9-1.2,1.3-1.8
		c0.3-0.4,0.6-0.8,0.8-1.2c2.3-3.4,4-6.5,5.5-9.2C869.4,501.9,864.2,502.2,859.3,502.4z"/>
	<path id="j38_x5F_22" class="st3" d="M802.9,525.3L802.9,525.3c0-0.1,0-0.1,0-0.2c0-0.7,0-1.4,0-2.1c0-0.1,0-0.2,0-0.3
		c0-0.7,0-1.4,0-2c0-0.1,0-0.2,0-0.3c0-0.2,0-0.5,0-0.7c0-0.2,0-0.3,0-0.5c0-0.2,0-0.4,0-0.5c0-0.2,0-0.4,0-0.6c0-0.1,0-0.3,0-0.4
		c0-0.3,0-0.7,0-1c-0.1-8.4-5.1-10.2-11.7-10.5c-1.9-0.1-4,0-6.1,0c-9.3,0.3-21.3,0.7-39.4,1.3s-24.5,7.3-27.2,13.3
		c-0.6,1.4-1.7,3.6-3,6.2c-1.1,2.2-2.4,4.8-3.9,7.6c-3,5.8-6.6,12.6-9.9,19.1c-0.9,1.8-1.9,3.6-2.7,5.3c-3,5.9-7.9,14.7-13.1,23.5
		c-0.6,1-1.2,2-1.7,2.9c-0.3,0.6-0.7,1.1-1,1.7c-0.2,0.4-0.5,0.8-0.7,1.2c-0.4,0.7-0.9,1.5-1.3,2.2c-0.1,0.2-0.2,0.4-0.4,0.6
		c-0.5,0.8-1,1.7-1.5,2.5c0,0.1-0.1,0.2-0.1,0.2c-2.2,3.6-4.3,6.9-6.3,9.8c-0.2,0.3-0.5,0.7-0.7,1c0,0,0,0,0,0
		c0.5-0.1,1-0.2,1.4-0.3c26.2-5.7,35.1-29.8,37.6-36.7c0.7-1.8,1.7-4.7,3-8c3.2-8.3,7.7-19.8,10.6-26.3c0.4-1,0.8-1.9,1.2-2.6
		c3.7-7.5,8.3-14.2,17.2-14.6s29.7-1.1,37.6-1.3c7.9-0.1,11.5,4.2,11.5,9.2c0,0.7,0,1.6,0,2.6c0,5.8,0.1,15.6,0,20.9
		c-0.1,6.2-0.8,9.6-2.1,11.7c-1.3,2.1-4.6,8.6-7.7,13.1c0.4-0.1,0.8-0.2,1.3-0.3c0.6-0.1,1.1-0.3,1.7-0.4c0.8-0.2,1.7-0.4,2.5-0.6
		c0.8-0.2,1.5-0.4,2.3-0.6c0.6-0.2,1.2-0.3,1.7-0.5c2.8-0.8,5.6-1.6,8.4-2.5c0.8-0.3,1.7-0.5,2.5-0.8
		C802.8,558.8,802.9,538.7,802.9,525.3z"/>
	<path id="j38_x5F_21" class="st0" d="M600.9,588.6c-1,0.1-1.9,0.1-2.8,0.2c-0.1,0-0.2,0-0.3,0c-0.3,0-0.6,0-1,0.1
		c-0.1,0-0.2,0-0.3,0c-0.4,0-0.8,0-1.1,0.1c0.6,0.6,1.1,1.2,1.7,1.8c0.2,0.2,0.3,0.3,0.5,0.5c0.5,0.5,0.9,0.9,1.4,1.4
		c0.2,0.2,0.3,0.3,0.4,0.5c0.6,0.6,1.2,1.2,1.8,1.8c0,0,0,0,0,0c0.6,0.6,1.2,1.2,1.8,1.8c0.1,0.1,0.2,0.2,0.4,0.4
		c0.5,0.5,1.1,1.1,1.6,1.6c0.1,0.1,0.1,0.1,0.2,0.2c1.2,1.2,2.4,2.3,3.5,3.4c0.1,0.1,0.1,0.1,0.2,0.2c0.5,0.5,1.1,1,1.6,1.5
		c0,0,0,0,0,0l0,0c0.2,0.2,0.4,0.4,0.6,0.5c0.1,0.1,0.2,0.2,0.3,0.3c0.2,0.2,0.5,0.4,0.7,0.6c0.2,0.2,0.4,0.3,0.5,0.5
		c0.1,0.1,0.2,0.2,0.3,0.3c0.2,0.2,0.4,0.3,0.5,0.5c0.1,0.1,0.1,0.1,0.2,0.2c0.2,0.2,0.4,0.3,0.6,0.5c0.1,0,0.1,0.1,0.2,0.1
		c0.2,0.1,0.4,0.3,0.5,0.4c1,0.7,1.7,1.5,2.1,2.2c23.9,0.2,42.2,0,55-5.6c0.2-0.3,0.5-0.7,0.7-1c1.9-2.9,4-6.2,6.3-9.8
		c0-0.1,0.1-0.2,0.1-0.2c0.5-0.8,1-1.6,1.5-2.5c0.1-0.2,0.2-0.4,0.4-0.6c0.4-0.7,0.9-1.5,1.3-2.2c0.2-0.4,0.5-0.8,0.7-1.2
		c0.3-0.6,0.7-1.1,1-1.7c0.6-1,1.2-2,1.7-2.9C672,581.4,623.6,586.9,600.9,588.6z"/>
	<path id="j38_x5F_20" class="st6" d="M699.7,539.8c-7.7,4.4-16.1,7.3-21.6,7.6c-0.3,0-0.6,0-0.9,0c-0.1,0-0.2,0-0.2,0
		c-0.3,0-0.7,0-1,0c-0.1,0-0.2,0-0.4,0c-0.3,0-0.6,0-0.9,0c-0.2,0-0.4,0-0.7,0c-0.3,0-0.5,0-0.8,0c-0.2,0-0.5,0-0.8,0
		c-16.3,0.6-55.2,1.3-79.7,0.7c-28.2-0.8-90.8-10.7-125.6-18.1c22.7,7.4,73.4,23.4,90.5,29.5c19.3,6.9,25.3,14.3,30.6,21
		c1.5,2,4.2,4.9,7.2,8.1c1.6-0.1,3.4-0.2,5.4-0.4c22.8-1.7,71.2-7.2,85-6.4c5.2-8.8,10-17.5,13.1-23.5c0.9-1.7,1.8-3.5,2.7-5.3
		c5-9.6,10.3-19.8,13.8-26.6C712,531.7,706.1,536.2,699.7,539.8z"/>
	<path id="j38_x5F_19" class="st3" d="M615.1,607.7c-0.1-0.1-0.3-0.2-0.5-0.4c0,0-0.1-0.1-0.2-0.1c-0.2-0.1-0.4-0.3-0.6-0.5
		c-0.1-0.1-0.1-0.1-0.2-0.2c-0.2-0.1-0.3-0.3-0.5-0.5c-0.1-0.1-0.2-0.2-0.3-0.3c-0.2-0.2-0.4-0.3-0.5-0.5c-0.2-0.2-0.4-0.4-0.7-0.6
		c-0.1-0.1-0.2-0.2-0.3-0.3c-0.2-0.2-0.4-0.4-0.6-0.5l0,0c0,0,0,0,0,0c-0.5-0.5-1-0.9-1.6-1.5c-0.1-0.1-0.1-0.1-0.2-0.2
		c-1.1-1-2.3-2.2-3.5-3.4c-0.1-0.1-0.1-0.1-0.2-0.2c-0.5-0.5-1.1-1-1.6-1.6c-0.1-0.1-0.2-0.2-0.4-0.4c-0.6-0.6-1.2-1.2-1.8-1.8
		c0,0,0,0,0,0c-0.6-0.6-1.2-1.2-1.8-1.8c-0.2-0.2-0.3-0.3-0.4-0.5c-0.5-0.5-0.9-0.9-1.4-1.4c-0.2-0.2-0.3-0.3-0.5-0.5
		c-0.1-0.1-0.2-0.2-0.3-0.3c-0.5-0.5-0.9-1-1.4-1.4c-3-3.2-5.7-6.1-7.2-8.1c-5.3-6.8-11.3-14.1-30.6-21
		c-17.1-6.2-67.8-22.2-90.5-29.5c0,0,0,0,0,0c-2.9-1-5.4-1.8-7.3-2.4c-16.3-5.4-141.4-36.3-160-40.3c-18.6-3.9-33.8-7.9-54.3-1.1
		c-4.9,1.6-9.7,3.4-14.1,5.2c4.6,1.7,20,8.3,23.9,9.9c0,0,0,0,0,0c11.8-2.9,26.4-3.6,50.8,1c42.8,8.1,116.9,27.6,144,35.1
		c4.4,1.2,9.8,3,15.7,5c30.6,10.7,77.3,30.6,93.1,37.4c12.2,5.2,20,10.6,26.1,15.4c3.4,2.7,6.2,5.2,9,7.5c0.5,0.4,0.9,0.7,1.4,1.1
		c0.2,0.1,0.3,0.2,0.5,0.3c0.3,0.2,0.6,0.4,0.9,0.6c0.2,0.1,0.4,0.2,0.5,0.3c0.3,0.2,0.6,0.3,0.8,0.5c0.2,0.1,0.4,0.2,0.6,0.3
		c0.3,0.1,0.5,0.3,0.8,0.4c0.2,0.1,0.4,0.2,0.6,0.3c0.3,0.1,0.5,0.2,0.8,0.4c0.2,0.1,0.4,0.2,0.6,0.2c0.3,0.1,0.5,0.2,0.8,0.3
		c0.2,0.1,0.4,0.1,0.6,0.2c0.3,0.1,0.6,0.2,0.9,0.3c0.2,0.1,0.3,0.1,0.5,0.2c0.4,0.1,0.9,0.2,1.3,0.4c0.2,0,0.3,0.1,0.5,0.1
		c0.3,0.1,0.6,0.1,0.9,0.2c0.2,0,0.4,0.1,0.6,0.1c0.2,0,0.5,0.1,0.7,0.1c0.2,0,0.4,0.1,0.7,0.1c0,0,0,0,0,0c0.2,0,0.4,0.1,0.6,0.1
		c0.2,0,0.5,0.1,0.7,0.1c0.2,0,0.4,0,0.6,0.1c0.2,0,0.5,0,0.7,0.1c0.2,0,0.4,0,0.6,0c0.3,0,0.5,0,0.8,0c0.2,0,0.3,0,0.5,0
		c0.3,0,0.6,0,0.9,0c0.9,0,1.8,0.1,2.8,0.1C616.8,609.2,616.1,608.4,615.1,607.7z"/>
	<path id="j38_x5F_18" class="st7" d="M792.3,523.7c0-4.9-3.5-9.3-11.5-9.2c-7.9,0.1-28.8,0.8-37.6,1.3s-13.5,7.2-17.2,14.6
		c-3.7,7.5-12.2,29.8-14.8,36.9c-2.5,6.9-11.4,31-37.6,36.7c-0.5,0.1-1,0.2-1.4,0.3c0,0,0,0,0,0c-12.7,5.6-31,5.8-55,5.6
		c-1,0-1.9,0-2.8-0.1c-0.3,0-0.6,0-0.9,0c-0.2,0-0.3,0-0.5,0c-0.3,0-0.5,0-0.8,0c-0.2,0-0.4,0-0.6,0c-0.2,0-0.5,0-0.7-0.1
		c-0.2,0-0.4,0-0.6-0.1c-0.2,0-0.5-0.1-0.7-0.1c-0.2,0-0.4-0.1-0.6-0.1c0,0,0,0,0,0c-0.2,0-0.4-0.1-0.7-0.1c-0.2,0-0.5-0.1-0.7-0.1
		c-0.2,0-0.4-0.1-0.6-0.1c-0.3-0.1-0.6-0.1-0.9-0.2c-0.2,0-0.3-0.1-0.5-0.1c-0.4-0.1-0.9-0.2-1.3-0.4c-0.2,0-0.3-0.1-0.5-0.2
		c-0.3-0.1-0.6-0.2-0.9-0.3c-0.2-0.1-0.4-0.1-0.6-0.2c-0.3-0.1-0.5-0.2-0.8-0.3c-0.2-0.1-0.4-0.2-0.6-0.2c-0.3-0.1-0.5-0.2-0.8-0.4
		c-0.2-0.1-0.4-0.2-0.6-0.3c-0.3-0.1-0.5-0.3-0.8-0.4c-0.2-0.1-0.4-0.2-0.6-0.3c-0.3-0.2-0.6-0.3-0.8-0.5c-0.2-0.1-0.4-0.2-0.5-0.3
		c-0.3-0.2-0.6-0.4-0.9-0.6c-0.2-0.1-0.3-0.2-0.5-0.3c-0.5-0.3-0.9-0.7-1.4-1.1c-7.9-6.4-16.1-14.8-35.1-22.9
		c-19-8.1-81.8-34.9-108.8-42.4c-27.1-7.5-101.2-27-144-35.1c-42.8-8.1-55.4,0.2-75.6,7.9c-20.3,7.7-0.2,16.9,6,20.5
		c4.9,2.8,34,17.7,46.2,23.7s52.4,21.4,61.9,25.3s28.4,5.4,39.1,0.6s27-10.1,35.8-13.1c8.7-3,17.5-4.3,30.7,3.6
		c10.1,6,42.6,25.4,50.3,30.7c2.4,0,4.4,0.1,5.6,0.1c9.9,0,54.4,1.3,63.2,1.3c8.7,0,10.5,1.1,12.9,2.3c2.3,1.1,8.6,5,15.9,8
		c6.4,2.6,13.7,2.5,19.1,2.5c0.7,0,1.4,0,2.1,0c0.2,0,0.3,0,0.5,0.1c10,0.1,30.4-0.2,45.2-3.5c0.6-0.2,1.2-0.3,2-0.5
		c1.6-0.3,3.8-0.5,6.6-0.7c9.4-0.6,29.4-17,35.1-21.6c6.3-5.1,8.1-8.6,26.3-9.8c1.7-0.1,3.4-0.2,5.1-0.4c0.5,0,0.9-0.1,1.4-0.1
		c1.5-0.1,2.9-0.3,4.4-0.5c0.3,0,0.6-0.1,0.8-0.1c1.7-0.2,3.5-0.4,5.2-0.7c0.5-0.1,1-0.1,1.4-0.2c1.4-0.2,2.8-0.4,4.2-0.6
		c0.5-0.1,0.9-0.1,1.4-0.2c1.7-0.3,3.5-0.6,5.2-0.9c0.5-0.1,1-0.2,1.4-0.3c1.3-0.3,2.7-0.5,4-0.8c0.6-0.1,1.2-0.2,1.8-0.4
		c1.7-0.4,3.4-0.7,5.1-1.1c0.5-0.1,1-0.2,1.5-0.3c1.3-0.3,2.5-0.6,3.7-0.9c0.4-0.1,0.7-0.2,1.1-0.3c3.1-4.5,6.4-11,7.7-13.1
		c1.3-2.1,2-5.5,2.1-11.7C792.4,541,792.3,528.6,792.3,523.7z"/>
	<path id="j38_x5F_17_1_" class="st0" d="M437.8,592.1c-16.9,0.8-50.4,2.8-89.5,5.6c-2.5,0.2-5,0.4-7.5,0.5
		c-0.5,0-1.1,0.1-1.6,0.1c-2,0.1-3.9,0.3-5.8,0.4c-0.5,0-1,0.1-1.4,0.1c-2,0.1-3.9,0.3-5.9,0.4c-0.4,0-0.8,0.1-1.2,0.1
		c-2,0.2-4.1,0.3-6.1,0.5c-0.2,0-0.4,0-0.6,0c-2.2,0.2-4.4,0.4-6.6,0.5c-0.1,0-0.2,0-0.3,0c-2.3,0.2-4.6,0.4-6.8,0.6c0,0,0,0,0,0
		c-4.6,0.4-9.2,0.8-13.7,1.2c0,0,0,0,0,0c-16.6,1.4-31.8,2.9-45.2,4.3c9.2,3.8,13.2,4.8,20.2,4.7c2,0,5.4-0.1,9.8-0.3
		c8.3-0.3,20-0.7,31.9-1c0,0,0,0,0,0c1.4,0,2.8-0.1,4.1-0.1c2.6-0.1,5.1-0.1,7.6-0.2c10.4-0.2,29.5-1.6,49-3.3
		c3.1-0.3,6.2-0.5,9.2-0.8c18.1-1.6,35.4-3.2,45.3-4c5.7-0.5,13.3-0.7,21.5-0.8c1.3,0,2.6,0,3.9,0c1.3,0,2.6,0,3.9,0c2,0,4,0,6,0
		c1.3,0,2.7,0,4,0c6.7,0.1,13.3,0.2,19.4,0.3C467.6,591.4,454.7,591.3,437.8,592.1z"/>
	<path id="j38_x5F_16" d="M467.1,530.3C467.1,530.3,467.1,530.3,467.1,530.3c34.8,7.4,97.5,17.3,125.6,18.1
		c23.9,0.6,61.6-0.1,78.6-0.7c3-0.1,5.4-0.2,6.9-0.3c5.5-0.3,13.9-3.2,21.6-7.6c4-10.1,5.6-25.6,0.7-40.5c-4.9-15-22.3-25-38.7-30.8
		s-56.3-21.6-92.3-36.4c-28.2-11.6-67-27.6-88.8-35.4c-28.6,23.3-125.7,84-156.7,96.7v0c42.6,10.3,123,30.3,135.9,34.6
		C461.7,528.5,464.2,529.3,467.1,530.3z"/>
	<path id="j38_x5F_15" class="st7" d="M889.8,485.7c-0.9,0.2-1.9,0.6-3,1.1c-10.4,4.7-12.7,10.2-16.9,18.1
		c-1.5,2.8-3.1,5.8-5.5,9.2c-1.1,1.6-2.3,3.4-3.8,5.4c-10.4,14.3-29.1,36.3-48.4,43.5c-3,1.1-6.1,2.2-9.3,3.2
		c-0.8,0.3-1.7,0.5-2.5,0.8c-2.7,0.8-5.5,1.7-8.4,2.5c-0.6,0.2-1.2,0.3-1.7,0.5c-0.8,0.2-1.5,0.4-2.3,0.6c-0.8,0.2-1.7,0.4-2.5,0.6
		c-0.6,0.1-1.1,0.3-1.7,0.4c-0.4,0.1-0.8,0.2-1.3,0.3c-0.4,0.1-0.7,0.2-1.1,0.3c-1.2,0.3-2.5,0.6-3.7,0.9c-0.5,0.1-1,0.2-1.5,0.3
		c-1.7,0.4-3.4,0.7-5.1,1.1c-0.6,0.1-1.2,0.2-1.8,0.4c-1.3,0.3-2.7,0.5-4,0.8c-0.5,0.1-1,0.2-1.4,0.3c-1.7,0.3-3.5,0.6-5.2,0.9
		c-0.5,0.1-0.9,0.1-1.4,0.2c-1.4,0.2-2.8,0.4-4.2,0.6c-0.5,0.1-1,0.1-1.4,0.2c-1.8,0.2-3.5,0.5-5.2,0.7c-0.3,0-0.6,0.1-0.8,0.1
		c-1.5,0.2-3,0.3-4.4,0.5c-0.5,0-0.9,0.1-1.4,0.1c-1.7,0.2-3.4,0.3-5.1,0.4c-18.2,1.1-20,4.7-26.3,9.8c-5.7,4.6-25.7,21-35.1,21.6
		c-2.8,0.2-5,0.4-6.6,0.7c-0.8,0.1-1.4,0.3-2,0.5c-2.2,0.7-2.9,1.9-2.9,3.9c0,1.7-0.6,3.9,6,4.3s31.7-0.9,64.4-7.3
		c32.7-6.4,91.8-20.1,119.2-33.6c27.4-13.5,40.4-27.3,44.9-51.2C900.8,503.8,902.9,482.3,889.8,485.7z"/>
	<path id="j38_x5F_14" class="st7" d="M710.5,489.7c-3.1-4.7-7.2-9.2-12.6-13.2c-4.7-3.5-10.3-6.7-16.9-9.4
		c-36.6-14.5-85.4-32.8-108.7-41.7c-23.3-8.8-76.6-32.3-99.9-38.9c-13-3.7-28.6-8-42.9-11.9c0,0,0,0,0,0c-0.6-0.2-1.2-0.3-1.8-0.5
		c-0.2,0-0.3-0.1-0.5-0.1c-0.6-0.1-1.1-0.3-1.7-0.4c-0.2,0-0.4-0.1-0.5-0.1c-0.5-0.1-1.1-0.3-1.6-0.4c-0.2-0.1-0.4-0.1-0.6-0.2
		c-0.5-0.1-1-0.3-1.5-0.4c-0.3-0.1-0.5-0.1-0.8-0.2c-0.5-0.1-0.9-0.2-1.4-0.4c-0.2-0.1-0.5-0.1-0.7-0.2c-0.4-0.1-0.9-0.2-1.3-0.4
		c-0.3-0.1-0.6-0.2-0.9-0.2c-0.6-0.2-1.2-0.3-1.8-0.5c-0.5-0.1-0.9-0.2-1.4-0.4c-0.3-0.1-0.6-0.1-0.8-0.2c-0.4-0.1-0.8-0.2-1.2-0.3
		c-0.3-0.1-0.6-0.2-0.9-0.2c-0.4-0.1-0.7-0.2-1.1-0.3c-0.3-0.1-0.6-0.1-0.9-0.2c-0.4-0.1-0.7-0.2-1.1-0.3c-0.3-0.1-0.5-0.1-0.8-0.2
		c-0.4-0.1-0.7-0.2-1.1-0.3c-0.2-0.1-0.5-0.1-0.7-0.2c-0.4-0.1-0.7-0.2-1.1-0.3c-0.2-0.1-0.5-0.1-0.7-0.2c-0.4-0.1-0.7-0.2-1.1-0.3
		c-0.2,0-0.4-0.1-0.6-0.1c-0.6-0.1-1.1-0.3-1.6-0.4c-1.1-0.3-2.1-0.5-3.2-0.9c-0.4-0.1-0.7-0.2-1-0.3c-0.7-0.2-1.4-0.4-2-0.7
		c-0.4-0.1-0.8-0.3-1.2-0.4c-0.6-0.2-1.2-0.4-1.8-0.7c-0.4-0.2-0.8-0.4-1.3-0.5c-0.5-0.2-1.1-0.5-1.6-0.7c-0.4-0.2-0.8-0.4-1.3-0.6
		c-0.5-0.3-1-0.5-1.5-0.8c-0.4-0.2-0.8-0.5-1.3-0.7c-0.5-0.3-1-0.5-1.4-0.8c-0.4-0.2-0.8-0.5-1.2-0.8c-0.5-0.3-0.9-0.6-1.3-0.9
		c-0.4-0.3-0.8-0.6-1.2-0.8c-0.4-0.3-0.9-0.6-1.3-0.9c-0.4-0.3-0.8-0.6-1.2-0.9c-0.4-0.3-0.8-0.6-1.2-1c-0.4-0.3-0.8-0.6-1.2-1
		c-0.4-0.3-0.8-0.7-1.1-1c-0.4-0.3-0.8-0.7-1.1-1c-0.4-0.4-0.7-0.7-1.1-1.1c-0.4-0.4-0.7-0.7-1.1-1.1c-0.3-0.4-0.7-0.7-1-1.1
		c-0.4-0.4-0.7-0.8-1.1-1.2c-0.3-0.4-0.6-0.8-0.9-1.2c-0.3-0.4-0.7-0.8-1-1.3c-0.3-0.4-0.6-0.8-0.9-1.1c-0.8-1-1.5-2.1-2.3-3.2
		c-0.1-0.1-0.1-0.2-0.2-0.2c-0.7-1.1-1.5-2.3-2.2-3.5c-7.6-12.8-37.6-78.3-49.5-104.1c-5.1,0.1-10,0.5-14.4,1.2
		c0.4,0.1,0.8,0.2,1.2,0.3c0,0,0.1,0,0.1,0c0.4,0.1,0.8,0.3,1.2,0.5c0,0,0.1,0,0.1,0.1c0.4,0.2,0.8,0.4,1.2,0.6c0,0,0.1,0,0.1,0.1
		c0.4,0.2,0.8,0.5,1.2,0.8c0,0,0,0,0,0c0.2,0.2,0.5,0.4,0.7,0.6c0,0,0.1,0.1,0.1,0.1c0.2,0.2,0.4,0.4,0.6,0.6
		c0.1,0.1,0.1,0.1,0.2,0.2c0.2,0.2,0.4,0.4,0.5,0.6c0.1,0.1,0.1,0.1,0.2,0.2c0.2,0.2,0.3,0.4,0.5,0.6c0.1,0.1,0.1,0.2,0.2,0.3
		c0.2,0.2,0.3,0.4,0.5,0.6c0.1,0.1,0.1,0.2,0.2,0.3c0.1,0.2,0.3,0.4,0.4,0.7c0.1,0.1,0.1,0.2,0.2,0.3c0.2,0.2,0.3,0.5,0.5,0.8
		c0.1,0.1,0.1,0.2,0.2,0.3c0.2,0.4,0.4,0.8,0.6,1.2c6.6,12.8,22.1,46.6,30,62.5c0.2,0.5,0.5,1,0.7,1.5c0.1,0.2,0.2,0.4,0.2,0.5
		c0.2,0.4,0.3,0.7,0.5,1.1c0.1,0.2,0.2,0.4,0.3,0.7c0.2,0.4,0.3,0.7,0.5,1.1c0.1,0.2,0.2,0.5,0.3,0.7c0.2,0.4,0.3,0.8,0.5,1.2
		c0.1,0.2,0.2,0.5,0.3,0.7c0.3,0.6,0.5,1.3,0.8,1.9c0.1,0.1,0.1,0.3,0.2,0.4c0.2,0.5,0.5,1.1,0.7,1.7c0.2,0.4,0.3,0.7,0.5,1.1
		c0.2,0.5,0.4,0.9,0.6,1.4c0.2,0.6,0.5,1.1,0.7,1.7c0.1,0.3,0.3,0.6,0.4,0.9c0.2,0.4,0.4,0.9,0.6,1.3c0.2,0.3,0.3,0.7,0.5,1
		c0.2,0.4,0.4,0.9,0.6,1.3c0.2,0.4,0.3,0.7,0.5,1.1c0.2,0.4,0.4,0.9,0.6,1.3c0.2,0.4,0.3,0.7,0.5,1.1c0.2,0.4,0.4,0.9,0.7,1.3
		c0.2,0.4,0.3,0.7,0.5,1.1c0.2,0.5,0.5,0.9,0.7,1.4c0.2,0.3,0.3,0.7,0.5,1c0.3,0.6,0.7,1.2,1,1.8c0.1,0.2,0.2,0.4,0.3,0.6
		c0,0,0,0,0,0c0.4,0.7,0.8,1.5,1.3,2.2c0.1,0.1,0.2,0.3,0.2,0.4c0.4,0.7,0.9,1.4,1.3,2.2c0.1,0.2,0.2,0.3,0.3,0.5
		c0.4,0.7,0.9,1.4,1.4,2.2c0.1,0.1,0.2,0.3,0.3,0.4c0.5,0.7,1,1.5,1.5,2.2c0,0.1,0.1,0.1,0.2,0.2c0.5,0.7,1,1.4,1.6,2.1
		c0.1,0.1,0.1,0.2,0.2,0.3c0.5,0.7,1.1,1.4,1.7,2.1c0.1,0.1,0.2,0.3,0.3,0.4c0.6,0.7,1.1,1.4,1.7,2c0.1,0.1,0.2,0.3,0.3,0.4
		c0.6,0.7,1.2,1.3,1.8,2c0.1,0.1,0.2,0.2,0.3,0.3c0.7,0.7,1.3,1.3,2,2c0,0,0,0,0,0c0.7,0.7,1.4,1.3,2.1,1.9c0.1,0.1,0.2,0.2,0.3,0.3
		c0.7,0.6,1.4,1.2,2.1,1.7c0.1,0.1,0.3,0.2,0.4,0.3c0.7,0.6,1.5,1.1,2.2,1.6c0.1,0.1,0.3,0.2,0.4,0.3c0.8,0.5,1.6,1.1,2.4,1.6
		c0.1,0,0.1,0.1,0.2,0.1c0.8,0.5,1.7,1,2.5,1.4c0.1,0,0.2,0.1,0.2,0.1c0.9,0.5,1.7,0.9,2.6,1.3c0.1,0.1,0.3,0.1,0.4,0.2
		c0.9,0.4,1.8,0.8,2.7,1.2c0.2,0.1,0.3,0.1,0.5,0.2c0.9,0.4,1.9,0.7,2.8,1c0.1,0,0.3,0.1,0.4,0.1c1,0.3,2.1,0.6,3.1,0.9
		c1.5,0.4,3.1,0.8,4.6,1.2c0.4,0.1,0.7,0.2,1.1,0.3c3,0.8,5.9,1.6,8.7,2.3c0.3,0.1,0.7,0.2,1,0.3c1.4,0.4,2.8,0.7,4.1,1.1
		c0,0,0,0,0,0c1.4,0.4,2.7,0.7,4.1,1.1c0.3,0.1,0.6,0.2,0.9,0.2c2.7,0.7,5.3,1.4,7.8,2.1c0.2,0,0.3,0.1,0.5,0.1
		c1.3,0.3,2.5,0.7,3.7,1c17.5,4.8,30.3,8.3,38.4,9.9c13,2.6,66.4,24.8,102.5,39.6c36,14.8,76,30.6,92.3,36.4
		c10.7,3.8,22,9.5,29.8,17.2c2.5,2.5,4.6,5.1,6.3,8c1.1,1.8,1.9,3.7,2.6,5.7c4.2,12.9,3.5,26.2,0.7,36.1c-0.4,1.6-0.9,3.1-1.5,4.4
		c2.7-1.5,5.3-3.2,7.7-5c3.2-2.5,6.1-5.2,8.1-8C719.6,518.2,719.5,503.3,710.5,489.7z"/>
	<path id="j38_x5F_13" class="st7" d="M889.7,485.4c-3.2-16.3-19-20.7-34.9-26.5c-16-5.8-45.6-8.8-63.6-11.1
		c-18-2.3-50.3-9-57.6-10.7c-3.6-0.8-4.5,0.1-4.8,1.6c-0.3,1.6,0.2,4-0.9,5.9c-0.9,1.6-4.9,6.1-9.9,11.4c-2.1,2.2-4.3,4.6-6.6,6.9
		c-4.8,5-9.8,9.9-13.5,13.5c0,0,0,0,0,0c5.4,4.1,9.5,8.6,12.6,13.2c9,13.6,9.1,28.5,5,37.1c1.3-2.6,2.4-4.7,3-6.2
		c2.7-5.9,9-12.7,27.2-13.3s30.1-1,39.4-1.3c2.1-0.1,4.1-0.1,6.1,0l0,0c11-0.2,63.2-3.3,68.1-3.6c4.9-0.3,10.1-0.6,10.5,2.5
		c4.2-8,6.6-13.4,16.9-18.1c1.1-0.5,2.1-0.8,3-1.1C889.7,485.6,889.7,485.5,889.7,485.4z"/>
	<path id="j38_x5F_12" class="st7" d="M378.9,255c-11.1-12.5-15.4-35.7-17.1-50.4c-11.2-13.9-21.2-26.1-25.7-30.9
		c-7.6-8.2-10.4-11.9-15.5-9.8c-2.6,1.1-5.9,3.7-10.7,8.2c-14.1,13-24.7,35.5-32.7,55.8v0c4.8-1.4,9-2.6,12.2-3.5
		c6.6-1.8,13.7-3,21.2-2.7c8.3,0.3,17.1,2.5,25.9,7.7c16.7,9.9,72.6,92.4,89.5,102.1c3.8-2.4,6.4-3,12.2-1.1
		c-1.9-11.5-7.6-25.8-14.1-38.8C414.7,285.6,390.2,267.8,378.9,255z"/>
	<path id="j38_x5F_11" class="st7" d="M701.8,442.5c-1.1-2.8-3.4-5.2-6.1-6.8c-1.1-0.7-2.2-1.2-3.3-1.6
		c-3.9-1.5-22.3-7.7-27.4-9.6c-4-1.5-6.5-3.3-11-1.5c-1.1,0.5-2.4,1.2-3.9,2.2c-7.1,5.1-14.3,3.8-17.1,2.3
		c-2.8-1.5-5.1-7.7-5.6-10.8c-0.3-1.6-0.8-3-1.7-4.2c-0.9-1.3-2.2-2.4-3.9-3.3c-3.6-1.9-25.9-13-31.5-15.2c-2.2-0.9-4.1-0.8-6-0.3
		c-3,0.8-6.2,2.8-11.2,4.2c-8.3,2.4-16-3.4-16.5-5.4s-1.9-7.3-2.6-9.9c-0.3-1.1-0.5-2.2-0.9-3.3c-0.6-1.5-1.8-3-4.5-4.2
		c-4.7-2.1-23.7-11.1-29.7-13.5c-2.1-0.8-4.1-0.7-6.2,0c-3.9,1.2-7.9,4.3-12.6,6c-7.1,2.6-14.5-2.3-16-5.1
		c-1.5-2.8-4.5-9.4-5.6-12.2c-0.5-1.2-1-2.5-1.8-3.8c-1-1.7-2.5-3.3-4.8-4.1c-3.9-1.3-27.8-9.9-33.6-11.8s-8.4-1.3-12.2,1.1
		c-3.8,2.4-18.6,8.6-24.8,9.6c-6.2,0.9-5.1-4.9-3.4-7.9c1.7-3-0.2-7.5-3-10.9c-2.8-3.4-37-57.1-42.8-64.9
		c-5.8-7.9-16.1-22.1-26.3-23.9c-5.2-0.9-10.6-1.2-15.9-1.2c11.9,25.8,41.9,91.3,49.5,104.1c0.6,1,1.2,2,1.8,3
		c9.1,14,21.7,23.4,38.3,27.4c7.9,1.9,18.5,4.7,29.9,7.8c14.4,3.9,30,8.3,42.9,11.9c23.3,6.6,76.6,30,99.9,38.9
		c23.3,8.8,72.1,27.2,108.7,41.7c6.7,2.6,12.3,5.8,16.9,9.4c0,0,0,0,0,0c3.8-3.6,8.7-8.5,13.5-13.5c2.3-2.4,4.5-4.7,6.6-6.9
		C706.4,455.8,703.3,446.4,701.8,442.5z"/>
	<path id="j38_x5F_10" class="st6" d="M424.1,291.6c-6.1-12.4-12.9-23.6-17.9-30.3c-6.2-8.4-26.8-34.7-44.4-56.7
		c1.7,14.7,6.1,37.9,17.1,50.4C390.2,267.8,414.7,285.6,424.1,291.6z"/>
	<path id="j38_x5F_9" class="st0" d="M277.2,227.8c7.9-20.3,18.6-42.9,32.7-55.8c4.8-4.4,8.1-7.1,10.7-8.2l0,0
		c-2.5-2.9-6.3-5.1-11.5-0.6s-14.1,16-22.7,28.8c-8.6,12.8-13.4,27.3-16.4,37.9v0C272.5,229.2,275,228.5,277.2,227.8L277.2,227.8z"
		/>
	<path id="j38_x5F_8" class="st3" d="M450.1,570.9c-13.2-7.8-22-6.6-30.7-3.6c-8.7,3-25.1,8.3-35.8,13.1s-29.7,3.4-39.1-0.6
		s-49.7-19.3-61.9-25.3s-41.3-20.9-46.2-23.7c-3.9-2.3-13.5-6.8-14.7-11.8c0,0-0.1,0-0.1,0c-2.6,1.1-13.8,6.9-13.8,6.9l-0.3,0.6
		c1.7,0.6,3.4,1.4,5.3,2.6c0.2,0.1,0.4,0.3,0.7,0.4c0,0,0,0,0.1,0c0.2,0.1,0.5,0.3,0.8,0.5l0,0c13.7,8.1,62.6,34.7,75.2,41
		c9.4,4.7,37.7,17.4,58.7,26.6c39.1-2.8,72.6-4.8,89.5-5.6c16.9-0.8,29.9-0.7,43.6,9.1h0c7.6,0.2,14.2,0.3,19,0.4
		C492.7,596.3,460.2,576.9,450.1,570.9z"/>
	<path id="j38_x5F_7_1_" class="st1" d="M255.3,501.6c-4-1.6-19.4-8.1-23.9-9.9c-1.3,0.5-2.5,1-3.7,1.5
		c-12.3,5.2-21.7,10.2-25.4,12.2c-5.3,2.8-7.3,7.5-4.5,11.8c0.2,0.3,0.5,0.7,0.7,1c0.1,0.1,0.2,0.2,0.2,0.3c0.2,0.3,0.4,0.5,0.7,0.8
		c0.1,0.1,0.2,0.2,0.2,0.3c0.3,0.3,0.7,0.7,1,1c0.1,0.1,0.1,0.1,0.2,0.2c0.3,0.3,0.6,0.6,0.9,0.8c0.1,0.1,0.2,0.2,0.3,0.3
		c0.3,0.3,0.7,0.6,1,0.8c0.1,0.1,0.1,0.1,0.2,0.2c0.4,0.3,0.8,0.7,1.3,1c0.1,0.1,0.2,0.2,0.3,0.2c0.3,0.2,0.7,0.5,1,0.7
		c0.1,0.1,0.2,0.2,0.4,0.3c0.4,0.3,0.9,0.6,1.3,0.9c0,0,11.2-5.8,13.8-6.9c0,0,0.1,0,0.1,0c-0.7-2.9,1.3-5.9,8.7-8.7
		C239.2,507.2,246.5,503.8,255.3,501.6C255.3,501.6,255.3,501.6,255.3,501.6z"/>
	<path id="j38_x5F_6" d="M480.7,396.6c-6.1-2.2-10.9-3.7-13.7-4.2c-8.1-1.6-20.9-5.2-38.4-9.9c-10.5-2.9-22.7-6.2-36.5-9.8
		c-36.8-9.6-48.1-51.1-55.9-67c-7.9-16-23.5-49.7-30-62.5c-3.1-6.1-6.7-8.8-10.6-9.6c-4.2-0.9-8.8,0.5-13.4,2.1
		c-9,3.2-36.8,14.5-52.6,16.7c-15.8,2.3-47.7,7.1-59.3,13c-11.6,5.8-17.3,13.1-20.8,21.6c-3.6,8.4-25.5,42.8-30.9,50.1
		c2.3-2.8,2.8-1.4,1.7,3.7c-1.1,5.1-4.2,29.8-1.1,43.6c1.3,5.9,3.9,17.2,8.4,29.4c6.1,16.5,15.6,34.6,30.1,43.5
		c19.2,11.7,37,21.9,53.9,29.5c5.5,2.4,10.8,4.6,16.1,6.5c0,0,0,0,0,0c1.2-0.5,2.4-1,3.7-1.5c4.4-1.8,9.2-3.6,14.1-5.2
		c20.6-6.8,35.8-2.8,54.3,1.1c3.9,0.8,12.7,2.9,24.2,5.6v0C355,480.6,452.1,419.9,480.7,396.6z"/>
	<path id="j38_x5F_5" class="st6" d="M325.8,233.5c10.1,1.7,20.5,16,26.3,23.9c5.8,7.9,40,61.6,42.8,64.9c2.8,3.4,4.7,7.9,3,10.9
		c-1.7,3-2.8,8.8,3.4,7.9c6.2-0.9,21-7.1,24.8-9.6c-16.9-9.8-72.8-92.2-89.5-102.1c-8.8-5.2-17.5-7.4-25.9-7.7c0,0,0,0,0,0
		c-0.9,0-1.8,0-2.7,0c0,0-0.1,0-0.1,0c-0.9,0-1.8,0-2.6,0.1c-0.1,0-0.1,0-0.2,0c-0.9,0-1.7,0.1-2.5,0.2c-0.1,0-0.1,0-0.2,0
		c-0.8,0.1-1.7,0.2-2.5,0.3c-0.1,0-0.2,0-0.2,0c-0.8,0.1-1.6,0.2-2.4,0.4c-0.1,0-0.2,0-0.2,0c-0.8,0.1-1.6,0.3-2.4,0.5
		c-0.1,0-0.1,0-0.2,0c-0.8,0.2-1.6,0.3-2.4,0.5c0,0-0.1,0-0.1,0c-0.8,0.2-1.6,0.4-2.4,0.6c-3.1,0.8-7.4,2.1-12.2,3.5
		c-2.3,0.7-4.7,1.4-7.2,2.1c-15.4,4.5-33.8,10.1-42.4,12.5c-12.9,3.6-42.1,9.4-58.2,18s-20.8,24.4-23.8,29.8
		c-3,5.4-13,21.2-15.4,25.3c-2.4,4.1-7.1,12.8-15,12.2s-12.8,7.5-14.6,12s-6.9,18.8-9,25.7c-2.1,6.9-1.5,11.3,2.1,12.1
		c2.6-7.1,5.8-13.7,7.4-16.7c3.1-5.6,15.2-21.1,17.5-23.9c5.3-7.3,27.3-41.7,30.9-50.1c3.6-8.4,9.2-15.8,20.8-21.6
		c11.6-5.8,43.5-10.7,59.3-13c11.3-1.6,28.9-7.9,41.2-12.5c3.2-1.2,6.1-2.3,8.4-3.1c1.1-0.4,2.1-0.8,3-1.1c4.7-1.7,9.2-3,13.4-2.1
		c4.4-0.7,9.3-1.1,14.4-1.2C315.2,232.3,320.7,232.6,325.8,233.5z"/>
	<path id="j38_x5F_4" class="st7" d="M206.1,524.9c-0.3-0.2-0.7-0.5-1-0.7c-0.1-0.1-0.2-0.2-0.3-0.2c-0.4-0.3-0.9-0.6-1.3-1
		c-0.1-0.1-0.1-0.1-0.2-0.2c-0.3-0.3-0.7-0.6-1-0.8c-0.1-0.1-0.2-0.2-0.3-0.3c-0.3-0.3-0.6-0.6-0.9-0.8c-0.1-0.1-0.1-0.1-0.2-0.2
		c-0.4-0.3-0.7-0.7-1-1c-0.1-0.1-0.2-0.2-0.2-0.3c-0.2-0.3-0.5-0.5-0.7-0.8c-0.1-0.1-0.2-0.2-0.2-0.3c-0.3-0.3-0.5-0.7-0.7-1
		c-2.8-4.3-0.8-9,4.5-11.8c3.6-1.9,13.1-7,25.4-12.2c0,0,0,0,0,0c-5.3-1.9-10.7-4-16.1-6.5c-16.9-7.6-34.7-17.8-53.9-29.5
		c-14.5-8.9-24.1-27-30.1-43.5h0c-3.1-8.4-5.3-16.3-6.8-22.4c0,0,0,0,0-0.1c-0.1-0.5-0.2-0.9-0.3-1.4c0-0.1-0.1-0.3-0.1-0.4
		c-0.1-0.4-0.2-0.7-0.3-1.1c0-0.2-0.1-0.4-0.1-0.6c-0.1-0.3-0.1-0.6-0.2-0.9c-0.1-0.3-0.1-0.5-0.2-0.7c0-0.2-0.1-0.4-0.1-0.6
		c-0.1-0.4-0.2-0.8-0.3-1.2c-3.1-13.8,0-38.6,1.1-43.6c1.1-5.1,0.6-6.5-1.7-3.7c-2.3,2.8-14.4,18.3-17.5,23.9
		c-1.7,3-4.8,9.6-7.4,16.7c-2.2,6.2-4,12.8-3.9,17.6c0.2,8.2-1.6,70.9-1.7,90.2c1.2,0.8,2.3,2,3.1,3.7c2.6,5.6,23.4,20.8,35.7,26.1
		c4.8,2.1,10.1,4.1,15.3,6.1c8,3.1,15.7,5.8,21,7.8c8.6,3.2,19.7,2.4,25.7,0c0.3-0.1,0.7-0.3,1.1-0.4c4.7-2,10.1-4.7,17.7-2.1
		l0.3-0.6c-0.4-0.3-0.9-0.6-1.3-0.9C206.4,525.1,206.2,525,206.1,524.9z"/>
	<path id="j38_x5F_3" d="M289.6,571.1c-12.6-6.3-61.6-32.9-75.2-41c-0.6-0.3-1.1-0.6-1.5-0.9c-11.1-6.8-18-2.4-24,0
		c-6,2.4-17.1,3.2-25.7,0c-8.6-3.2-23.8-8.6-36.2-13.9c-12.4-5.3-33.1-20.4-35.7-26.1c-0.8-1.7-1.9-2.9-3.1-3.7
		c-2.4-1.6-5.2-1.4-6.2,0.7c-1.5,3.2-6.4,10.9-5.6,34.4c0.8,23.5,8.3,41.1,14.9,53.6c0,0,0,0,0,0c-7.7-16.6-7.8-37.5-7.8-44.4
		c-0.1-8.1,2.3-11,6.7-8.1c4.2,2.9,32.6,20.9,40.8,25.8c8.3,4.9,50.5,25.9,60.2,31.5c8.5,5,37.1,19.6,50.1,25.6
		c1.8,0.8,3.3,1.5,4.4,1.9c13.4-1.4,28.7-2.8,45.2-4.3c17.9-1.6,37.2-3.1,57.5-4.5C327.3,588.5,299,575.8,289.6,571.1z"/>
	<path id="j38_x5F_2" class="st7" d="M207.2,604.5c-9.5-4.8-53.8-28.3-65.1-34.4s-36.8-20.1-42-23.7c-5.3-3.7-9.4-4.4-7.9,5.4
		s2.6,25.3,13,31.7s36.2,17.1,55.2,21c19,3.9,33.8,5.4,42,5.5S212.8,607.4,207.2,604.5z"/>
	<path id="j38_x5F_1" class="st7" d="M619.5,615.7c-0.2,0-0.3-0.1-0.5-0.1c-0.6,0-1.3,0-2.1,0c-5.3,0.1-12.7,0.2-19.1-2.5
		c-7.2-3-13.5-6.9-15.9-8c-2.3-1.1-4.1-2.3-12.9-2.3c-8.7,0-53.2-1.3-63.2-1.3c-1.3,0-3.2,0-5.6-0.1c-4.7-0.1-11.4-0.3-19-0.4h0
		c-19.4-0.4-44.6-0.7-58.7,0.5c-9.9,0.8-27.3,2.5-45.3,4c-3.1,0.3-6.2,0.5-9.2,0.8c-19.5,1.6-38.7,3.1-49,3.3c-2.5,0-5,0.1-7.6,0.2
		c-1.4,0-2.8,0.1-4.2,0.1c-11.9,0.3-23.6,0.7-31.9,1c-4.4,0.1-7.8,0.2-9.8,0.3c-6.9,0.1-11-0.9-20.2-4.7c-1.1-0.5-2.6-1.1-4.4-1.9
		c-13-6-41.6-20.6-50.1-25.6c-9.7-5.6-51.9-26.7-60.2-31.5c-8.3-4.9-36.6-23-40.8-25.8c-4.3-2.9-6.7,0-6.7,8.1
		c0,6.9,0.1,27.9,7.8,44.4c2.4,5.2,5.6,10,9.7,13.8c17.5,15.9,42.5,35.4,78.3,35.1c20.8-0.2,39.7,0.1,56,0.5
		c11.7,0.2,22,0.5,30.8,0.6c9.2,0.1,26.9-0.6,45.6-1.4c7-0.3,14.1-0.7,21-1c4-0.2,7.8-0.4,11.6-0.6c2.7-0.1,5.3-0.3,7.8-0.4
		c9-0.5,16.7-0.9,21.9-1.2c1.1-0.1,2.3-0.1,3.7-0.2c19.6-0.9,61.8-1.7,90.4-1.1c7.3,0.1,13.8,0.4,18.7,0.7
		c25.3,1.8,78.8,4.4,94.7,5.3c10.4,0.6,20.7,0.8,27.6,0.9c3.6,0.1,6.3,0.1,7.6,0.1c2.2,0,3.6-1.4,4.3-3.1
		C621.8,619.5,621.3,616.2,619.5,615.7z M202.2,610c-8.1-0.1-23-1.6-42-5.5c-19-3.9-44.9-14.6-55.2-21s-11.5-22-13-31.7
		s2.6-9,7.9-5.4c5.3,3.7,30.8,17.7,42,23.7s55.6,29.5,65.1,34.4C212.8,607.4,210.4,610.1,202.2,610z"/>
</g>
</svg>
