<?xml version="1.0" encoding="utf-8"?>
<!-- Generator: Adobe Illustrator 22.1.0, SVG Export Plug-In . SVG Version: 6.00 Build 0)  -->
<svg version="1.1" id="jordan1" xmlns="http://www.w3.org/2000/svg" xmlns:xlink="http://www.w3.org/1999/xlink" x="0px" y="0px"
	 viewBox="0 0 960 640" style="enable-background:new 0 0 960 640;" xml:space="preserve">
<g id="shapes_x5F_j1">
	<path id="j1_x5F_baseWhite" class="st0" d="M933.3,413.7c-0.3-4-5.2-9.3-10.9-8.3l-0.3,0c-0.4,1-1,1.7-1.9,2.2
		c-24.4,12.3-207.6,73-347.4,65.6c-1.7-0.1-3.4-0.2-5.1-0.3c-0.1,0-0.2,0-0.4,0c-3.3-0.2-6.7-0.5-10-0.8c-0.2,0-0.4,0-0.7-0.1
		c-1.6-0.2-3.3-0.3-4.9-0.5c0,0-0.1,0-0.1,0c-1.5-0.2-3-0.3-4.5-0.5c-0.3,0-0.6-0.1-0.9-0.1c-1.5-0.2-3.1-0.4-4.6-0.6
		c-0.1,0-0.1,0-0.2,0c-1.4-0.2-2.9-0.4-4.3-0.6c-0.4-0.1-0.7-0.1-1.1-0.2c-1.5-0.2-2.9-0.5-4.4-0.7c-1.6-0.3-3.2-0.5-4.8-0.8
		c-0.5-0.1-1-0.2-1.6-0.3c-1.1-0.2-2.3-0.4-3.4-0.5c-0.6-0.1-1.2-0.2-1.8-0.3c-1.2-0.2-2.5-0.4-3.7-0.6c-0.5-0.1-1-0.1-1.4-0.2
		c-1.6-0.2-3.2-0.5-4.9-0.7c-0.8-0.1-1.5-0.2-2.3-0.3c-1-0.1-2-0.3-3-0.4c-0.9-0.1-1.7-0.2-2.6-0.4c-0.9-0.1-1.9-0.3-2.8-0.4
		c-0.9-0.1-1.8-0.2-2.6-0.3c-40.9-5.2-90.9-9.3-142.1-12.5c-98.2-6.1-200.4-8.9-249.9-10.6c-16.6-0.6-27.4-0.2-30.7-5.6l0,0
		c-11,0.5-10.7,9.6-10.5,23.8c0.1,7.3,1.5,34.4,4.1,52.8c0.2,1.4,0.4,2.6,0.7,3.9c5,5.2,16.2,10.2,29,11.7c12.8,1.5,62.2,5.5,66,5.5
		c15,0,16-10.8,30-10c8,0.4,85.5,4,120.1,4.1c36.7,0.2,82,11.2,122,13.2c18.3,0.9,124.8,2.1,171.7-5
		C740.7,514.3,897.8,452,935.2,432l0,0C934.5,424.7,933.7,418,933.3,413.7z"/>
	<path id="j1_x5F_ankleBlack" d="M235.8,279c40.3-2.9,97.2-28.4,109.7-41.7l0.2,0.3c1.8-22.6,11.4-34.7,8.5-46.9
		c-38.1,23.1-89.5,53.7-98.2,59.5C242.8,258.9,237.1,270.8,235.8,279z"/>
	<path id="j1_x5F_toeWhite" class="st1" d="M870.2,352.6c-12.7-1.7-28.9-1.3-51.2,0.8c-44,4-105.7-4.1-139.9-11.8
		c-0.5-0.1-0.9-0.2-1.4-0.3c-3.1-0.7-6-1.4-8.6-2.1c1.2,1,2.3,2,3.4,2.9c0.6,0.5,1.1,1,1.6,1.5c0.1,0.1,0.2,0.2,0.4,0.3
		c0.5,0.5,0.9,0.9,1.4,1.4c0,0,0,0,0,0c0.5,0.5,0.9,1,1.4,1.5c0,0,0,0,0.1,0.1c0.4,0.5,0.8,1,1.2,1.4c15.4,19.5-15.5,23.4-21.5,49.7
		c-4.5,19.7,21.7,30.5,34.8,11.9c21.8-31,117-30.8,149.2-41.2C859.8,362.6,875,357.3,870.2,352.6z"/>
	<path id="j1_x5F_topBlack" d="M111,174c1.1-0.6,2.3-1,3.5-1.4c1.2-0.5,2.4-0.9,3.6-1.4c1.2-0.5,2.4-0.9,3.6-1.4
		c1.2-0.5,2.4-1,3.5-1.4c1.2-0.5,2.4-1,3.5-1.5c1.2-0.5,2.4-1,3.5-1.5c1.2-0.5,2.4-1,3.5-1.5c1.2-0.5,2.4-1,3.5-1.5
		c1.2-0.5,2.4-1,3.5-1.5c1.2-0.5,2.3-1,3.5-1.5c1.2-0.5,2.3-1,3.5-1.5c1.2-0.5,2.3-1,3.5-1.5c1.2-0.5,2.3-1,3.5-1.5
		c1.2-0.5,2.3-1,3.5-1.5c1.2-0.5,2.3-1,3.5-1.5c1.2-0.5,2.3-1,3.5-1.5c1.2-0.5,2.3-1,3.5-1.5c1.2-0.5,2.3-1,3.5-1.5
		c1.2-0.5,2.3-1,3.5-1.5c1.2-0.5,2.4-1,3.5-1.5c1.2-0.5,2.4-1,3.5-1.5c0.4-0.2,0.8-0.3,1.2-0.5c36.6-15.1,73.3-30.1,110.5-43.7
		c0.8-0.3,9.9-3.4,9.9-3.6c-0.8-3.7-4.3-10.5-8-16c-3.7-5.5,1.8-11.3,8.9-15.8c-3.4,0.8-6.9,1.8-10.6,3.1
		c-9.1,3.3-20.3,7.8-32.8,12.7c-38.2,14.8-89.5,32.5-136.8,27.3c-12.3-1.3-17.6,27.6-17.8,68.2l0.1,0.3c0.2-0.1,0.3-0.2,0.5-0.3
		C110.5,174.3,110.7,174.2,111,174z"/>
	<path id="j1_x5F_backRed" class="st2" d="M226.3,362c-2.2-6.2-8.6-11.7-17.5-16.9c-32.5-18.6-99-31.8-126.5-49.8l-0.3,1.1
		c-0.5,4.4-0.9,8.8-1.3,13.2c0,0.3,0,0.5-0.1,0.8c-0.3,2.9-0.5,5.8-0.8,8.6c-0.5,5.8-1.1,12.3-1.6,19.3c-2.6,34-5.4,78.5-5.4,92
		c0,1.8,0.4,3.3,1.1,4.5c3.3,5.4,14.1,5,30.7,5.6c34.3,1.2,93.9,2.9,159.9,5.8v0C260.3,436.2,233,380.5,226.3,362z"/>
	<path id="j1_x5F_nikeBlack" d="M394.9,287.7c2.4,11.5,3.5,21.1,3.5,29.1c-0.1,28.4-15.1,36.1-43.8,32.3c-7.5-1-16-2.7-25.3-5.1
		c-10.2-2.6-68.9-18.8-118-32.5c-29.2-8.1-55-15.3-65.3-18.2c-0.4-0.1-0.8-0.2-1.1-0.3c-11.7-3.3-25-8.4-35.9-13.5
		c-10.4-4.9-18.6-9.8-21.4-13.3c-0.4-0.6-0.8-1.1-0.9-1.6c-2,9.1-3.5,20.4-4.8,31.8l0.3-1.1c2.2,1.4,4.7,2.9,7.3,4.2
		c10.9,5.7,25.4,10.9,40.8,16.1c28,9.3,59.1,18.4,78.4,29.5l0,0c45.2,13.3,99.4,34.9,145.8,45.3c37.4,8.3,69.8,9.4,88.2-7.1
		c1.4-1.2,2.6-2.5,3.8-3.9C470.3,351.6,431.3,306,394.9,287.7z"/>
	<path id="j1_x5F_toeRed" class="st3" d="M913.7,377.8c-11.9-14.7-23.1-22.6-43.5-25.3c4.8,4.8-10.4,10-29.2,16.1
		c-32.2,10.5-127.5,10.2-149.2,41.2c-13,18.5-39.2,7.8-34.8-11.9c1.2-5.4,3.5-9.8,6.2-13.7h0c-32.3,7.5-59.3,67-69.5,89.4
		c136.5,0.9,303.3-54.6,326.5-66.2c0.9-0.4,1.5-1.2,1.9-2.2C924.8,399,917.8,382.9,913.7,377.8z"/>
	<g id="j1_x5F_ankleRed">
		<path class="st4" d="M345.7,243.9C345.7,243.9,345.7,243.9,345.7,243.9C345.7,243.9,345.7,243.9,345.7,243.9
			C345.7,243.9,345.7,243.9,345.7,243.9z"/>
		<path class="st4" d="M345.7,243.8C345.7,243.8,345.7,243.8,345.7,243.8C345.7,243.8,345.7,243.8,345.7,243.8
			C345.7,243.8,345.7,243.8,345.7,243.8z"/>
		<path class="st4" d="M345.9,245C345.9,245,345.9,245,345.9,245c0,0,0-0.1,0-0.1C345.9,244.9,345.9,245,345.9,245z"/>
		<path class="st4" d="M88.3,266.9C88.3,266.9,88.3,266.9,88.3,266.9C88.3,266.9,88.3,266.9,88.3,266.9z"/>
		<path class="st4" d="M87.5,261.8c-0.2,0.9-0.4,1.9-0.6,2.8c0.2,0.7,0.7,1.4,1.5,2.3c-0.2-0.2-0.4-0.4-0.5-0.6L87.5,261.8z"/>
		<path class="st4" d="M89.1,267.7c0.2,0.2,0.4,0.4,0.6,0.6C89.5,268,89.2,267.8,89.1,267.7z"/>
		<path class="st4" d="M89.1,267.7c0,0-0.1-0.1-0.1-0.1C89,267.6,89,267.6,89.1,267.7z"/>
		<path class="st4" d="M88.9,267.5c-0.2-0.2-0.4-0.4-0.6-0.6C88.5,267.1,88.7,267.3,88.9,267.5z"/>
		<path class="st4" d="M89.8,268.4c0.3,0.2,0.6,0.5,0.9,0.7C90.4,268.8,90.1,268.6,89.8,268.4z"/>
		<path class="st4" d="M89.7,268.2c0.1,0,0.1,0.1,0.2,0.1C89.8,268.3,89.7,268.3,89.7,268.2z"/>
		<path class="st4" d="M97.9,273.8c-1.2-0.7-2.4-1.4-3.5-2.1C95.5,272.4,96.7,273.1,97.9,273.8z"/>
		<path class="st4" d="M377.4,93.4c-0.2-0.4-0.5-0.8-0.7-1.1c-3.3-4.6-6.9-8.9-10.9-12.8c-0.5-0.5-1-0.9-1.5-1.4
			c-0.2-0.2-0.3-0.3-0.5-0.4c-0.3-0.3-0.7-0.6-1-0.9c-0.2-0.2-0.4-0.3-0.6-0.5c-0.3-0.3-0.6-0.5-0.9-0.8c-0.1,0-0.1-0.1-0.2-0.1
			L306.7,95c0.3-0.1-0.5,0.2-1.2,0.4c-2.5,0.9-5.1,1.8-7.6,2.8c-2.1,0.8-4.1,1.5-6.2,2.3c-6.1,2.3-12.1,4.6-18.2,6.9
			c-71.4,27.4-158.1,65-160.8,66c-0.5,0.2-0.9,0.4-1.3,0.5c-0.1,0.1-0.3,0.1-0.4,0.2c-0.3,0.1-0.6,0.3-0.9,0.5
			c-0.2,0.1-0.4,0.2-0.5,0.3c-2.3,1.5-3.4,3.4-3.6,6.5c0,0.3-0.1,0.7-0.1,1.2c0,0.3-0.1,0.7-0.1,1.1c-1.1,9.5-5.6,41.6-6.8,61.4
			c7.5,3.2,70.7,29.8,123.5,34c1,0.1,2,0.1,3.1,0.2c0.3,0,0.7,0,1,0c2.9,0.1,6,0,9.2-0.2c1.4-8.2,7-20.1,20.2-28.8
			c8.7-5.7,60.2-36.4,98.2-59.5c4.1-2.5,7.9-4.8,11.6-7.1c12-7.4,21.7-13.4,26.6-16.7l2.5,0.3l0.1,0
			C395.1,140.8,385.4,106,377.4,93.4z"/>
	</g>
	<path id="j1_x5F_tongueRed" class="st5" d="M360.7,75c-0.3-0.2-0.6-0.5-0.9-0.7c-0.2-0.2-0.4-0.3-0.7-0.5c-0.3-0.2-0.6-0.5-0.9-0.7
		c-0.2-0.2-0.5-0.3-0.7-0.5c-0.3-0.2-0.7-0.5-1-0.7c-0.2-0.1-0.4-0.3-0.6-0.4c-0.4-0.3-0.8-0.5-1.2-0.8c-0.2-0.1-0.3-0.2-0.5-0.3
		c-0.5-0.3-1.1-0.7-1.7-1c-0.2-0.1-0.5-0.3-0.7-0.4c-0.3-0.2-0.7-0.4-1-0.6c-0.3-0.1-0.5-0.3-0.8-0.4c-0.3-0.2-0.6-0.3-1-0.5
		c-0.3-0.1-0.6-0.3-0.9-0.4c-0.3-0.1-0.6-0.3-0.9-0.4c-0.3-0.1-0.6-0.3-0.9-0.4c-0.3-0.1-0.6-0.3-0.9-0.4c-0.3-0.1-0.6-0.3-0.9-0.4
		c-0.3-0.1-0.6-0.2-0.9-0.4c-0.3-0.1-0.6-0.2-1-0.4c-0.3-0.1-0.6-0.2-0.9-0.3c-0.7-0.2-1.3-0.4-2-0.6c-0.3-0.1-0.5-0.2-0.8-0.2
		c-0.4-0.1-0.7-0.2-1.1-0.3c-0.3-0.1-0.6-0.2-0.9-0.2c-0.4-0.1-0.8-0.2-1.1-0.3c-0.3-0.1-0.6-0.1-0.9-0.2c-0.4-0.1-0.8-0.1-1.2-0.2
		c-0.3-0.1-0.6-0.1-0.9-0.2c-0.4-0.1-0.8-0.1-1.2-0.2c-0.3,0-0.6-0.1-0.9-0.1c-0.4-0.1-0.8-0.1-1.2-0.1c-0.3,0-0.6-0.1-0.9-0.1
		c-0.4,0-0.9-0.1-1.3-0.1c-0.3,0-0.5,0-0.8,0c-1.6-0.1-3.3-0.1-5-0.1c-0.2,0-0.5,0-0.7,0c-0.5,0-0.9,0-1.4,0.1c-0.3,0-0.6,0-0.9,0.1
		c-0.5,0-0.9,0.1-1.4,0.1c-0.3,0-0.6,0.1-0.9,0.1c-0.5,0-0.9,0.1-1.4,0.2c-0.3,0-0.6,0.1-0.9,0.1c-0.5,0.1-0.9,0.1-1.4,0.2
		c-0.3,0-0.6,0.1-0.9,0.2c-0.5,0.1-1,0.2-1.5,0.3c-0.3,0.1-0.6,0.1-0.9,0.2c-0.5,0.1-1.1,0.2-1.6,0.3c0,0,0,0,0,0l0,0
		c-7.1,4.4-12.6,10.3-8.9,15.8c3.7,5.5,7.1,12.3,8,16l0,0l54.5-19.6C361,75.3,360.8,75.1,360.7,75z"/>
	<path id="j1_x5F_midWhite" class="st1" d="M544.6,347c-15.3-3.3-51.3-14.3-71.6-37.6c-20.3-23.3-39.3-34.2-61.3-36.3
		c-16.7-1.6-32.3-4.7-44.2-9.3c-2.2-0.9-4.4-1.8-6.3-2.8c-0.6-0.3-1.2-0.6-1.8-1c-0.5-0.3-1.1-0.6-1.6-0.9c0,0-0.1,0-0.1,0
		c-1.1-0.7-2.1-1.3-3.1-2.1c-3.7-2.7-6.4-5.8-7.9-9.3c-0.1-0.3-0.3-0.7-0.4-1c-0.2-0.5-0.3-1-0.5-1.5c0,0,0,0,0,0c0,0,0,0,0,0
		c0,0,0-0.1,0-0.1c-0.1-0.3-0.2-0.7-0.2-1c0,0,0,0,0,0c0,0,0-0.1,0-0.1c0,0,0,0,0,0c-0.1-0.4-0.1-0.7-0.1-1.1c0-0.3-0.1-0.7-0.1-1
		c0,0,0-0.1,0-0.1c0-0.4,0-0.8,0-1.2c0-0.9,0.1-1.8,0.2-2.7l-0.2-0.3C333,250.6,276,276.1,235.8,279c-4.7,0.3-9.1,0.4-13.3,0
		c-52.8-4.2-116-30.8-123.5-34c-5-2.1-8.7,5.1-11.5,16.8l0.3,4.4c0.7,0.9,1.7,1.8,3,2.8c0,0,0.1,0,0.1,0.1c0.3,0.2,0.6,0.4,0.9,0.7
		c0.1,0.1,0.2,0.1,0.2,0.2c0.3,0.2,0.6,0.4,0.9,0.7c0.1,0.1,0.2,0.1,0.3,0.2c0.3,0.2,0.6,0.4,1,0.7c0.1,0.1,0.2,0.1,0.3,0.2
		c1.1,0.7,2.2,1.4,3.5,2.1c0.2,0.1,0.4,0.2,0.6,0.4c0.3,0.2,0.6,0.3,0.9,0.5c0.3,0.2,0.6,0.3,0.9,0.5c0.3,0.2,0.6,0.3,0.9,0.5
		c0.3,0.2,0.7,0.3,1,0.5c0.3,0.1,0.6,0.3,0.9,0.4c0.4,0.2,0.8,0.4,1.1,0.6c0.3,0.1,0.5,0.3,0.8,0.4c0.4,0.2,0.9,0.4,1.3,0.6
		c0.2,0.1,0.5,0.2,0.7,0.3c0.7,0.3,1.4,0.7,2.1,1c10.9,5.1,24.2,10.1,35.9,13.5c1.7,0.5,3.9,1.1,6.7,1.9
		c19.5,5.5,170.5,47.3,177.7,49.1c10.5,2.6,19.8,4.5,27.9,5.4c0.1,0,0.1,0,0.2,0c3.4,0.4,6.5,0.6,9.5,0.6c0.1,0,0.3,0,0.4,0
		c0.7,0,1.3,0,2,0c0.1,0,0.3,0,0.4,0c2-0.1,4-0.3,5.8-0.6c0.1,0,0.2,0,0.2,0c0.5-0.1,1-0.2,1.5-0.3c0.2,0,0.4-0.1,0.6-0.1
		c0.5-0.1,0.9-0.2,1.4-0.3c0.2-0.1,0.4-0.1,0.6-0.2c1.5-0.4,2.8-0.9,4.1-1.5c0.2-0.1,0.4-0.2,0.6-0.3c0.3-0.2,0.7-0.3,1-0.5
		c0.2-0.1,0.5-0.3,0.7-0.4c0.3-0.2,0.6-0.4,0.9-0.6c0.2-0.2,0.5-0.3,0.7-0.5c0.3-0.2,0.6-0.4,0.8-0.6c0.4-0.4,0.9-0.7,1.3-1.1
		c0.2-0.2,0.4-0.4,0.6-0.6c0.2-0.2,0.5-0.5,0.7-0.7c0.2-0.2,0.4-0.5,0.6-0.7c0.2-0.3,0.4-0.5,0.6-0.8c0.2-0.2,0.4-0.5,0.5-0.7
		c0.2-0.3,0.4-0.7,0.7-1c0.1-0.2,0.3-0.4,0.4-0.6c0.3-0.6,0.6-1.1,0.9-1.7c0.1-0.2,0.2-0.5,0.3-0.7c0.2-0.4,0.4-0.8,0.5-1.3
		c0.1-0.3,0.2-0.6,0.3-0.8c0.2-0.4,0.3-0.9,0.4-1.3c0.1-0.3,0.2-0.5,0.2-0.8c0.2-0.6,0.3-1.2,0.5-1.9c0-0.1,0.1-0.3,0.1-0.4
		c0.2-0.8,0.3-1.6,0.4-2.4c0-0.3,0.1-0.5,0.1-0.8c0.1-0.6,0.2-1.2,0.2-1.8c0-0.3,0.1-0.6,0.1-1c0.1-0.6,0.1-1.3,0.1-2
		c0-0.3,0-0.6,0-0.9c0-1,0.1-2,0.1-3c0-8-1.2-17.6-3.5-29.1c36.4,18.3,75.3,63.9,51.7,91.7c-1.2,1.4-2.5,2.7-3.8,3.9
		c-0.6,0.5-1.2,1.1-1.8,1.6c-0.2,0.2-0.4,0.3-0.6,0.5c-0.4,0.3-0.8,0.6-1.3,1c-0.3,0.2-0.5,0.4-0.8,0.5c-0.4,0.3-0.8,0.5-1.2,0.8
		c-0.3,0.2-0.6,0.4-0.9,0.5c-0.4,0.2-0.8,0.5-1.2,0.7c-0.3,0.2-0.6,0.3-1,0.5c-0.4,0.2-0.8,0.4-1.2,0.6c-0.3,0.2-0.7,0.3-1,0.5
		c-0.4,0.2-0.8,0.4-1.2,0.5c-0.4,0.2-0.7,0.3-1.1,0.5c-0.4,0.2-0.8,0.3-1.2,0.5c-0.4,0.1-0.8,0.3-1.1,0.4c-0.4,0.1-0.8,0.3-1.3,0.4
		c-0.4,0.1-0.8,0.3-1.2,0.4c-0.4,0.1-0.8,0.2-1.3,0.4c-0.4,0.1-0.8,0.2-1.3,0.3c-0.4,0.1-0.8,0.2-1.3,0.3c-0.4,0.1-0.9,0.2-1.3,0.3
		c-0.4,0.1-0.8,0.2-1.2,0.2c-0.5,0.1-1,0.2-1.5,0.3c-0.3,0-0.6,0.1-0.9,0.1c-1.4,0.2-2.9,0.4-4.4,0.6c0,0,0,0-0.1,0
		c-0.7,0.1-1.3,0.1-2,0.2c-0.3,0-0.5,0.1-0.8,0.1c-0.6,0-1.3,0.1-1.9,0.1c-0.3,0-0.6,0-0.9,0.1c-0.6,0-1.3,0.1-2,0.1
		c-0.3,0-0.6,0-1,0c-0.7,0-1.3,0-2,0c-0.3,0-0.6,0-1,0c-0.7,0-1.4,0-2.1,0c-0.3,0-0.6,0-0.9,0c-0.7,0-1.5,0-2.2-0.1
		c-0.3,0-0.6,0-0.9,0c-0.8,0-1.5-0.1-2.3-0.1c-0.2,0-0.5,0-0.7,0c-0.8-0.1-1.7-0.1-2.5-0.2c-0.2,0-0.4,0-0.5,0
		c-0.9-0.1-1.8-0.2-2.7-0.3c-0.1,0-0.1,0-0.2,0c-9.5-1-19.6-2.7-30-5.1v0c-43.6-9.7-94.2-29.4-137.6-42.8c-2.8-0.9-5.5-1.7-8.2-2.5
		l0,0c3.1,1.8,5.8,3.6,8.2,5.5c4.6,3.6,7.8,7.3,9.3,11.4c6.7,18.5,34,74.2,38.3,84.3v0c29.5,1.3,60.3,2.9,90.7,4.8
		c2.7,0.2,5.4,0.3,8.1,0.5c1.2,0.1,2.3,0.2,3.5,0.2c1.7,0.1,3.5,0.2,5.2,0.3c1.3,0.1,2.5,0.2,3.8,0.3c1.7,0.1,3.3,0.2,5,0.3
		c1.2,0.1,2.4,0.2,3.7,0.3c1.9,0.1,3.8,0.3,5.7,0.4c0.9,0.1,1.9,0.1,2.8,0.2c2.7,0.2,5.4,0.4,8.1,0.6c1,0.1,2,0.2,3,0.2
		c1.8,0.1,3.6,0.3,5.4,0.4c1.1,0.1,2.3,0.2,3.4,0.3c1.8,0.1,3.5,0.3,5.3,0.4c1,0.1,2.1,0.2,3.1,0.3c2.2,0.2,4.4,0.4,6.5,0.5
		c0.6,0,1.1,0.1,1.7,0.1c2.7,0.2,5.4,0.5,8,0.7c0.9,0.1,1.7,0.2,2.5,0.2c1.9,0.2,3.7,0.3,5.6,0.5c1,0.1,1.9,0.2,2.9,0.3
		c1.8,0.2,3.6,0.3,5.4,0.5c0.9,0.1,1.7,0.2,2.6,0.3c2.4,0.2,4.8,0.5,7.2,0.7c0.2,0,0.4,0,0.6,0.1c2.6,0.3,5.1,0.5,7.6,0.8
		c0.7,0.1,1.5,0.2,2.2,0.2c1.8,0.2,3.6,0.4,5.4,0.6c0.8,0.1,1.6,0.2,2.5,0.3c1.8,0.2,3.5,0.4,5.3,0.6c0.7,0.1,1.4,0.2,2.1,0.3
		c2.4,0.3,4.8,0.6,7.2,0.9c0,0,0,0-0.1,0v-0.8c5.8-11.1,14.8-27.1,23.3-43.4c9.3-17.9,18.1-36.2,21.4-49
		C543.3,363,544.2,355,544.6,347L544.6,347z"/>
	<path id="j1_x5F_baseRed" class="st4" d="M935.2,432L935.2,432c-37.4,20-194.6,82.4-328.2,102.7c-46.9,7.1-153.4,6-171.7,5
		c-40-2-85.3-13-122-13.2c-34.6-0.1-112.1-3.7-120.1-4.1c-14-0.8-15,10-30,10c-3.8,0-53.2-4-66-5.5c-12.7-1.5-24-6.5-29-11.7
		c4.1,18.9,16.9,21.5,22.8,23c9,2.3,48.7,6.4,80.2,8.9c1.2,0.1,2.4,0.2,3.6,0.3c2.3,0.2,4.6,0.4,6.8,0.5c6,0.4,13.2,0.9,21.4,1.4
		c1.2,0.1,2.4,0.1,3.6,0.2c7.9,0.4,16.6,0.9,26,1.3c1.2,0.1,2.4,0.1,3.6,0.2c8.8,0.4,18.2,0.8,28.1,1.2c1.2,0,2.4,0.1,3.6,0.1
		c9.4,0.4,19.1,0.7,29.3,1c1.2,0,2.4,0.1,3.6,0.1c9.2,0.3,18.6,0.6,28.3,0.8c1.2,0,2.4,0.1,3.6,0.1c66.3,1.8,141.8,2.7,207.4,1.4
		c1.2,0,2.4,0,3.6-0.1c13.8-0.3,27.1-0.6,39.7-1.1c1.2,0,2.4-0.1,3.6-0.1c14.4-0.6,27.9-1.3,40.3-2.2c1.2-0.1,2.4-0.2,3.6-0.3
		c12.7-0.9,24.1-2.1,34-3.4c1.2-0.2,2.4-0.3,3.5-0.5c2.4-0.3,4.7-0.7,6.8-1.1c10.6-1.8,20.9-3.6,31-5.4c1.2-0.2,2.4-0.4,3.5-0.6
		c134.7-24.5,224.8-52.3,227-76.6C937.5,456.3,936.4,443.4,935.2,432z"/>
	<path id="j1_x5F_lacesRed" class="st6" d="M556,290.6c-2.2-1.2-5.9-2.4-10.7-3.9c-6.5-2.1-14.9-5-23.8-10.1
		c-4-2.3-8.1-4.9-12.2-8.2c-5-4-10.1-8.7-14.8-14.6c-0.1-0.1-0.1-0.2-0.2-0.3c-3.7-4.5-9.4-11.2-15.6-16.6c-0.2-0.1-0.3-0.3-0.5-0.4
		c-4.2-3.6-8.7-6.5-12.9-7.7c-1.3-0.3-2.6-0.7-3.9-1c-13.5-3.1-28.1-3.8-40.1-6.4c-12.1-2.6-21.5-7.1-24.4-17.7
		c-0.7-2.5-1-5.4-0.9-8.6c0.1-2.5,0.1-5.5,0-8.8c-0.1-5.6-0.4-12.2-0.9-19.3l-2.6-0.3c-5,3.3-14.6,9.4-26.6,16.7
		c-0.2,0.1-0.5,0.3-0.7,0.5c-0.3,0.2-0.6,0.4-1,0.6c-3.2,1.9-6.5,4-9.9,6.1c2.9,12.2-6.8,24.3-8.5,46.9c-0.1,0.9-0.1,1.8-0.2,2.7
		c0,0.4,0,0.8,0,1.2c0,0.8,0.1,1.5,0.2,2.2c0,0,0,0.1,0,0.1c0.1,0.3,0.1,0.6,0.2,0.9c0,0.1,0,0.2,0,0.2c0,0.1,0.1,0.2,0.1,0.3
		c0,0.1,0,0.1,0.1,0.2c0.1,0.2,0.1,0.4,0.2,0.6c0,0.1,0.1,0.2,0.1,0.3c0.3,1,0.8,2,1.3,2.9c0.1,0.2,0.2,0.3,0.3,0.5
		c0.1,0.2,0.2,0.4,0.3,0.6c0,0.1,0.1,0.1,0.1,0.2c0.4,0.6,0.9,1.2,1.4,1.8c0,0.1,0.1,0.1,0.1,0.2c0.5,0.6,1,1.2,1.6,1.7
		c0.1,0.1,0.2,0.2,0.3,0.2c0.9,0.8,1.8,1.6,2.9,2.4c0.1,0.1,0.2,0.2,0.3,0.2c0.8,0.6,1.6,1.1,2.5,1.7c0.1,0.1,0.2,0.1,0.2,0.2
		c0,0,0.1,0,0.1,0c0.5,0.3,1,0.6,1.6,0.9c0.6,0.3,1.2,0.6,1.8,1c0.6,0.3,1.3,0.6,2,1c0.3,0.1,0.6,0.3,0.9,0.4
		c0.3,0.1,0.6,0.2,0.8,0.4c0.8,0.4,1.6,0.7,2.5,1c0.1,0,0.1,0,0.1,0.1l0,0c11.9,4.7,27.5,7.7,44.2,9.3c6.3,0.6,12.4,2,18.3,4.1
		c14.7,5.3,28.5,15.6,43,32.2c20.3,23.3,56.3,34.3,71.6,37.6l0,0c0.1-0.9,0.1-1.9,0.1-2.8c0-0.3,0-0.6,0-0.9c0-0.6,0.1-1.3,0.1-1.9
		c0-0.4,0-0.7,0-1.1c0-0.6,0-1.2,0.1-1.7c0-0.4,0-0.7,0-1.1c0-0.4,0-0.9,0-1.3c0-0.1,0-0.3,0-0.4c0-0.2,0-0.4,0-0.6
		c0-0.1,0-0.3,0-0.4c0-0.6,0-1.2,0-1.8c0-0.3,0-0.6,0-0.8c0-0.7,0-1.4,0-2.1c0-0.1,0-0.3,0-0.4c0-3,0-5.9,0.1-8.7c0-0.1,0-0.1,0-0.2
		c0-0.7,0-1.5,0-2.2c0-0.1,0-0.2,0-0.3c0-0.7,0-1.4,0-2.1c0-0.1,0-0.2,0-0.3c0-0.7,0-1.4,0.1-2c0,0,0-0.1,0-0.1
		c0.1-3.6,0.3-6.9,0.7-9.8c0-0.1,0-0.2,0-0.3c0.1-0.5,0.1-0.9,0.2-1.3c0-0.2,0-0.3,0.1-0.5c0.1-0.4,0.2-0.8,0.2-1.2
		c0-0.2,0.1-0.3,0.1-0.5c0-0.1,0-0.1,0.1-0.2c0.1-0.3,0.1-0.6,0.2-0.8c0,0,0-0.1,0-0.1c0-0.1,0.1-0.2,0.1-0.4c0.1-0.3,0.2-0.7,0.3-1
		c0.1-0.2,0.1-0.3,0.2-0.5c0.1-0.3,0.2-0.6,0.3-0.9c0.1-0.1,0.1-0.3,0.2-0.4c0.1-0.3,0.2-0.5,0.4-0.8c0.1-0.1,0.1-0.3,0.2-0.4
		c0.1-0.2,0.3-0.5,0.4-0.7c0.1-0.1,0.2-0.2,0.2-0.3c0.2-0.2,0.3-0.4,0.5-0.6c0.1-0.1,0.2-0.2,0.3-0.3c0.2-0.2,0.4-0.3,0.6-0.5
		c0.1-0.1,0.2-0.1,0.3-0.2c0.1-0.1,0.2-0.2,0.4-0.2c0.1-0.1,0.2-0.1,0.3-0.2c0.1,0,0.2-0.1,0.2-0.1c0.2-0.1,0.5-0.2,0.8-0.3
		c0,0,0.1,0,0.1,0c0.7-0.2,1.6-0.3,2.5-0.3c0.3,0,0.6,0,0.9,0.1c0,0,0,0,0,0L556,290.6z"/>
	<path id="j1_x5F_supportRed" class="st7" d="M678.5,348.3c-1.5-1.9-3.5-4-6-6.2c-1-0.9-2.1-1.9-3.4-2.9c-3.2-0.8-5.9-1.7-8.1-2.5
		c-16.5-5.8-50.2-21.9-76.2-33.8c-4.3-2-8.3-3.8-12.1-5.5v0c-0.1-0.1-0.3-0.1-0.4-0.2c-0.7-0.3-1.4-0.6-2-0.9
		c-0.2-0.1-0.4-0.2-0.7-0.3c-0.8-0.4-1.6-0.7-2.4-1.1c-0.1,0-0.1-0.1-0.2-0.1c-0.5-0.2-0.9-0.4-1.4-0.6c-0.1-0.1-0.3-0.1-0.4-0.2
		c-0.4-0.2-0.8-0.3-1.1-0.5c-0.2-0.1-0.3-0.1-0.5-0.2c-0.4-0.1-0.7-0.3-1-0.4c-0.2-0.1-0.3-0.1-0.5-0.2c-0.3-0.1-0.7-0.3-1-0.4
		c-0.1-0.1-0.3-0.1-0.4-0.2c-0.5-0.2-0.9-0.4-1.3-0.5c-0.6-0.2-1.1-0.4-1.6-0.6c-0.6-0.2-1.1-0.3-1.6-0.3c-0.3,0-0.6-0.1-0.9-0.1
		c-0.4,0-0.8,0-1.2,0c0,0,0,0,0,0c0,0-0.1,0-0.1,0c-0.1,0-0.1,0-0.2,0c-0.4,0-0.7,0.1-1,0.2c0,0-0.1,0-0.1,0
		c-0.3,0.1-0.5,0.2-0.8,0.3c-0.1,0-0.2,0.1-0.2,0.1c-0.1,0.1-0.2,0.1-0.3,0.2c-0.1,0.1-0.2,0.2-0.4,0.2c-0.1,0.1-0.2,0.1-0.3,0.2
		c-0.2,0.2-0.4,0.3-0.6,0.5c-0.1,0.1-0.2,0.2-0.3,0.3c-0.2,0.2-0.3,0.4-0.5,0.6c-0.1,0.1-0.2,0.2-0.2,0.3c-0.1,0.2-0.3,0.4-0.4,0.7
		c-0.1,0.1-0.1,0.3-0.2,0.4c-0.1,0.2-0.3,0.5-0.4,0.8c-0.1,0.1-0.1,0.3-0.2,0.4c-0.1,0.3-0.2,0.6-0.3,0.9c-0.1,0.2-0.1,0.3-0.2,0.5
		c-0.1,0.3-0.2,0.6-0.3,1c0,0.2-0.1,0.3-0.1,0.5c-0.1,0.3-0.2,0.7-0.3,1.1c0,0.2-0.1,0.3-0.1,0.5c-0.1,0.4-0.2,0.8-0.2,1.2
		c0,0.2,0,0.3-0.1,0.5c-0.1,0.4-0.1,0.9-0.2,1.3c0,0.1,0,0.2,0,0.3c0,0,0,0,0,0c-0.2,1.5-0.3,3-0.5,4.7c-0.1,1.6-0.2,3.4-0.3,5.2
		c0,0,0,0.1,0,0.1c0,0.7,0,1.4-0.1,2c0,0.1,0,1.7,0,2.3c0,0.1,0,0.2,0,0.3c0,0.7,0,1.4,0,2.2c0,0.1,0,0.1,0,0.2c0,2.8,0,5.7-0.1,8.7
		c0,0.1,0,0.3,0,0.4c0,0.7,0,1.4,0,2.1c0,0.3,0,0.6,0,0.8c0,0.6,0,1.2,0,1.8c0,0.4,0,0.7,0,1.1c0,0.6,0,1.1,0,1.7c0,0.4,0,0.7,0,1.1
		c0,0.6,0,1.2-0.1,1.7c0,0.4,0,0.7,0,1.1c0,0.6,0,1.3-0.1,1.9c0,0.3,0,0.6,0,0.9c0,0.9-0.1,1.9-0.1,2.8c-0.3,4.8-0.7,9.6-1.5,14.3
		c-0.5,3.1-1.1,6.2-1.9,9.1c-3.3,12.7-12.1,31.1-21.4,49c-8.5,16.3-17.4,32.3-23.3,43.4v0.8c2.6,0.3,5.2,0.7,7.7,1
		c0.4,0,0.7,0.1,1.1,0.1c9.3,1.3,18.1,2.6,26.2,4c11.4,2,23.3,3.3,35.5,4.1c0,0,0.1,0,0.1,0c0,0,0,0-0.1,0c1.8,0.1,3.7,0.2,5.5,0.3
		c6.9,0.4,13.9,0.6,21,0.6c10.2-22.4,37.2-81.9,69.5-89.4h0C673.7,369.4,690.7,363.8,678.5,348.3z"/>
	<path id="j1_x5F_lacesWhite" class="st8" d="M677.2,336.5L677.2,336.5c-4.9-8.7-17.9-15.3-32.9-17.6c-17-2.6-69.5-36.6-93-43.4
		c-23.5-6.9-34.4-18-38.9-23.3c-4.5-5.3-14.7-28.6-20.4-32.5c0.9-29.6-22.5-36.1-29.5-37.6c-7-1.5-9.6-22.1-12.3-29
		c-14.2-36.4-37.2-61.5-55.5-75.5c-1.2-0.9-2.5-1.8-3.7-2.7c-6.8-4.8-10.8-5.7-15-3.6c-2.9,1.5-6,4.3-10.1,8.3
		c4,3.9,7.6,8.2,10.8,12.8c2.8,4,5.9,10.9,8.7,19.4c0.1,0.2,0.1,0.4,0.2,0.6c5.2,16,9.5,37.3,9.5,54.9c0.5,7.1,0.8,13.7,0.9,19.3
		c0.1,3.5,0.1,6.6,0.1,9.3c-0.1,3.1,0.2,5.8,0.9,8.1c2.9,10.6,12.3,15.1,24.4,17.7c12,2.6,26.6,3.3,40.1,6.4c1.4,0.3,2.8,0.6,4.2,1
		c4.3,1.1,8.8,4.1,13.1,7.7l0,0.3c6.3,5.5,12.1,12.4,15.8,16.9C518.3,283,548,286,556,290.6l0.1,0.1c0,0,0,0,0,0
		c1,0.1,2.1,0.4,3.2,0.9c0.4,0.2,0.9,0.4,1.3,0.5c0.1,0.1,0.3,0.1,0.4,0.2c0.3,0.1,0.7,0.3,1,0.4c0.2,0.1,0.3,0.1,0.5,0.2
		c0.3,0.1,0.7,0.3,1,0.4c0.2,0.1,0.3,0.1,0.5,0.2c0.4,0.2,0.8,0.3,1.1,0.5c0.1,0.1,0.3,0.1,0.4,0.2c0.5,0.2,0.9,0.4,1.4,0.6
		c0.1,0,0.1,0.1,0.2,0.1c0.8,0.3,1.6,0.7,2.4,1.1c0.2,0.1,0.4,0.2,0.7,0.3c0.7,0.3,1.3,0.6,2,0.9c0.1,0.1,0.3,0.1,0.4,0.2v0
		c3.8,1.7,7.8,3.5,12.1,5.5c26,11.9,59.6,28,76.2,33.8c2.2,0.8,5,1.6,8.1,2.5c2.6,0.7,5.5,1.4,8.6,2.1c0.4,0.1,0.9,0.2,1.4,0.3
		C678.7,339.2,678.4,338.2,677.2,336.5z"/>
</g>
</svg>
